<?xml version="1.0" encoding="UTF-8" standalone="no"?>
<!-- Created with Inkscape (http://www.inkscape.org/) -->

<svg
   xmlns:dc="http://purl.org/dc/elements/1.1/"
   xmlns:cc="http://creativecommons.org/ns#"
   xmlns:rdf="http://www.w3.org/1999/02/22-rdf-syntax-ns#"
   xmlns:svg="http://www.w3.org/2000/svg"
   xmlns="http://www.w3.org/2000/svg"
   xmlns:sodipodi="http://sodipodi.sourceforge.net/DTD/sodipodi-0.dtd"
   xmlns:inkscape="http://www.inkscape.org/namespaces/inkscape"
   width="810"
   height="1170"
   id="svg2"
   version="1.1"
   inkscape:version="0.48.4 r9939"
   sodipodi:docname="New document 1">
  <defs
     id="defs4" />
  <sodipodi:namedview
     id="base"
     pagecolor="#ffffff"
     bordercolor="#666666"
     borderopacity="1.0"
     inkscape:pageopacity="0.0"
     inkscape:pageshadow="2"
     inkscape:zoom="0.69059829"
     inkscape:cx="405"
     inkscape:cy="585"
     inkscape:document-units="px"
     inkscape:current-layer="layer1"
     showgrid="false"
     units="in"
     inkscape:window-width="1280"
     inkscape:window-height="1024"
     inkscape:window-x="1280"
     inkscape:window-y="0"
     inkscape:window-maximized="0" />
  <metadata
     id="metadata7">
    <rdf:RDF>
      <cc:Work
         rdf:about="">
        <dc:format>image/svg+xml</dc:format>
        <dc:type
           rdf:resource="http://purl.org/dc/dcmitype/StillImage" />
        <dc:title></dc:title>
      </cc:Work>
    </rdf:RDF>
  </metadata>
  <g
     inkscape:label="Layer 1"
     inkscape:groupmode="layer"
     id="layer1"
     transform="translate(0,117.64025)">
    <path
       style="fill:none;stroke:#000000;stroke-width:1.24015749;stroke-linecap:butt;stroke-linejoin:miter"
       inkscape:connector-curvature="0"
       id="1"
       d="m 11.254715,289.92237 0,329.52756" />
    <path
       style="fill:none;stroke:#000000;stroke-width:1.24015749;stroke-linecap:butt;stroke-linejoin:miter"
       inkscape:connector-curvature="0"
       id="2"
       d="m 11.254715,619.44993 329.527555,0" />
    <path
       style="fill:none;stroke:#000000;stroke-width:1.24015749;stroke-linecap:butt;stroke-linejoin:miter"
       inkscape:connector-curvature="0"
       id="3"
       d="m 340.78227,619.44993 0,-329.52756" />
    <path
       style="fill:none;stroke:#000000;stroke-width:1.24015749;stroke-linecap:butt;stroke-linejoin:miter"
       inkscape:connector-curvature="0"
       id="4"
       d="m 340.78227,289.92237 -329.527555,0" />
    <path
       style="fill:none;stroke:#000000;stroke-width:1.24015749;stroke-linecap:butt;stroke-linejoin:miter"
       inkscape:connector-curvature="0"
       id="5"
       d="m 41.372824,320.04048 0,269.29134" />
    <path
       style="fill:none;stroke:#000000;stroke-width:1.24015749;stroke-linecap:butt;stroke-linejoin:miter"
       inkscape:connector-curvature="0"
       id="6"
       d="m 41.372824,589.33182 269.291336,0" />
    <path
       style="fill:none;stroke:#000000;stroke-width:1.24015749;stroke-linecap:butt;stroke-linejoin:miter"
       inkscape:connector-curvature="0"
       id="7"
       d="m 310.66416,589.33182 0,-269.29134" />
    <path
       style="fill:none;stroke:#000000;stroke-width:1.24015749;stroke-linecap:butt;stroke-linejoin:miter"
       inkscape:connector-curvature="0"
       id="8"
       d="m 310.66416,320.04048 -269.291336,0" />
    <path
       transform="matrix(0,-3.543307,-3.543307,0,176.01849,454.68615)"
       style="fill:none;stroke:#000000;stroke-width:0.34999999;stroke-linecap:butt;stroke-linejoin:miter"
       d="m 44,28.1667 c 0,0.966499 -0.783502,1.75 -1.75,1.75 -0.966498,0 -1.75,-0.783501 -1.75,-1.75 0,-0.966498 0.783502,-1.75 1.75,-1.75 0.966498,0 1.75,0.783502 1.75,1.75 z"
       id="circle3262" />
    <path
       transform="matrix(0,-3.543307,-3.543307,0,176.01849,454.68615)"
       style="fill:none;stroke:#000000;stroke-width:0.34999999;stroke-linecap:butt;stroke-linejoin:miter"
       d="m 44,-28.1667 c 0,0.966498 -0.783502,1.75 -1.75,1.75 -0.966498,0 -1.75,-0.783502 -1.75,-1.75 0,-0.966499 0.783502,-1.75 1.75,-1.75 0.966498,0 1.75,0.783501 1.75,1.75 z"
       id="circle3264" />
    <path
       transform="matrix(0,-3.543307,-3.543307,0,176.01849,454.68615)"
       style="fill:none;stroke:#000000;stroke-width:0.34999999;stroke-linecap:butt;stroke-linejoin:miter"
       d="m 29.9167,-42.25 c 0,0.966498 -0.783501,1.75 -1.75,1.75 -0.966498,0 -1.75,-0.783502 -1.75,-1.75 0,-0.966498 0.783502,-1.75 1.75,-1.75 0.966499,0 1.75,0.783502 1.75,1.75 z"
       id="circle3266" />
    <path
       transform="matrix(0,-3.543307,-3.543307,0,176.01849,454.68615)"
       style="fill:none;stroke:#000000;stroke-width:0.34999999;stroke-linecap:butt;stroke-linejoin:miter"
       d="m -26.4167,-42.25 c 0,0.966498 -0.783502,1.75 -1.75,1.75 -0.966499,0 -1.75,-0.783502 -1.75,-1.75 0,-0.966498 0.783501,-1.75 1.75,-1.75 0.966498,0 1.75,0.783502 1.75,1.75 z"
       id="circle3268" />
    <path
       transform="matrix(0,-3.543307,-3.543307,0,176.01849,454.68615)"
       style="fill:none;stroke:#000000;stroke-width:0.34999999;stroke-linecap:butt;stroke-linejoin:miter"
       d="m -40.5,-28.1667 c 0,0.966498 -0.783502,1.75 -1.75,1.75 -0.966498,0 -1.75,-0.783502 -1.75,-1.75 0,-0.966499 0.783502,-1.75 1.75,-1.75 0.966498,0 1.75,0.783501 1.75,1.75 z"
       id="circle3270" />
    <path
       transform="matrix(0,-3.543307,-3.543307,0,176.01849,454.68615)"
       style="fill:none;stroke:#000000;stroke-width:0.34999999;stroke-linecap:butt;stroke-linejoin:miter"
       d="m -40.5,28.1667 c 0,0.966499 -0.783502,1.75 -1.75,1.75 -0.966498,0 -1.75,-0.783501 -1.75,-1.75 0,-0.966498 0.783502,-1.75 1.75,-1.75 0.966498,0 1.75,0.783502 1.75,1.75 z"
       id="circle3272" />
    <path
       transform="matrix(0,-3.543307,-3.543307,0,176.01849,454.68615)"
       style="fill:none;stroke:#000000;stroke-width:0.34999999;stroke-linecap:butt;stroke-linejoin:miter"
       d="m -26.4167,42.25 c 0,0.966498 -0.783502,1.75 -1.75,1.75 -0.966499,0 -1.75,-0.783502 -1.75,-1.75 0,-0.966498 0.783501,-1.75 1.75,-1.75 0.966498,0 1.75,0.783502 1.75,1.75 z"
       id="circle3274" />
    <path
       transform="matrix(0,-3.543307,-3.543307,0,176.01849,454.68615)"
       style="fill:none;stroke:#000000;stroke-width:0.34999999;stroke-linecap:butt;stroke-linejoin:miter"
       d="m 29.9167,42.25 c 0,0.966498 -0.783501,1.75 -1.75,1.75 -0.966498,0 -1.75,-0.783502 -1.75,-1.75 0,-0.966498 0.783502,-1.75 1.75,-1.75 0.966499,0 1.75,0.783502 1.75,1.75 z"
       id="circle3276" />
    <path
       style="fill:none;stroke:#000000;stroke-width:1.24015749;stroke-linecap:butt;stroke-linejoin:miter"
       inkscape:connector-curvature="0"
       id="path3281"
       d="m 0.6247935,279.29245 0,350.7874" />
    <path
       style="fill:none;stroke:#000000;stroke-width:1.24015749;stroke-linecap:butt;stroke-linejoin:miter"
       inkscape:connector-curvature="0"
       id="path3283"
       d="m 0.6247935,630.07985 0,70.86614" />
    <path
       style="fill:none;stroke:#000000;stroke-width:1.24015749;stroke-linecap:butt;stroke-linejoin:miter"
       inkscape:connector-curvature="0"
       id="path3285"
       d="m 0.6247935,700.94599 0,340.15751" />
    <path
       style="fill:none;stroke:#000000;stroke-width:1.24015749;stroke-linecap:butt;stroke-linejoin:miter"
       inkscape:connector-curvature="0"
       d="M 11.254715,1051.7334 A 10.629921,10.629921 0 0 1 0.6247935,1041.1035"
       id="path3287" />
    <path
       style="fill:none;stroke:#000000;stroke-width:1.24015749;stroke-linecap:butt;stroke-linejoin:miter"
       inkscape:connector-curvature="0"
       id="path3289"
       d="m 11.254715,1051.7334 329.527555,0" />
    <path
       style="fill:none;stroke:#000000;stroke-width:1.24015749;stroke-linecap:butt;stroke-linejoin:miter"
       inkscape:connector-curvature="0"
       d="m 351.41219,1041.1035 a 10.629921,10.629921 0 0 1 -10.62992,10.6299"
       id="path3291" />
    <path
       style="fill:none;stroke:#000000;stroke-width:1.24015749;stroke-linecap:butt;stroke-linejoin:miter"
       inkscape:connector-curvature="0"
       id="path3293"
       d="m 351.41219,1041.1035 0,-340.15751" />
    <path
       style="fill:none;stroke:#000000;stroke-width:1.24015749;stroke-linecap:butt;stroke-linejoin:miter"
       inkscape:connector-curvature="0"
       id="path3295"
       d="m 351.41219,700.94599 0,-70.86614" />
    <path
       style="fill:none;stroke:#000000;stroke-width:1.24015749;stroke-linecap:butt;stroke-linejoin:miter"
       inkscape:connector-curvature="0"
       id="9"
       d="m 351.41219,630.07985 0,-350.7874" />
    <path
       style="fill:none;stroke:#000000;stroke-width:1.24015749;stroke-linecap:butt;stroke-linejoin:miter"
       inkscape:connector-curvature="0"
       d="m 334.83022,249.29021 a 35.43307,35.43307 0 0 1 16.58197,30.00224"
       id="path3298" />
    <path
       style="fill:none;stroke:#000000;stroke-width:1.24015749;stroke-linecap:butt;stroke-linejoin:miter"
       inkscape:connector-curvature="0"
       id="11"
       d="m 192.98462,160.16435 141.8456,89.12586" />
    <path
       style="fill:none;stroke:#000000;stroke-width:1.24015749;stroke-linecap:butt;stroke-linejoin:miter"
       inkscape:connector-curvature="0"
       d="m 159.05236,160.16435 a 31.889763,31.889763 0 0 1 33.93226,0"
       id="path3301" />
    <path
       style="fill:none;stroke:#000000;stroke-width:1.24015749;stroke-linecap:butt;stroke-linejoin:miter"
       inkscape:connector-curvature="0"
       id="13"
       d="M 17.206762,249.29021 159.05236,160.16435" />
    <path
       style="fill:none;stroke:#000000;stroke-width:1.24015749;stroke-linecap:butt;stroke-linejoin:miter"
       inkscape:connector-curvature="0"
       d="M 0.6247935,279.29245 A 35.43307,35.43307 0 0 1 17.206762,249.29021"
       id="path3304" />
    <path
       style="fill:none;stroke:#000000;stroke-width:1.24015749;stroke-linecap:butt;stroke-linejoin:miter"
       inkscape:connector-curvature="0"
       id="15"
       d="m 340.78227,711.57591 0,329.52759" />
    <path
       style="fill:none;stroke:#000000;stroke-width:1.24015749;stroke-linecap:butt;stroke-linejoin:miter"
       inkscape:connector-curvature="0"
       id="16"
       d="m 340.78227,1041.1035 -329.527555,0" />
    <path
       style="fill:none;stroke:#000000;stroke-width:1.24015749;stroke-linecap:butt;stroke-linejoin:miter"
       inkscape:connector-curvature="0"
       id="17"
       d="m 11.254715,1041.1035 0,-53.14965" />
    <path
       style="fill:none;stroke:#000000;stroke-width:1.24015749;stroke-linecap:butt;stroke-linejoin:miter"
       inkscape:connector-curvature="0"
       d="M 11.254715,987.95385 A 566.92912,566.92912 0 0 1 287.63266,711.57591"
       id="path3309" />
    <path
       style="fill:none;stroke:#000000;stroke-width:1.24015749;stroke-linecap:butt;stroke-linejoin:miter"
       inkscape:connector-curvature="0"
       id="19"
       d="m 287.63266,711.57591 53.14961,0" />
    <path
       transform="matrix(0,-3.543307,-3.543307,0,176.01849,454.68615)"
       style="fill:none;stroke:#000000;stroke-width:0.34999999;stroke-linecap:butt;stroke-linejoin:miter"
       d="m -159.5,42.25 c 0,0.966498 -0.7835,1.75 -1.75,1.75 -0.9665,0 -1.75,-0.783502 -1.75,-1.75 0,-0.966498 0.7835,-1.75 1.75,-1.75 0.9665,0 1.75,0.783502 1.75,1.75 z"
       id="circle3312" />
    <path
       transform="matrix(0,-3.543307,-3.543307,0,176.01849,454.68615)"
       style="fill:none;stroke:#000000;stroke-width:0.34999999;stroke-linecap:butt;stroke-linejoin:miter"
       d="m -159.5,14.0833 c 0,0.966498 -0.7835,1.75 -1.75,1.75 -0.9665,0 -1.75,-0.783502 -1.75,-1.75 0,-0.966499 0.7835,-1.75 1.75,-1.75 0.9665,0 1.75,0.783501 1.75,1.75 z"
       id="circle3314" />
    <path
       transform="matrix(0,-3.543307,-3.543307,0,176.01849,454.68615)"
       style="fill:none;stroke:#000000;stroke-width:0.34999999;stroke-linecap:butt;stroke-linejoin:miter"
       d="m -159.5,-14.0833 c 0,0.966499 -0.7835,1.75 -1.75,1.75 -0.9665,0 -1.75,-0.783501 -1.75,-1.75 0,-0.966498 0.7835,-1.75 1.75,-1.75 0.9665,0 1.75,0.783502 1.75,1.75 z"
       id="circle3316" />
    <path
       transform="matrix(0,-3.543307,-3.543307,0,176.01849,454.68615)"
       style="fill:none;stroke:#000000;stroke-width:0.34999999;stroke-linecap:butt;stroke-linejoin:miter"
       d="m -159.5,-42.25 c 0,0.966498 -0.7835,1.75 -1.75,1.75 -0.9665,0 -1.75,-0.783502 -1.75,-1.75 0,-0.966498 0.7835,-1.75 1.75,-1.75 0.9665,0 1.75,0.783502 1.75,1.75 z"
       id="circle3318" />
    <path
       transform="matrix(0,-3.543307,-3.543307,0,176.01849,454.68615)"
       style="fill:none;stroke:#000000;stroke-width:0.34999999;stroke-linecap:butt;stroke-linejoin:miter"
       d="m -131.33299,-42.25 c 0,0.966498 -0.7835,1.75 -1.75,1.75 -0.9665,0 -1.75,-0.783502 -1.75,-1.75 0,-0.966498 0.7835,-1.75 1.75,-1.75 0.9665,0 1.75,0.783502 1.75,1.75 z"
       id="circle3320" />
    <path
       transform="matrix(0,-3.543307,-3.543307,0,176.01849,454.68615)"
       style="fill:none;stroke:#000000;stroke-width:0.34999999;stroke-linecap:butt;stroke-linejoin:miter"
       d="m -103.167,-42.25 c 0,0.966498 -0.7835,1.75 -1.75,1.75 -0.9665,0 -1.75,-0.783502 -1.75,-1.75 0,-0.966498 0.7835,-1.75 1.75,-1.75 0.9665,0 1.75,0.783502 1.75,1.75 z"
       id="circle3322" />
    <path
       transform="matrix(0,-3.543307,-3.543307,0,176.01849,454.68615)"
       style="fill:none;stroke:#000000;stroke-width:0.34999999;stroke-linecap:butt;stroke-linejoin:miter"
       d="m -75,-42.25 c 0,0.966498 -0.783502,1.75 -1.75,1.75 -0.966498,0 -1.75,-0.783502 -1.75,-1.75 0,-0.966498 0.783502,-1.75 1.75,-1.75 0.966498,0 1.75,0.783502 1.75,1.75 z"
       id="circle3324" />
    <path
       style="fill:none;stroke:#000000;stroke-width:1.24015749;stroke-linecap:butt;stroke-linejoin:miter"
       inkscape:connector-curvature="0"
       d="m 53.774399,688.54441 a 5.3149605,5.3149605 0 0 1 -2.657481,4.60276"
       id="path3326" />
    <path
       style="fill:none;stroke:#000000;stroke-width:1.24015749;stroke-linecap:butt;stroke-linejoin:miter"
       inkscape:connector-curvature="0"
       d="m 56.431879,693.14717 a 5.3149605,5.3149605 0 1 1 -5.314961,0"
       id="path3328" />
    <path
       style="fill:none;stroke:#000000;stroke-width:1.24015749;stroke-linecap:butt;stroke-linejoin:miter"
       inkscape:connector-curvature="0"
       d="m 56.431879,693.14717 a 5.3149605,5.3149605 0 0 1 -2.65748,-4.60276"
       id="path3330" />
    <path
       style="fill:none;stroke:#000000;stroke-width:1.24015749;stroke-linecap:butt;stroke-linejoin:miter"
       inkscape:connector-curvature="0"
       id="30"
       d="m 53.774399,688.54441 0,-46.06299" />
    <path
       style="fill:none;stroke:#000000;stroke-width:1.24015749;stroke-linecap:butt;stroke-linejoin:miter"
       inkscape:connector-curvature="0"
       d="m 51.116918,637.87867 a 5.3149605,5.3149605 0 0 1 2.657481,4.60275"
       id="path3333" />
    <path
       style="fill:none;stroke:#000000;stroke-width:1.24015749;stroke-linecap:butt;stroke-linejoin:miter"
       inkscape:connector-curvature="0"
       d="m 51.116918,637.87867 a 5.3149605,5.3149605 0 1 1 5.314961,0"
       id="path3335" />
    <path
       style="fill:none;stroke:#000000;stroke-width:1.24015749;stroke-linecap:butt;stroke-linejoin:miter"
       inkscape:connector-curvature="0"
       d="m 53.774399,642.48142 a 5.3149605,5.3149605 0 0 1 2.65748,-4.60275"
       id="path3337" />
    <path
       style="fill:none;stroke:#000000;stroke-width:1.24015749;stroke-linecap:butt;stroke-linejoin:miter"
       inkscape:connector-curvature="0"
       d="m 89.207469,642.48142 a 5.3149605,5.3149605 0 0 1 2.65748,-4.60275"
       id="path3339" />
    <path
       style="fill:none;stroke:#000000;stroke-width:1.24015749;stroke-linecap:butt;stroke-linejoin:miter"
       inkscape:connector-curvature="0"
       d="m 86.549988,637.87867 a 5.3149605,5.3149605 0 1 1 5.314961,0"
       id="path3341" />
    <path
       style="fill:none;stroke:#000000;stroke-width:1.24015749;stroke-linecap:butt;stroke-linejoin:miter"
       inkscape:connector-curvature="0"
       d="m 86.549988,637.87867 a 5.3149605,5.3149605 0 0 1 2.657481,4.60275"
       id="path3343" />
    <path
       style="fill:none;stroke:#000000;stroke-width:1.24015749;stroke-linecap:butt;stroke-linejoin:miter"
       inkscape:connector-curvature="0"
       id="37"
       d="m 89.207469,642.48142 0,46.06299" />
    <path
       style="fill:none;stroke:#000000;stroke-width:1.24015749;stroke-linecap:butt;stroke-linejoin:miter"
       inkscape:connector-curvature="0"
       d="m 89.207469,688.54441 a 5.3149605,5.3149605 0 0 1 -2.657481,4.60276"
       id="path3346" />
    <path
       style="fill:none;stroke:#000000;stroke-width:1.24015749;stroke-linecap:butt;stroke-linejoin:miter"
       inkscape:connector-curvature="0"
       d="m 91.864949,693.14717 a 5.3149605,5.3149605 0 1 1 -5.314961,0"
       id="path3348" />
    <path
       style="fill:none;stroke:#000000;stroke-width:1.24015749;stroke-linecap:butt;stroke-linejoin:miter"
       inkscape:connector-curvature="0"
       d="m 91.864949,693.14717 a 5.3149605,5.3149605 0 0 1 -2.65748,-4.60276"
       id="path3350" />
    <path
       transform="matrix(0,-3.543307,-3.543307,0,176.01849,454.68615)"
       style="fill:none;stroke:#000000;stroke-width:0.34999999;stroke-linecap:butt;stroke-linejoin:miter"
       d="m 77.25,0 c 0,0.96649831 -0.783502,1.75 -1.75,1.75 -0.966498,0 -1.75,-0.78350169 -1.75,-1.75 0,-0.96649831 0.783502,-1.75 1.75,-1.75 0.966498,0 1.75,0.78350169 1.75,1.75 z"
       id="circle3352" />
    <path
       transform="matrix(0,-3.543307,-3.543307,0,176.01849,454.68615)"
       style="fill:none;stroke:#000000;stroke-width:0.34999999;stroke-linecap:butt;stroke-linejoin:miter"
       d="m -156.75,0 c 0,0.96649831 -0.7835,1.75 -1.75,1.75 -0.9665,0 -1.75,-0.78350169 -1.75,-1.75 0,-0.96649831 0.7835,-1.75 1.75,-1.75 0.9665,0 1.75,0.78350169 1.75,1.75 z"
       id="circle3354" />
    <path
       style="fill:none;stroke:#000000;stroke-width:1.24015749;stroke-linecap:butt;stroke-linejoin:miter"
       inkscape:connector-curvature="0"
       d="M 41.372824,401.53654 A 30.118109,30.118109 0 0 1 11.254715,371.41844"
       id="path3359" />
    <path
       style="fill:none;stroke:#000000;stroke-width:1.24015749;stroke-linecap:butt;stroke-linejoin:miter"
       inkscape:connector-curvature="0"
       id="path3361"
       d="m 11.254715,371.41844 0,-81.49607" />
    <path
       style="fill:none;stroke:#000000;stroke-width:1.24015749;stroke-linecap:butt;stroke-linejoin:miter"
       inkscape:connector-curvature="0"
       id="path3363"
       d="m 11.254715,289.92237 81.496061,0" />
    <path
       style="fill:none;stroke:#000000;stroke-width:1.24015749;stroke-linecap:butt;stroke-linejoin:miter"
       inkscape:connector-curvature="0"
       d="m 92.750776,289.92237 a 30.118109,30.118109 0 0 1 30.118114,30.11811"
       id="path3365" />
    <path
       style="fill:none;stroke:#000000;stroke-width:1.24015749;stroke-linecap:butt;stroke-linejoin:miter"
       inkscape:connector-curvature="0"
       id="path3367"
       d="m 41.372824,320.04048 81.496066,0" />
    <path
       style="fill:none;stroke:#000000;stroke-width:1.24015749;stroke-linecap:butt;stroke-linejoin:miter"
       inkscape:connector-curvature="0"
       id="path3369"
       d="m 41.372824,401.53654 0,-81.49606" />
    <path
       style="fill:none;stroke:#000000;stroke-width:1.24015749;stroke-linecap:butt;stroke-linejoin:miter"
       inkscape:connector-curvature="0"
       id="path3371"
       d="m 41.372824,507.83575 0,81.49607" />
    <path
       style="fill:none;stroke:#000000;stroke-width:1.24015749;stroke-linecap:butt;stroke-linejoin:miter"
       inkscape:connector-curvature="0"
       id="path3373"
       d="m 41.372824,589.33182 81.496066,0" />
    <path
       style="fill:none;stroke:#000000;stroke-width:1.24015749;stroke-linecap:butt;stroke-linejoin:miter"
       inkscape:connector-curvature="0"
       d="M 122.86889,589.33182 A 30.118109,30.118109 0 0 1 92.750776,619.44993"
       id="path3375" />
    <path
       style="fill:none;stroke:#000000;stroke-width:1.24015749;stroke-linecap:butt;stroke-linejoin:miter"
       inkscape:connector-curvature="0"
       id="10"
       d="m 11.254715,619.44993 81.496061,0" />
    <path
       style="fill:none;stroke:#000000;stroke-width:1.24015749;stroke-linecap:butt;stroke-linejoin:miter"
       inkscape:connector-curvature="0"
       id="path3378"
       d="m 11.254715,537.95386 0,81.49607" />
    <path
       style="fill:none;stroke:#000000;stroke-width:1.24015749;stroke-linecap:butt;stroke-linejoin:miter"
       inkscape:connector-curvature="0"
       d="M 11.254715,537.95386 A 30.118109,30.118109 0 0 1 41.372824,507.83575"
       id="path3380" />
    <path
       style="fill:none;stroke:#000000;stroke-width:1.24015749;stroke-linecap:butt;stroke-linejoin:miter"
       inkscape:connector-curvature="0"
       d="m 229.1681,320.04048 a 30.118109,30.118109 0 0 1 30.1181,-30.11811"
       id="path3382" />
    <path
       style="fill:none;stroke:#000000;stroke-width:1.24015749;stroke-linecap:butt;stroke-linejoin:miter"
       inkscape:connector-curvature="0"
       id="14"
       d="m 229.1681,320.04048 81.49606,0" />
    <path
       style="fill:none;stroke:#000000;stroke-width:1.24015749;stroke-linecap:butt;stroke-linejoin:miter"
       inkscape:connector-curvature="0"
       id="path3385"
       d="m 310.66416,320.04048 0,81.49606" />
    <path
       style="fill:none;stroke:#000000;stroke-width:1.24015749;stroke-linecap:butt;stroke-linejoin:miter"
       inkscape:connector-curvature="0"
       d="m 340.78227,371.41844 a 30.118109,30.118109 0 0 1 -30.11811,30.1181"
       id="path3387" />
    <path
       style="fill:none;stroke:#000000;stroke-width:1.24015749;stroke-linecap:butt;stroke-linejoin:miter"
       inkscape:connector-curvature="0"
       id="path3389"
       d="m 340.78227,289.92237 0,81.49607" />
    <path
       style="fill:none;stroke:#000000;stroke-width:1.24015749;stroke-linecap:butt;stroke-linejoin:miter"
       inkscape:connector-curvature="0"
       id="18"
       d="m 259.2862,289.92237 81.49607,0" />
    <path
       style="fill:none;stroke:#000000;stroke-width:1.24015749;stroke-linecap:butt;stroke-linejoin:miter"
       inkscape:connector-curvature="0"
       id="path3392"
       d="m 229.1681,589.33182 81.49606,0" />
    <path
       style="fill:none;stroke:#000000;stroke-width:1.24015749;stroke-linecap:butt;stroke-linejoin:miter"
       inkscape:connector-curvature="0"
       id="20"
       d="m 310.66416,589.33182 0,-81.49607" />
    <path
       style="fill:none;stroke:#000000;stroke-width:1.24015749;stroke-linecap:butt;stroke-linejoin:miter"
       inkscape:connector-curvature="0"
       d="m 310.66416,507.83575 a 30.118109,30.118109 0 0 1 30.11811,30.11811"
       id="path3395" />
    <path
       style="fill:none;stroke:#000000;stroke-width:1.24015749;stroke-linecap:butt;stroke-linejoin:miter"
       inkscape:connector-curvature="0"
       id="22"
       d="m 340.78227,537.95386 0,81.49607" />
    <path
       style="fill:none;stroke:#000000;stroke-width:1.24015749;stroke-linecap:butt;stroke-linejoin:miter"
       inkscape:connector-curvature="0"
       id="23"
       d="m 340.78227,619.44993 -81.49607,0" />
    <path
       style="fill:none;stroke:#000000;stroke-width:1.24015749;stroke-linecap:butt;stroke-linejoin:miter"
       inkscape:connector-curvature="0"
       d="M 259.2862,619.44993 A 30.118109,30.118109 0 0 1 229.1681,589.33182"
       id="path3399" />
  </g>
</svg>
