<?xml version="1.0" encoding="UTF-8" standalone="no"?>
<!-- Created with Inkscape (http://www.inkscape.org/) -->

<svg
   xmlns:dc="http://purl.org/dc/elements/1.1/"
   xmlns:cc="http://creativecommons.org/ns#"
   xmlns:rdf="http://www.w3.org/1999/02/22-rdf-syntax-ns#"
   xmlns:svg="http://www.w3.org/2000/svg"
   xmlns="http://www.w3.org/2000/svg"
   xmlns:sodipodi="http://sodipodi.sourceforge.net/DTD/sodipodi-0.dtd"
   xmlns:inkscape="http://www.inkscape.org/namespaces/inkscape"
   width="810"
   height="1170"
   id="svg2"
   version="1.1"
   inkscape:version="0.48.4 r9939"
   sodipodi:docname="all.svg">
  <defs
     id="defs4" />
  <sodipodi:namedview
     id="base"
     pagecolor="#ffffff"
     bordercolor="#666666"
     borderopacity="1.0"
     inkscape:pageopacity="0.0"
     inkscape:pageshadow="2"
     inkscape:zoom="0.47863248"
     inkscape:cx="405"
     inkscape:cy="585"
     inkscape:document-units="px"
     inkscape:current-layer="layer1"
     showgrid="false"
     units="in"
     inkscape:window-width="683"
     inkscape:window-height="751"
     inkscape:window-x="0"
     inkscape:window-y="0"
     inkscape:window-maximized="0" />
  <metadata
     id="metadata7">
    <rdf:RDF>
      <cc:Work
         rdf:about="">
        <dc:format>image/svg+xml</dc:format>
        <dc:type
           rdf:resource="http://purl.org/dc/dcmitype/StillImage" />
        <dc:title />
      </cc:Work>
    </rdf:RDF>
  </metadata>
  <g
     inkscape:label="Layer 1"
     inkscape:groupmode="layer"
     id="layer1"
     transform="translate(0,117.64025)">
    <path
       style="fill:none;stroke:#000000;stroke-width:1.24015749;stroke-linecap:butt;stroke-linejoin:miter"
       id="1"
       d="m 11.263046,236.76328 0,329.52755"
       inkscape:connector-curvature="0" />
    <path
       style="fill:none;stroke:#000000;stroke-width:1.24015749;stroke-linecap:butt;stroke-linejoin:miter"
       id="2"
       d="m 11.263046,566.29083 329.527554,0"
       inkscape:connector-curvature="0" />
    <path
       style="fill:none;stroke:#000000;stroke-width:1.24015749;stroke-linecap:butt;stroke-linejoin:miter"
       id="3"
       d="m 340.7906,566.29083 0,-329.52755"
       inkscape:connector-curvature="0" />
    <path
       style="fill:none;stroke:#000000;stroke-width:1.24015749;stroke-linecap:butt;stroke-linejoin:miter"
       id="4"
       d="m 340.7906,236.76328 -329.527554,0"
       inkscape:connector-curvature="0" />
    <path
       style="fill:none;stroke:#000000;stroke-width:1.24015749;stroke-linecap:butt;stroke-linejoin:miter"
       id="5"
       d="m 37.837848,263.33808 0,276.37794"
       inkscape:connector-curvature="0" />
    <path
       style="fill:none;stroke:#000000;stroke-width:1.24015749;stroke-linecap:butt;stroke-linejoin:miter"
       id="6"
       d="m 37.837848,539.71602 276.377942,0"
       inkscape:connector-curvature="0" />
    <path
       style="fill:none;stroke:#000000;stroke-width:1.24015749;stroke-linecap:butt;stroke-linejoin:miter"
       id="7"
       d="m 314.21579,539.71602 0,-276.37794"
       inkscape:connector-curvature="0" />
    <path
       style="fill:none;stroke:#000000;stroke-width:1.24015749;stroke-linecap:butt;stroke-linejoin:miter"
       id="8"
       d="m 314.21579,263.33808 -276.377942,0"
       inkscape:connector-curvature="0" />
    <path
       inkscape:connector-curvature="0"
       style="fill:none;stroke:#000000;stroke-width:1.24015749;stroke-linecap:butt;stroke-linejoin:miter"
       d="m 75.04257,244.73572 c 2.935372,0 5.314961,2.37958 5.314961,5.31496 0,2.93537 -2.379589,5.31496 -5.314961,5.31496 -2.935371,0 -5.31496,-2.37959 -5.31496,-5.31496 0,-2.93538 2.379589,-5.31496 5.31496,-5.31496 z"
       id="circle3194" />
    <path
       inkscape:connector-curvature="0"
       style="fill:none;stroke:#000000;stroke-width:1.24015749;stroke-linecap:butt;stroke-linejoin:miter"
       d="m 277.01107,244.73572 c 2.93537,0 5.31496,2.37958 5.31496,5.31496 0,2.93537 -2.37959,5.31496 -5.31496,5.31496 -2.93537,0 -5.31496,-2.37959 -5.31496,-5.31496 0,-2.93538 2.37959,-5.31496 5.31496,-5.31496 z"
       id="circle3196" />
    <path
       inkscape:connector-curvature="0"
       style="fill:none;stroke:#000000;stroke-width:1.24015749;stroke-linecap:butt;stroke-linejoin:miter"
       d="m 327.50319,295.22784 c 2.93538,0 5.31496,2.37959 5.31496,5.31496 0,2.93537 -2.37958,5.31496 -5.31496,5.31496 -2.93537,0 -5.31496,-2.37959 -5.31496,-5.31496 0,-2.93537 2.37959,-5.31496 5.31496,-5.31496 z"
       id="circle3198" />
    <path
       inkscape:connector-curvature="0"
       style="fill:none;stroke:#000000;stroke-width:1.24015749;stroke-linecap:butt;stroke-linejoin:miter"
       d="m 327.50319,497.19634 c 2.93538,0 5.31496,2.37959 5.31496,5.31496 0,2.93537 -2.37958,5.31496 -5.31496,5.31496 -2.93537,0 -5.31496,-2.37959 -5.31496,-5.31496 0,-2.93537 2.37959,-5.31496 5.31496,-5.31496 z"
       id="circle3200" />
    <path
       inkscape:connector-curvature="0"
       style="fill:none;stroke:#000000;stroke-width:1.24015749;stroke-linecap:butt;stroke-linejoin:miter"
       d="m 277.01107,547.68846 c 2.93537,0 5.31496,2.37959 5.31496,5.31496 0,2.93538 -2.37959,5.31496 -5.31496,5.31496 -2.93537,0 -5.31496,-2.37958 -5.31496,-5.31496 0,-2.93537 2.37959,-5.31496 5.31496,-5.31496 z"
       id="circle3202" />
    <path
       inkscape:connector-curvature="0"
       style="fill:none;stroke:#000000;stroke-width:1.24015749;stroke-linecap:butt;stroke-linejoin:miter"
       d="m 75.04257,547.68846 c 2.935372,0 5.314961,2.37959 5.314961,5.31496 0,2.93538 -2.379589,5.31496 -5.314961,5.31496 -2.935371,0 -5.31496,-2.37958 -5.31496,-5.31496 0,-2.93537 2.379589,-5.31496 5.31496,-5.31496 z"
       id="circle3204" />
    <path
       inkscape:connector-curvature="0"
       style="fill:none;stroke:#000000;stroke-width:1.24015749;stroke-linecap:butt;stroke-linejoin:miter"
       d="m 24.550446,497.19634 c 2.935371,0 5.31496,2.37959 5.31496,5.31496 0,2.93537 -2.379589,5.31496 -5.31496,5.31496 -2.935371,0 -5.314961,-2.37959 -5.314961,-5.31496 0,-2.93537 2.37959,-5.31496 5.314961,-5.31496 z"
       id="circle3206" />
    <path
       inkscape:connector-curvature="0"
       style="fill:none;stroke:#000000;stroke-width:1.24015749;stroke-linecap:butt;stroke-linejoin:miter"
       d="m 24.550446,295.22784 c 2.935371,0 5.31496,2.37959 5.31496,5.31496 0,2.93537 -2.379589,5.31496 -5.31496,5.31496 -2.935371,0 -5.314961,-2.37959 -5.314961,-5.31496 0,-2.93537 2.37959,-5.31496 5.314961,-5.31496 z"
       id="circle3208" />
    <path
       style="fill:none;stroke:#000000;stroke-width:1.24015749;stroke-linecap:butt;stroke-linejoin:miter"
       id="path3213"
       d="m 0.6331248,226.13336 0,350.78739"
       inkscape:connector-curvature="0" />
    <path
       style="fill:none;stroke:#000000;stroke-width:1.24015749;stroke-linecap:butt;stroke-linejoin:miter"
       id="path3215"
       d="m 0.6331248,576.92075 0,124.01574"
       inkscape:connector-curvature="0" />
    <path
       style="fill:none;stroke:#000000;stroke-width:1.24015749;stroke-linecap:butt;stroke-linejoin:miter"
       id="path3217"
       d="m 0.6331248,700.93649 0,340.15751"
       inkscape:connector-curvature="0" />
    <path
       style="fill:none;stroke:#000000;stroke-width:1.24015749;stroke-linecap:butt;stroke-linejoin:miter"
       d="M 11.263046,1051.7239 A 10.629921,10.629921 0 0 1 0.6331248,1041.094"
       id="path3219"
       inkscape:connector-curvature="0" />
    <path
       style="fill:none;stroke:#000000;stroke-width:1.24015749;stroke-linecap:butt;stroke-linejoin:miter"
       id="path3221"
       d="m 11.263046,1051.7239 329.527554,0"
       inkscape:connector-curvature="0" />
    <path
       style="fill:none;stroke:#000000;stroke-width:1.24015749;stroke-linecap:butt;stroke-linejoin:miter"
       d="m 351.42052,1041.094 a 10.629921,10.629921 0 0 1 -10.62992,10.6299"
       id="path3223"
       inkscape:connector-curvature="0" />
    <path
       style="fill:none;stroke:#000000;stroke-width:1.24015749;stroke-linecap:butt;stroke-linejoin:miter"
       id="path3225"
       d="m 351.42052,1041.094 0,-340.15751"
       inkscape:connector-curvature="0" />
    <path
       style="fill:none;stroke:#000000;stroke-width:1.24015749;stroke-linecap:butt;stroke-linejoin:miter"
       id="path3227"
       d="m 351.42052,700.93649 0,-124.01574"
       inkscape:connector-curvature="0" />
    <path
       style="fill:none;stroke:#000000;stroke-width:1.24015749;stroke-linecap:butt;stroke-linejoin:miter"
       id="9"
       d="m 351.42052,576.92075 0,-350.78739"
       inkscape:connector-curvature="0" />
    <path
       style="fill:none;stroke:#000000;stroke-width:1.24015749;stroke-linecap:butt;stroke-linejoin:miter"
       d="m 338.97926,199.17269 a 35.43307,35.43307 0 0 1 12.44126,26.96067"
       id="path3230"
       inkscape:connector-curvature="0" />
    <path
       style="fill:none;stroke:#000000;stroke-width:1.24015749;stroke-linecap:butt;stroke-linejoin:miter"
       id="11"
       d="M 196.71963,77.853044 338.97926,199.17269"
       inkscape:connector-curvature="0" />
    <path
       style="fill:none;stroke:#000000;stroke-width:1.24015749;stroke-linecap:butt;stroke-linejoin:miter"
       d="m 155.33401,77.853044 a 31.889763,31.889763 0 0 1 41.38562,0"
       id="path3233"
       inkscape:connector-curvature="0" />
    <path
       style="fill:none;stroke:#000000;stroke-width:1.24015749;stroke-linecap:butt;stroke-linejoin:miter"
       id="13"
       d="M 13.07403,199.17269 155.33401,77.853044"
       inkscape:connector-curvature="0" />
    <path
       style="fill:none;stroke:#000000;stroke-width:1.24015749;stroke-linecap:butt;stroke-linejoin:miter"
       d="M 0.6331248,226.13336 A 35.43307,35.43307 0 0 1 13.07403,199.17269"
       id="path3236"
       inkscape:connector-curvature="0" />
    <path
       style="fill:none;stroke:#000000;stroke-width:1.24015749;stroke-linecap:butt;stroke-linejoin:miter"
       id="15"
       d="m 340.7906,711.56641 0,329.52759"
       inkscape:connector-curvature="0" />
    <path
       style="fill:none;stroke:#000000;stroke-width:1.24015749;stroke-linecap:butt;stroke-linejoin:miter"
       id="16"
       d="m 340.7906,1041.094 -329.527554,0"
       inkscape:connector-curvature="0" />
    <path
       style="fill:none;stroke:#000000;stroke-width:1.24015749;stroke-linecap:butt;stroke-linejoin:miter"
       id="17"
       d="m 11.263046,1041.094 0,-53.14964"
       inkscape:connector-curvature="0" />
    <path
       style="fill:none;stroke:#000000;stroke-width:1.24015749;stroke-linecap:butt;stroke-linejoin:miter"
       d="M 11.263046,987.94436 A 566.92912,566.92912 0 0 1 287.64099,711.56641"
       id="path3241"
       inkscape:connector-curvature="0" />
    <path
       style="fill:none;stroke:#000000;stroke-width:1.24015749;stroke-linecap:butt;stroke-linejoin:miter"
       id="19"
       d="m 287.64099,711.56641 53.14961,0"
       inkscape:connector-curvature="0" />
    <path
       inkscape:connector-curvature="0"
       style="fill:none;stroke:#000000;stroke-width:1.24015749;stroke-linecap:butt;stroke-linejoin:miter"
       d="m 24.550446,1022.4916 c 2.935371,0 5.31496,2.3796 5.31496,5.315 0,2.9353 -2.379589,5.3149 -5.31496,5.3149 -2.935371,0 -5.314961,-2.3796 -5.314961,-5.3149 0,-2.9354 2.37959,-5.315 5.314961,-5.315 z"
       id="circle3244" />
    <path
       inkscape:connector-curvature="0"
       style="fill:none;stroke:#000000;stroke-width:1.24015749;stroke-linecap:butt;stroke-linejoin:miter"
       d="m 125.5347,1022.4916 c 2.93537,0 5.31496,2.3796 5.31496,5.315 0,2.9353 -2.37959,5.3149 -5.31496,5.3149 -2.93538,0 -5.31497,-2.3796 -5.31497,-5.3149 0,-2.9354 2.37959,-5.315 5.31497,-5.315 z"
       id="circle3246" />
    <path
       inkscape:connector-curvature="0"
       style="fill:none;stroke:#000000;stroke-width:1.24015749;stroke-linecap:butt;stroke-linejoin:miter"
       d="m 226.51894,1022.4916 c 2.93538,0 5.31497,2.3796 5.31497,5.315 0,2.9353 -2.37959,5.3149 -5.31497,5.3149 -2.93537,0 -5.31496,-2.3796 -5.31496,-5.3149 0,-2.9354 2.37959,-5.315 5.31496,-5.315 z"
       id="circle3248" />
    <path
       inkscape:connector-curvature="0"
       style="fill:none;stroke:#000000;stroke-width:1.24015749;stroke-linecap:butt;stroke-linejoin:miter"
       d="m 327.50319,1022.4916 c 2.93538,0 5.31496,2.3796 5.31496,5.315 0,2.9353 -2.37958,5.3149 -5.31496,5.3149 -2.93537,0 -5.31496,-2.3796 -5.31496,-5.3149 0,-2.9354 2.37959,-5.315 5.31496,-5.315 z"
       id="circle3250" />
    <path
       inkscape:connector-curvature="0"
       style="fill:none;stroke:#000000;stroke-width:1.24015749;stroke-linecap:butt;stroke-linejoin:miter"
       d="m 327.50319,921.50735 c 2.93538,0 5.31496,2.37958 5.31496,5.31496 0,2.93538 -2.37958,5.31496 -5.31496,5.31496 -2.93537,0 -5.31496,-2.37958 -5.31496,-5.31496 0,-2.93538 2.37959,-5.31496 5.31496,-5.31496 z"
       id="circle3252" />
    <path
       inkscape:connector-curvature="0"
       style="fill:none;stroke:#000000;stroke-width:1.24015749;stroke-linecap:butt;stroke-linejoin:miter"
       d="m 327.50319,820.5231 c 2.93538,0 5.31496,2.37958 5.31496,5.31496 0,2.93539 -2.37958,5.31496 -5.31496,5.31496 -2.93537,0 -5.31496,-2.37957 -5.31496,-5.31496 0,-2.93538 2.37959,-5.31496 5.31496,-5.31496 z"
       id="circle3254" />
    <path
       inkscape:connector-curvature="0"
       style="fill:none;stroke:#000000;stroke-width:1.24015749;stroke-linecap:butt;stroke-linejoin:miter"
       d="m 327.50319,719.53885 c 2.93538,0 5.31496,2.37959 5.31496,5.31496 0,2.93537 -2.37958,5.31496 -5.31496,5.31496 -2.93537,0 -5.31496,-2.37959 -5.31496,-5.31496 0,-2.93537 2.37959,-5.31496 5.31496,-5.31496 z"
       id="circle3256" />
    <path
       style="fill:none;stroke:#000000;stroke-width:1.24015749;stroke-linecap:butt;stroke-linejoin:miter"
       d="m 89.2158,660.18846 a 5.3149605,5.3149605 0 0 1 -2.65748,4.60276"
       id="path3258"
       inkscape:connector-curvature="0" />
    <path
       style="fill:none;stroke:#000000;stroke-width:1.24015749;stroke-linecap:butt;stroke-linejoin:miter"
       d="m 91.87328,664.79122 a 5.3149605,5.3149605 0 1 1 -5.31496,0"
       id="path3260"
       inkscape:connector-curvature="0" />
    <path
       style="fill:none;stroke:#000000;stroke-width:1.24015749;stroke-linecap:butt;stroke-linejoin:miter"
       d="M 91.87328,664.79122 A 5.3149605,5.3149605 0 0 1 89.2158,660.18846"
       id="path3262"
       inkscape:connector-curvature="0" />
    <path
       style="fill:none;stroke:#000000;stroke-width:1.24015749;stroke-linecap:butt;stroke-linejoin:miter"
       id="30"
       d="m 89.2158,660.18846 0,-42.51968"
       inkscape:connector-curvature="0" />
    <path
       style="fill:none;stroke:#000000;stroke-width:1.24015749;stroke-linecap:butt;stroke-linejoin:miter"
       d="m 86.55832,613.06602 a 5.3149605,5.3149605 0 0 1 2.65748,4.60276"
       id="path3265"
       inkscape:connector-curvature="0" />
    <path
       style="fill:none;stroke:#000000;stroke-width:1.24015749;stroke-linecap:butt;stroke-linejoin:miter"
       d="m 86.55832,613.06602 a 5.3149605,5.3149605 0 1 1 5.31496,0"
       id="path3267"
       inkscape:connector-curvature="0" />
    <path
       style="fill:none;stroke:#000000;stroke-width:1.24015749;stroke-linecap:butt;stroke-linejoin:miter"
       d="m 89.2158,617.66878 a 5.3149605,5.3149605 0 0 1 2.65748,-4.60276"
       id="path3269"
       inkscape:connector-curvature="0" />
    <path
       style="fill:none;stroke:#000000;stroke-width:1.24015749;stroke-linecap:butt;stroke-linejoin:miter"
       d="m 124.64887,617.66878 a 5.3149605,5.3149605 0 0 1 2.65748,-4.60276"
       id="path3271"
       inkscape:connector-curvature="0" />
    <path
       style="fill:none;stroke:#000000;stroke-width:1.24015749;stroke-linecap:butt;stroke-linejoin:miter"
       d="m 121.99139,613.06602 a 5.3149605,5.3149605 0 1 1 5.31496,0"
       id="path3273"
       inkscape:connector-curvature="0" />
    <path
       style="fill:none;stroke:#000000;stroke-width:1.24015749;stroke-linecap:butt;stroke-linejoin:miter"
       d="m 121.99139,613.06602 a 5.3149605,5.3149605 0 0 1 2.65748,4.60276"
       id="path3275"
       inkscape:connector-curvature="0" />
    <path
       style="fill:none;stroke:#000000;stroke-width:1.24015749;stroke-linecap:butt;stroke-linejoin:miter"
       id="37"
       d="m 124.64887,617.66878 0,42.51968"
       inkscape:connector-curvature="0" />
    <path
       style="fill:none;stroke:#000000;stroke-width:1.24015749;stroke-linecap:butt;stroke-linejoin:miter"
       d="m 124.64887,660.18846 a 5.3149605,5.3149605 0 0 1 -2.65748,4.60276"
       id="path3278"
       inkscape:connector-curvature="0" />
    <path
       style="fill:none;stroke:#000000;stroke-width:1.24015749;stroke-linecap:butt;stroke-linejoin:miter"
       d="m 127.30635,664.79122 a 5.3149605,5.3149605 0 1 1 -5.31496,0"
       id="path3280"
       inkscape:connector-curvature="0" />
    <path
       style="fill:none;stroke:#000000;stroke-width:1.24015749;stroke-linecap:butt;stroke-linejoin:miter"
       d="m 127.30635,664.79122 a 5.3149605,5.3149605 0 0 1 -2.65748,-4.60276"
       id="path3282"
       inkscape:connector-curvature="0" />
    <path
       inkscape:connector-curvature="0"
       style="fill:none;stroke:#000000;stroke-width:1.24015749;stroke-linecap:butt;stroke-linejoin:miter"
       d="m 176.02682,95.916821 c 3.4246,0 6.20079,2.776188 6.20079,6.200789 0,3.4246 -2.77619,6.20079 -6.20079,6.20079 -3.4246,0 -6.20079,-2.77619 -6.20079,-6.20079 0,-3.424601 2.77619,-6.200789 6.20079,-6.200789 z"
       id="circle3284" />
    <path
       inkscape:connector-curvature="0"
       style="fill:none;stroke:#000000;stroke-width:1.24015749;stroke-linecap:butt;stroke-linejoin:miter"
       d="m 176.02682,1010.09 c 3.4246,0 6.20079,2.7762 6.20079,6.2008 0,3.4246 -2.77619,6.2008 -6.20079,6.2008 -3.4246,0 -6.20079,-2.7762 -6.20079,-6.2008 0,-3.4246 2.77619,-6.2008 6.20079,-6.2008 z"
       id="circle3286" />
    <path
       style="fill:none;stroke:#000000;stroke-width:1.24015749;stroke-linecap:butt;stroke-linejoin:miter"
       d="M 37.837848,348.37745 A 26.574802,26.574802 0 0 1 11.263046,321.80264"
       id="path3291"
       inkscape:connector-curvature="0" />
    <path
       style="fill:none;stroke:#000000;stroke-width:1.24015749;stroke-linecap:butt;stroke-linejoin:miter"
       id="path3293"
       d="m 11.263046,321.80264 0,-85.03936"
       inkscape:connector-curvature="0" />
    <path
       style="fill:none;stroke:#000000;stroke-width:1.24015749;stroke-linecap:butt;stroke-linejoin:miter"
       id="path3295"
       d="m 11.263046,236.76328 85.039368,0"
       inkscape:connector-curvature="0" />
    <path
       style="fill:none;stroke:#000000;stroke-width:1.24015749;stroke-linecap:butt;stroke-linejoin:miter"
       d="m 96.302414,236.76328 a 26.574802,26.574802 0 0 1 26.574806,26.5748"
       id="path3297"
       inkscape:connector-curvature="0" />
    <path
       style="fill:none;stroke:#000000;stroke-width:1.24015749;stroke-linecap:butt;stroke-linejoin:miter"
       id="path3299"
       d="m 37.837848,263.33808 85.039372,0"
       inkscape:connector-curvature="0" />
    <path
       style="fill:none;stroke:#000000;stroke-width:1.24015749;stroke-linecap:butt;stroke-linejoin:miter"
       id="path3301"
       d="m 37.837848,348.37745 0,-85.03937"
       inkscape:connector-curvature="0" />
    <path
       style="fill:none;stroke:#000000;stroke-width:1.24015749;stroke-linecap:butt;stroke-linejoin:miter"
       id="path3303"
       d="m 37.837848,454.67666 0,85.03936"
       inkscape:connector-curvature="0" />
    <path
       style="fill:none;stroke:#000000;stroke-width:1.24015749;stroke-linecap:butt;stroke-linejoin:miter"
       id="path3305"
       d="m 37.837848,539.71602 85.039372,0"
       inkscape:connector-curvature="0" />
    <path
       style="fill:none;stroke:#000000;stroke-width:1.24015749;stroke-linecap:butt;stroke-linejoin:miter"
       d="M 122.87722,539.71602 A 26.574802,26.574802 0 0 1 96.302414,566.29083"
       id="path3307"
       inkscape:connector-curvature="0" />
    <path
       style="fill:none;stroke:#000000;stroke-width:1.24015749;stroke-linecap:butt;stroke-linejoin:miter"
       id="10"
       d="m 11.263046,566.29083 85.039368,0"
       inkscape:connector-curvature="0" />
    <path
       style="fill:none;stroke:#000000;stroke-width:1.24015749;stroke-linecap:butt;stroke-linejoin:miter"
       id="path3310"
       d="m 11.263046,481.25146 0,85.03937"
       inkscape:connector-curvature="0" />
    <path
       style="fill:none;stroke:#000000;stroke-width:1.24015749;stroke-linecap:butt;stroke-linejoin:miter"
       d="m 11.263046,481.25146 a 26.574802,26.574802 0 0 1 26.574802,-26.5748"
       id="path3312"
       inkscape:connector-curvature="0" />
    <path
       style="fill:none;stroke:#000000;stroke-width:1.24015749;stroke-linecap:butt;stroke-linejoin:miter"
       d="m 229.17643,263.33808 a 26.574802,26.574802 0 0 1 26.5748,-26.5748"
       id="path3314"
       inkscape:connector-curvature="0" />
    <path
       style="fill:none;stroke:#000000;stroke-width:1.24015749;stroke-linecap:butt;stroke-linejoin:miter"
       id="14"
       d="m 229.17643,263.33808 85.03936,0"
       inkscape:connector-curvature="0" />
    <path
       style="fill:none;stroke:#000000;stroke-width:1.24015749;stroke-linecap:butt;stroke-linejoin:miter"
       id="path3317"
       d="m 314.21579,263.33808 0,85.03937"
       inkscape:connector-curvature="0" />
    <path
       style="fill:none;stroke:#000000;stroke-width:1.24015749;stroke-linecap:butt;stroke-linejoin:miter"
       d="m 340.7906,321.80264 a 26.574802,26.574802 0 0 1 -26.57481,26.57481"
       id="path3319"
       inkscape:connector-curvature="0" />
    <path
       style="fill:none;stroke:#000000;stroke-width:1.24015749;stroke-linecap:butt;stroke-linejoin:miter"
       id="path3321"
       d="m 340.7906,236.76328 0,85.03936"
       inkscape:connector-curvature="0" />
    <path
       style="fill:none;stroke:#000000;stroke-width:1.24015749;stroke-linecap:butt;stroke-linejoin:miter"
       id="18"
       d="m 255.75123,236.76328 85.03937,0"
       inkscape:connector-curvature="0" />
    <path
       style="fill:none;stroke:#000000;stroke-width:1.24015749;stroke-linecap:butt;stroke-linejoin:miter"
       id="path3324"
       d="m 229.17643,539.71602 85.03936,0"
       inkscape:connector-curvature="0" />
    <path
       style="fill:none;stroke:#000000;stroke-width:1.24015749;stroke-linecap:butt;stroke-linejoin:miter"
       id="20"
       d="m 314.21579,539.71602 0,-85.03936"
       inkscape:connector-curvature="0" />
    <path
       style="fill:none;stroke:#000000;stroke-width:1.24015749;stroke-linecap:butt;stroke-linejoin:miter"
       d="m 314.21579,454.67666 a 26.574802,26.574802 0 0 1 26.57481,26.5748"
       id="path3327"
       inkscape:connector-curvature="0" />
    <path
       style="fill:none;stroke:#000000;stroke-width:1.24015749;stroke-linecap:butt;stroke-linejoin:miter"
       id="22"
       d="m 340.7906,481.25146 0,85.03937"
       inkscape:connector-curvature="0" />
    <path
       style="fill:none;stroke:#000000;stroke-width:1.24015749;stroke-linecap:butt;stroke-linejoin:miter"
       id="23"
       d="m 340.7906,566.29083 -85.03937,0"
       inkscape:connector-curvature="0" />
    <path
       style="fill:none;stroke:#000000;stroke-width:1.24015749;stroke-linecap:butt;stroke-linejoin:miter"
       d="m 255.75123,566.29083 a 26.574802,26.574802 0 0 1 -26.5748,-26.57481"
       id="path3331"
       inkscape:connector-curvature="0" />
  </g>
</svg>
