<?xml version="1.0" encoding="UTF-8" standalone="no"?>
<svg
   xmlns:dc="http://purl.org/dc/elements/1.1/"
   xmlns:cc="http://creativecommons.org/ns#"
   xmlns:rdf="http://www.w3.org/1999/02/22-rdf-syntax-ns#"
   xmlns:svg="http://www.w3.org/2000/svg"
   xmlns="http://www.w3.org/2000/svg"
   xmlns:sodipodi="http://sodipodi.sourceforge.net/DTD/sodipodi-0.dtd"
   xmlns:inkscape="http://www.inkscape.org/namespaces/inkscape"
   version="1.1"
   width="297"
   height="420"
   viewBox="0 0 297 420"
   id="svg2985"
   inkscape:version="0.48.4 r9939"
   sodipodi:docname="all.svg">
  <metadata
     id="metadata3108">
    <rdf:RDF>
      <cc:Work
         rdf:about="">
        <dc:format>image/svg+xml</dc:format>
        <dc:type
           rdf:resource="http://purl.org/dc/dcmitype/StillImage" />
      </cc:Work>
    </rdf:RDF>
  </metadata>
  <defs
     id="defs3106" />
  <sodipodi:namedview
     pagecolor="#ffffff"
     bordercolor="#666666"
     borderopacity="1"
     objecttolerance="10"
     gridtolerance="10"
     guidetolerance="10"
     inkscape:pageopacity="0"
     inkscape:pageshadow="2"
     inkscape:window-width="1366"
     inkscape:window-height="751"
     id="namedview3104"
     showgrid="false"
     inkscape:zoom="1.5051852"
     inkscape:cx="-5.8534113"
     inkscape:cy="97.887271"
     inkscape:window-x="0"
     inkscape:window-y="0"
     inkscape:window-maximized="0"
     inkscape:current-layer="svg2985" />
  <path
     style="fill:none;stroke:#000000;stroke-width:0.34999999;stroke-linecap:butt;stroke-linejoin:miter"
     id="1"
     d="m 3.5,189.5 0,93"
     inkscape:connector-curvature="0" />
  <path
     style="fill:none;stroke:#000000;stroke-width:0.34999999;stroke-linecap:butt;stroke-linejoin:miter"
     id="2"
     d="m 3.5,282.5 93,0"
     inkscape:connector-curvature="0" />
  <path
     style="fill:none;stroke:#000000;stroke-width:0.34999999;stroke-linecap:butt;stroke-linejoin:miter"
     id="3"
     d="m 96.5,282.5 0,-93"
     inkscape:connector-curvature="0" />
  <path
     style="fill:none;stroke:#000000;stroke-width:0.34999999;stroke-linecap:butt;stroke-linejoin:miter"
     id="4"
     d="m 96.5,189.5 -93,0"
     inkscape:connector-curvature="0" />
  <path
     style="fill:none;stroke:#000000;stroke-width:0.34999999;stroke-linecap:butt;stroke-linejoin:miter"
     id="5"
     d="m 11,197 0,78"
     inkscape:connector-curvature="0" />
  <path
     style="fill:none;stroke:#000000;stroke-width:0.34999999;stroke-linecap:butt;stroke-linejoin:miter"
     id="6"
     d="m 11,275 78,0"
     inkscape:connector-curvature="0" />
  <path
     style="fill:none;stroke:#000000;stroke-width:0.34999999;stroke-linecap:butt;stroke-linejoin:miter"
     id="7"
     d="m 89,275 0,-78"
     inkscape:connector-curvature="0" />
  <path
     style="fill:none;stroke:#000000;stroke-width:0.34999999;stroke-linecap:butt;stroke-linejoin:miter"
     id="8"
     d="m 89,197 -78,0"
     inkscape:connector-curvature="0" />
  <path
     style="fill:none;stroke:#000000;stroke-width:0.34999999;stroke-linecap:butt;stroke-linejoin:miter"
     d="m 21.5,194.75 c 0.828427,0 1.5,-0.67157 1.5,-1.5 0,-0.82843 -0.671573,-1.5 -1.5,-1.5 -0.828427,0 -1.5,0.67157 -1.5,1.5 0,0.82843 0.671573,1.5 1.5,1.5 z"
     id="circle2998"
     inkscape:connector-curvature="0" />
  <path
     style="fill:none;stroke:#000000;stroke-width:0.34999999;stroke-linecap:butt;stroke-linejoin:miter"
     d="m 78.5,194.75 c 0.828427,0 1.5,-0.67157 1.5,-1.5 0,-0.82843 -0.671573,-1.5 -1.5,-1.5 -0.828427,0 -1.5,0.67157 -1.5,1.5 0,0.82843 0.671573,1.5 1.5,1.5 z"
     id="circle3000"
     inkscape:connector-curvature="0" />
  <path
     style="fill:none;stroke:#000000;stroke-width:0.34999999;stroke-linecap:butt;stroke-linejoin:miter"
     d="m 92.75,209 c 0.828427,0 1.5,-0.67157 1.5,-1.5 0,-0.82843 -0.671573,-1.5 -1.5,-1.5 -0.828427,0 -1.5,0.67157 -1.5,1.5 0,0.82843 0.671573,1.5 1.5,1.5 z"
     id="circle3002"
     inkscape:connector-curvature="0" />
  <path
     style="fill:none;stroke:#000000;stroke-width:0.34999999;stroke-linecap:butt;stroke-linejoin:miter"
     d="m 92.75,266 c 0.828427,0 1.5,-0.67157 1.5,-1.5 0,-0.82843 -0.671573,-1.5 -1.5,-1.5 -0.828427,0 -1.5,0.67157 -1.5,1.5 0,0.82843 0.671573,1.5 1.5,1.5 z"
     id="circle3004"
     inkscape:connector-curvature="0" />
  <path
     style="fill:none;stroke:#000000;stroke-width:0.34999999;stroke-linecap:butt;stroke-linejoin:miter"
     d="m 78.5,280.25 c 0.828427,0 1.5,-0.67157 1.5,-1.5 0,-0.82843 -0.671573,-1.5 -1.5,-1.5 -0.828427,0 -1.5,0.67157 -1.5,1.5 0,0.82843 0.671573,1.5 1.5,1.5 z"
     id="circle3006"
     inkscape:connector-curvature="0" />
  <path
     style="fill:none;stroke:#000000;stroke-width:0.34999999;stroke-linecap:butt;stroke-linejoin:miter"
     d="m 21.5,280.25 c 0.828427,0 1.5,-0.67157 1.5,-1.5 0,-0.82843 -0.671573,-1.5 -1.5,-1.5 -0.828427,0 -1.5,0.67157 -1.5,1.5 0,0.82843 0.671573,1.5 1.5,1.5 z"
     id="circle3008"
     inkscape:connector-curvature="0" />
  <path
     style="fill:none;stroke:#000000;stroke-width:0.34999999;stroke-linecap:butt;stroke-linejoin:miter"
     d="m 7.25,266 c 0.828427,0 1.5,-0.67157 1.5,-1.5 0,-0.82843 -0.671573,-1.5 -1.5,-1.5 -0.828427,0 -1.5,0.67157 -1.5,1.5 0,0.82843 0.671573,1.5 1.5,1.5 z"
     id="circle3010"
     inkscape:connector-curvature="0" />
  <path
     style="fill:none;stroke:#000000;stroke-width:0.34999999;stroke-linecap:butt;stroke-linejoin:miter"
     d="m 7.25,209 c 0.828427,0 1.5,-0.67157 1.5,-1.5 0,-0.82843 -0.671573,-1.5 -1.5,-1.5 -0.828427,0 -1.5,0.67157 -1.5,1.5 0,0.82843 0.671573,1.5 1.5,1.5 z"
     id="circle3012"
     inkscape:connector-curvature="0" />
  <path
     style="fill:none;stroke:#000000;stroke-width:0.34999999;stroke-linecap:butt;stroke-linejoin:miter"
     d="m 50,194.75 c 0.828427,0 1.5,-0.67157 1.5,-1.5 0,-0.82843 -0.671573,-1.5 -1.5,-1.5 -0.828427,0 -1.5,0.67157 -1.5,1.5 0,0.82843 0.671573,1.5 1.5,1.5 z"
     id="circle3014"
     inkscape:connector-curvature="0" />
  <path
     style="fill:none;stroke:#000000;stroke-width:0.34999999;stroke-linecap:butt;stroke-linejoin:miter"
     d="m 92.75,237.5 c 0.828427,0 1.5,-0.67157 1.5,-1.5 0,-0.82843 -0.671573,-1.5 -1.5,-1.5 -0.828427,0 -1.5,0.67157 -1.5,1.5 0,0.82843 0.671573,1.5 1.5,1.5 z"
     id="circle3016"
     inkscape:connector-curvature="0" />
  <path
     style="fill:none;stroke:#000000;stroke-width:0.34999999;stroke-linecap:butt;stroke-linejoin:miter"
     d="m 50,280.25 c 0.828427,0 1.5,-0.67157 1.5,-1.5 0,-0.82843 -0.671573,-1.5 -1.5,-1.5 -0.828427,0 -1.5,0.67157 -1.5,1.5 0,0.82843 0.671573,1.5 1.5,1.5 z"
     id="circle3018"
     inkscape:connector-curvature="0" />
  <path
     style="fill:none;stroke:#000000;stroke-width:0.34999999;stroke-linecap:butt;stroke-linejoin:miter"
     d="m 7.25,237.5 c 0.828427,0 1.5,-0.67157 1.5,-1.5 0,-0.82843 -0.671573,-1.5 -1.5,-1.5 -0.828427,0 -1.5,0.67157 -1.5,1.5 0,0.82843 0.671573,1.5 1.5,1.5 z"
     id="circle3020"
     inkscape:connector-curvature="0" />
  <path
     style="fill:none;stroke:#000000;stroke-width:0.34999999;stroke-linecap:butt;stroke-linejoin:miter"
     id="path3025"
     d="m 0.5,186.5 0,99"
     inkscape:connector-curvature="0" />
  <path
     style="fill:none;stroke:#000000;stroke-width:0.34999999;stroke-linecap:butt;stroke-linejoin:miter"
     id="path3027"
     d="m 0.5,285.5 0,35"
     inkscape:connector-curvature="0" />
  <path
     style="fill:none;stroke:#000000;stroke-width:0.34999999;stroke-linecap:butt;stroke-linejoin:miter"
     id="path3029"
     d="m 0.5,320.5 0,96"
     inkscape:connector-curvature="0" />
  <path
     style="fill:none;stroke:#000000;stroke-width:0.34999999;stroke-linecap:butt;stroke-linejoin:miter"
     d="m 3.5,419.5 a 3,3 0 0 1 -3,-3"
     id="path3031"
     inkscape:connector-curvature="0" />
  <path
     style="fill:none;stroke:#000000;stroke-width:0.34999999;stroke-linecap:butt;stroke-linejoin:miter"
     id="path3033"
     d="m 3.5,419.5 93,0"
     inkscape:connector-curvature="0" />
  <path
     style="fill:none;stroke:#000000;stroke-width:0.34999999;stroke-linecap:butt;stroke-linejoin:miter"
     d="m 99.5,416.5 a 3,3 0 0 1 -3,3"
     id="path3035"
     inkscape:connector-curvature="0" />
  <path
     style="fill:none;stroke:#000000;stroke-width:0.34999999;stroke-linecap:butt;stroke-linejoin:miter"
     id="path3037"
     d="m 99.5,416.5 0,-96"
     inkscape:connector-curvature="0" />
  <path
     style="fill:none;stroke:#000000;stroke-width:0.34999999;stroke-linecap:butt;stroke-linejoin:miter"
     id="path3039"
     d="m 99.5,320.5 0,-35"
     inkscape:connector-curvature="0" />
  <path
     style="fill:none;stroke:#000000;stroke-width:0.34999999;stroke-linecap:butt;stroke-linejoin:miter"
     id="9"
     d="m 99.5,285.5 0,-99"
     inkscape:connector-curvature="0" />
  <path
     style="fill:none;stroke:#000000;stroke-width:0.34999999;stroke-linecap:butt;stroke-linejoin:miter"
     d="M 95.9888,178.8911 A 10,10 0 0 1 99.5,186.5"
     id="path3042"
     inkscape:connector-curvature="0" />
  <path
     style="fill:none;stroke:#000000;stroke-width:0.34999999;stroke-linecap:butt;stroke-linejoin:miter"
     id="11"
     d="M 55.83997,144.652 95.9888,178.8911"
     inkscape:connector-curvature="0" />
  <path
     style="fill:none;stroke:#000000;stroke-width:0.34999999;stroke-linecap:butt;stroke-linejoin:miter"
     d="m 44.16003,144.652 a 9,9 0 0 1 11.67994,0"
     id="path3045"
     inkscape:connector-curvature="0" />
  <path
     style="fill:none;stroke:#000000;stroke-width:0.34999999;stroke-linecap:butt;stroke-linejoin:miter"
     id="13"
     d="M 4.0111,178.8911 44.16003,144.652"
     inkscape:connector-curvature="0" />
  <path
     style="fill:none;stroke:#000000;stroke-width:0.34999999;stroke-linecap:butt;stroke-linejoin:miter"
     d="m 0.5,186.5 a 10,10 0 0 1 3.5111,-7.6089"
     id="path3048"
     inkscape:connector-curvature="0" />
  <path
     style="fill:none;stroke:#000000;stroke-width:0.34999999;stroke-linecap:butt;stroke-linejoin:miter"
     id="15"
     d="m 96.5,323.5 0,93"
     inkscape:connector-curvature="0" />
  <path
     style="fill:none;stroke:#000000;stroke-width:0.34999999;stroke-linecap:butt;stroke-linejoin:miter"
     id="16"
     d="m 96.5,416.5 -93,0"
     inkscape:connector-curvature="0" />
  <path
     style="fill:none;stroke:#000000;stroke-width:0.34999999;stroke-linecap:butt;stroke-linejoin:miter"
     id="17"
     d="m 3.5,416.5 0,-15"
     inkscape:connector-curvature="0" />
  <path
     style="fill:none;stroke:#000000;stroke-width:0.34999999;stroke-linecap:butt;stroke-linejoin:miter"
     d="m 3.5,401.5 a 160,160 0 0 1 78,-78"
     id="path3053"
     inkscape:connector-curvature="0" />
  <path
     style="fill:none;stroke:#000000;stroke-width:0.34999999;stroke-linecap:butt;stroke-linejoin:miter"
     id="19"
     d="m 81.5,323.5 15,0"
     inkscape:connector-curvature="0" />
  <path
     style="fill:none;stroke:#000000;stroke-width:0.34999999;stroke-linecap:butt;stroke-linejoin:miter"
     d="m 7.25,414.25 c 0.828427,0 1.5,-0.67157 1.5,-1.5 0,-0.82843 -0.671573,-1.5 -1.5,-1.5 -0.828427,0 -1.5,0.67157 -1.5,1.5 0,0.82843 0.671573,1.5 1.5,1.5 z"
     id="circle3056"
     inkscape:connector-curvature="0" />
  <path
     style="fill:none;stroke:#000000;stroke-width:0.34999999;stroke-linecap:butt;stroke-linejoin:miter"
     d="m 35.75,414.25 c 0.828427,0 1.5,-0.67157 1.5,-1.5 0,-0.82843 -0.671573,-1.5 -1.5,-1.5 -0.828427,0 -1.5,0.67157 -1.5,1.5 0,0.82843 0.671573,1.5 1.5,1.5 z"
     id="circle3058"
     inkscape:connector-curvature="0" />
  <path
     style="fill:none;stroke:#000000;stroke-width:0.34999999;stroke-linecap:butt;stroke-linejoin:miter"
     d="m 64.25,414.25 c 0.828427,0 1.5,-0.67157 1.5,-1.5 0,-0.82843 -0.671573,-1.5 -1.5,-1.5 -0.828427,0 -1.5,0.67157 -1.5,1.5 0,0.82843 0.671573,1.5 1.5,1.5 z"
     id="circle3060"
     inkscape:connector-curvature="0" />
  <path
     style="fill:none;stroke:#000000;stroke-width:0.34999999;stroke-linecap:butt;stroke-linejoin:miter"
     d="m 92.75,414.25 c 0.828427,0 1.5,-0.67157 1.5,-1.5 0,-0.82843 -0.671573,-1.5 -1.5,-1.5 -0.828427,0 -1.5,0.67157 -1.5,1.5 0,0.82843 0.671573,1.5 1.5,1.5 z"
     id="circle3062"
     inkscape:connector-curvature="0" />
  <path
     style="fill:none;stroke:#000000;stroke-width:0.34999999;stroke-linecap:butt;stroke-linejoin:miter"
     d="m 92.75,385.75 c 0.828427,0 1.5,-0.67157 1.5,-1.5 0,-0.82843 -0.671573,-1.5 -1.5,-1.5 -0.828427,0 -1.5,0.67157 -1.5,1.5 0,0.82843 0.671573,1.5 1.5,1.5 z"
     id="circle3064"
     inkscape:connector-curvature="0" />
  <path
     style="fill:none;stroke:#000000;stroke-width:0.34999999;stroke-linecap:butt;stroke-linejoin:miter"
     d="m 92.75,357.25 c 0.828427,0 1.5,-0.67157 1.5,-1.5 0,-0.82843 -0.671573,-1.5 -1.5,-1.5 -0.828427,0 -1.5,0.67157 -1.5,1.5 0,0.82843 0.671573,1.5 1.5,1.5 z"
     id="circle3066"
     inkscape:connector-curvature="0" />
  <path
     style="fill:none;stroke:#000000;stroke-width:0.34999999;stroke-linecap:butt;stroke-linejoin:miter"
     d="m 92.75,328.75 c 0.828427,0 1.5,-0.67157 1.5,-1.5 0,-0.82843 -0.671573,-1.5 -1.5,-1.5 -0.828427,0 -1.5,0.67157 -1.5,1.5 0,0.82843 0.671573,1.5 1.5,1.5 z"
     id="circle3068"
     inkscape:connector-curvature="0" />
  <path
     style="fill:none;stroke:#000000;stroke-width:0.34999999;stroke-linecap:butt;stroke-linejoin:miter"
     id="27"
     d="m 11,197 0,-7.5"
     inkscape:connector-curvature="0" />
  <path
     style="fill:none;stroke:#000000;stroke-width:0.34999999;stroke-linecap:butt;stroke-linejoin:miter"
     id="28"
     d="m 11,275 -7.5,0"
     inkscape:connector-curvature="0" />
  <path
     style="fill:none;stroke:#000000;stroke-width:0.34999999;stroke-linecap:butt;stroke-linejoin:miter"
     id="29"
     d="m 89,275 0,7.5"
     inkscape:connector-curvature="0" />
  <path
     style="fill:none;stroke:#000000;stroke-width:0.34999999;stroke-linecap:butt;stroke-linejoin:miter"
     id="30"
     d="m 89,197 7.5,0"
     inkscape:connector-curvature="0" />
  <path
     style="fill:none;stroke:#000000;stroke-width:0.34999999;stroke-linecap:butt;stroke-linejoin:miter"
     d="m 25.5,309 a 1.5,1.5 0 0 1 -0.75,1.299"
     id="path3074"
     inkscape:connector-curvature="0" />
  <path
     style="fill:none;stroke:#000000;stroke-width:0.34999999;stroke-linecap:butt;stroke-linejoin:miter"
     d="m 26.25,310.299 a 1.5,1.5 0 1 1 -1.5,0"
     id="path3076"
     inkscape:connector-curvature="0" />
  <path
     style="fill:none;stroke:#000000;stroke-width:0.34999999;stroke-linecap:butt;stroke-linejoin:miter"
     d="M 26.25,310.299 A 1.5,1.5 0 0 1 25.5,309"
     id="path3078"
     inkscape:connector-curvature="0" />
  <path
     style="fill:none;stroke:#000000;stroke-width:0.34999999;stroke-linecap:butt;stroke-linejoin:miter"
     id="34"
     d="m 25.5,309 0,-12"
     inkscape:connector-curvature="0" />
  <path
     style="fill:none;stroke:#000000;stroke-width:0.34999999;stroke-linecap:butt;stroke-linejoin:miter"
     d="M 24.75,295.701 A 1.5,1.5 0 0 1 25.5,297"
     id="path3081"
     inkscape:connector-curvature="0" />
  <path
     style="fill:none;stroke:#000000;stroke-width:0.34999999;stroke-linecap:butt;stroke-linejoin:miter"
     d="m 24.75,295.701 a 1.5,1.5 0 1 1 1.5,0"
     id="path3083"
     inkscape:connector-curvature="0" />
  <path
     style="fill:none;stroke:#000000;stroke-width:0.34999999;stroke-linecap:butt;stroke-linejoin:miter"
     d="m 25.5,297 a 1.5,1.5 0 0 1 0.75,-1.299"
     id="path3085"
     inkscape:connector-curvature="0" />
  <path
     style="fill:none;stroke:#000000;stroke-width:0.34999999;stroke-linecap:butt;stroke-linejoin:miter"
     d="m 35.5,297 a 1.5,1.5 0 0 1 0.75,-1.299"
     id="path3087"
     inkscape:connector-curvature="0" />
  <path
     style="fill:none;stroke:#000000;stroke-width:0.34999999;stroke-linecap:butt;stroke-linejoin:miter"
     d="m 34.75,295.701 a 1.5,1.5 0 1 1 1.5,0"
     id="path3089"
     inkscape:connector-curvature="0" />
  <path
     style="fill:none;stroke:#000000;stroke-width:0.34999999;stroke-linecap:butt;stroke-linejoin:miter"
     d="M 34.75,295.701 A 1.5,1.5 0 0 1 35.5,297"
     id="path3091"
     inkscape:connector-curvature="0" />
  <path
     style="fill:none;stroke:#000000;stroke-width:0.34999999;stroke-linecap:butt;stroke-linejoin:miter"
     id="41"
     d="m 35.5,297 0,12"
     inkscape:connector-curvature="0" />
  <path
     style="fill:none;stroke:#000000;stroke-width:0.34999999;stroke-linecap:butt;stroke-linejoin:miter"
     d="m 35.5,309 a 1.5,1.5 0 0 1 -0.75,1.299"
     id="path3094"
     inkscape:connector-curvature="0" />
  <path
     style="fill:none;stroke:#000000;stroke-width:0.34999999;stroke-linecap:butt;stroke-linejoin:miter"
     d="m 36.25,310.299 a 1.5,1.5 0 1 1 -1.5,0"
     id="path3096"
     inkscape:connector-curvature="0" />
  <path
     style="fill:none;stroke:#000000;stroke-width:0.34999999;stroke-linecap:butt;stroke-linejoin:miter"
     d="M 36.25,310.299 A 1.5,1.5 0 0 1 35.5,309"
     id="path3098"
     inkscape:connector-curvature="0" />
  <path
     style="fill:none;stroke:#000000;stroke-width:0.34999999;stroke-linecap:butt;stroke-linejoin:miter"
     d="m 50,153.25 c 0.966498,0 1.75,-0.7835 1.75,-1.75 0,-0.9665 -0.783502,-1.75 -1.75,-1.75 -0.966498,0 -1.75,0.7835 -1.75,1.75 0,0.9665 0.783502,1.75 1.75,1.75 z"
     id="circle3100"
     inkscape:connector-curvature="0" />
  <path
     style="fill:none;stroke:#000000;stroke-width:0.34999999;stroke-linecap:butt;stroke-linejoin:miter"
     d="m 50,411.25 c 0.966498,0 1.75,-0.7835 1.75,-1.75 0,-0.9665 -0.783502,-1.75 -1.75,-1.75 -0.966498,0 -1.75,0.7835 -1.75,1.75 0,0.9665 0.783502,1.75 1.75,1.75 z"
     id="circle3102"
     inkscape:connector-curvature="0" />
</svg>
