<?xml version="1.0" encoding="UTF-8" standalone="no"?>
<!-- Created with Inkscape (http://www.inkscape.org/) -->

<svg
   xmlns:dc="http://purl.org/dc/elements/1.1/"
   xmlns:cc="http://creativecommons.org/ns#"
   xmlns:rdf="http://www.w3.org/1999/02/22-rdf-syntax-ns#"
   xmlns:svg="http://www.w3.org/2000/svg"
   xmlns="http://www.w3.org/2000/svg"
   xmlns:sodipodi="http://sodipodi.sourceforge.net/DTD/sodipodi-0.dtd"
   xmlns:inkscape="http://www.inkscape.org/namespaces/inkscape"
   width="810"
   height="1170"
   id="svg2"
   version="1.1"
   inkscape:version="0.48.4 r9939"
   sodipodi:docname="New document 1">
  <defs
     id="defs4" />
  <sodipodi:namedview
     id="base"
     pagecolor="#ffffff"
     bordercolor="#666666"
     borderopacity="1.0"
     inkscape:pageopacity="0.0"
     inkscape:pageshadow="2"
     inkscape:zoom="0.5"
     inkscape:cx="363.12734"
     inkscape:cy="572.47368"
     inkscape:document-units="px"
     inkscape:current-layer="layer1"
     showgrid="false"
     units="in"
     inkscape:window-width="1280"
     inkscape:window-height="1024"
     inkscape:window-x="1280"
     inkscape:window-y="0"
     inkscape:window-maximized="0" />
  <metadata
     id="metadata7">
    <rdf:RDF>
      <cc:Work
         rdf:about="">
        <dc:format>image/svg+xml</dc:format>
        <dc:type
           rdf:resource="http://purl.org/dc/dcmitype/StillImage" />
        <dc:title></dc:title>
      </cc:Work>
    </rdf:RDF>
  </metadata>
  <g
     inkscape:label="Layer 1"
     inkscape:groupmode="layer"
     id="layer1"
     transform="translate(0,117.64025)">
    <path
       style="fill:none;stroke:#000000;stroke-width:1.24015749;stroke-linecap:butt;stroke-linejoin:miter"
       id="1"
       d="m 11.267469,236.75658 0,329.52755"
       inkscape:connector-curvature="0" />
    <path
       style="fill:none;stroke:#000000;stroke-width:1.24015749;stroke-linecap:butt;stroke-linejoin:miter"
       id="2"
       d="m 11.267469,566.28413 329.527551,0"
       inkscape:connector-curvature="0" />
    <path
       style="fill:none;stroke:#000000;stroke-width:1.24015749;stroke-linecap:butt;stroke-linejoin:miter"
       id="3"
       d="m 340.79502,566.28413 0,-329.52755"
       inkscape:connector-curvature="0" />
    <path
       style="fill:none;stroke:#000000;stroke-width:1.24015749;stroke-linecap:butt;stroke-linejoin:miter"
       id="4"
       d="m 340.79502,236.75658 -329.527551,0"
       inkscape:connector-curvature="0" />
    <path
       style="fill:none;stroke:#000000;stroke-width:1.24015749;stroke-linecap:butt;stroke-linejoin:miter"
       id="5"
       d="m 37.842271,263.33138 0,276.37794"
       inkscape:connector-curvature="0" />
    <path
       style="fill:none;stroke:#000000;stroke-width:1.24015749;stroke-linecap:butt;stroke-linejoin:miter"
       id="6"
       d="m 37.842271,539.70932 276.377939,0"
       inkscape:connector-curvature="0" />
    <path
       style="fill:none;stroke:#000000;stroke-width:1.24015749;stroke-linecap:butt;stroke-linejoin:miter"
       id="7"
       d="m 314.22021,539.70932 0,-276.37794"
       inkscape:connector-curvature="0" />
    <path
       style="fill:none;stroke:#000000;stroke-width:1.24015749;stroke-linecap:butt;stroke-linejoin:miter"
       id="8"
       d="m 314.22021,263.33138 -276.377939,0"
       inkscape:connector-curvature="0" />
    <path
       inkscape:connector-curvature="0"
       style="fill:none;stroke:#000000;stroke-width:1.24015749;stroke-linecap:butt;stroke-linejoin:miter"
       d="m 75.046993,244.72902 c 2.935372,0 5.314961,2.37958 5.314961,5.31496 0,2.93537 -2.379589,5.31496 -5.314961,5.31496 -2.935371,0 -5.31496,-2.37959 -5.31496,-5.31496 0,-2.93538 2.379589,-5.31496 5.31496,-5.31496 z"
       id="circle3194" />
    <path
       inkscape:connector-curvature="0"
       style="fill:none;stroke:#000000;stroke-width:1.24015749;stroke-linecap:butt;stroke-linejoin:miter"
       d="m 277.01549,244.72902 c 2.93537,0 5.31496,2.37958 5.31496,5.31496 0,2.93537 -2.37959,5.31496 -5.31496,5.31496 -2.93537,0 -5.31496,-2.37959 -5.31496,-5.31496 0,-2.93538 2.37959,-5.31496 5.31496,-5.31496 z"
       id="circle3196" />
    <path
       inkscape:connector-curvature="0"
       style="fill:none;stroke:#000000;stroke-width:1.24015749;stroke-linecap:butt;stroke-linejoin:miter"
       d="m 327.50761,295.22114 c 2.93538,0 5.31496,2.37959 5.31496,5.31496 0,2.93537 -2.37958,5.31496 -5.31496,5.31496 -2.93537,0 -5.31496,-2.37959 -5.31496,-5.31496 0,-2.93537 2.37959,-5.31496 5.31496,-5.31496 z"
       id="circle3198" />
    <path
       inkscape:connector-curvature="0"
       style="fill:none;stroke:#000000;stroke-width:1.24015749;stroke-linecap:butt;stroke-linejoin:miter"
       d="m 327.50761,497.18964 c 2.93538,0 5.31496,2.37959 5.31496,5.31496 0,2.93537 -2.37958,5.31496 -5.31496,5.31496 -2.93537,0 -5.31496,-2.37959 -5.31496,-5.31496 0,-2.93537 2.37959,-5.31496 5.31496,-5.31496 z"
       id="circle3200" />
    <path
       inkscape:connector-curvature="0"
       style="fill:none;stroke:#000000;stroke-width:1.24015749;stroke-linecap:butt;stroke-linejoin:miter"
       d="m 277.01549,547.68176 c 2.93537,0 5.31496,2.37959 5.31496,5.31496 0,2.93538 -2.37959,5.31496 -5.31496,5.31496 -2.93537,0 -5.31496,-2.37958 -5.31496,-5.31496 0,-2.93537 2.37959,-5.31496 5.31496,-5.31496 z"
       id="circle3202" />
    <path
       inkscape:connector-curvature="0"
       style="fill:none;stroke:#000000;stroke-width:1.24015749;stroke-linecap:butt;stroke-linejoin:miter"
       d="m 75.046993,547.68176 c 2.935372,0 5.314961,2.37959 5.314961,5.31496 0,2.93538 -2.379589,5.31496 -5.314961,5.31496 -2.935371,0 -5.31496,-2.37958 -5.31496,-5.31496 0,-2.93537 2.379589,-5.31496 5.31496,-5.31496 z"
       id="circle3204" />
    <path
       inkscape:connector-curvature="0"
       style="fill:none;stroke:#000000;stroke-width:1.24015749;stroke-linecap:butt;stroke-linejoin:miter"
       d="m 24.554869,497.18964 c 2.935371,0 5.31496,2.37959 5.31496,5.31496 0,2.93537 -2.379589,5.31496 -5.31496,5.31496 -2.935371,0 -5.314961,-2.37959 -5.314961,-5.31496 0,-2.93537 2.37959,-5.31496 5.314961,-5.31496 z"
       id="circle3206" />
    <path
       inkscape:connector-curvature="0"
       style="fill:none;stroke:#000000;stroke-width:1.24015749;stroke-linecap:butt;stroke-linejoin:miter"
       d="m 24.554869,295.22114 c 2.935371,0 5.31496,2.37959 5.31496,5.31496 0,2.93537 -2.379589,5.31496 -5.31496,5.31496 -2.935371,0 -5.314961,-2.37959 -5.314961,-5.31496 0,-2.93537 2.37959,-5.31496 5.314961,-5.31496 z"
       id="circle3208" />
    <path
       style="fill:none;stroke:#000000;stroke-width:1.24015749;stroke-linecap:butt;stroke-linejoin:miter"
       id="path3213"
       d="m 0.63754765,226.12666 0,350.78739"
       inkscape:connector-curvature="0" />
    <path
       style="fill:none;stroke:#000000;stroke-width:1.24015749;stroke-linecap:butt;stroke-linejoin:miter"
       id="path3215"
       d="m 0.63754765,576.91405 0,124.01574"
       inkscape:connector-curvature="0" />
    <path
       style="fill:none;stroke:#000000;stroke-width:1.24015749;stroke-linecap:butt;stroke-linejoin:miter"
       id="path3217"
       d="m 0.63754765,700.92979 0,340.15751"
       inkscape:connector-curvature="0" />
    <path
       style="fill:none;stroke:#000000;stroke-width:1.24015749;stroke-linecap:butt;stroke-linejoin:miter"
       d="M 11.267469,1051.7172 A 10.629921,10.629921 0 0 1 0.63754765,1041.0873"
       id="path3219"
       inkscape:connector-curvature="0" />
    <path
       style="fill:none;stroke:#000000;stroke-width:1.24015749;stroke-linecap:butt;stroke-linejoin:miter"
       id="path3221"
       d="m 11.267469,1051.7172 329.527551,0"
       inkscape:connector-curvature="0" />
    <path
       style="fill:none;stroke:#000000;stroke-width:1.24015749;stroke-linecap:butt;stroke-linejoin:miter"
       d="m 351.42494,1041.0873 a 10.629921,10.629921 0 0 1 -10.62992,10.6299"
       id="path3223"
       inkscape:connector-curvature="0" />
    <path
       style="fill:none;stroke:#000000;stroke-width:1.24015749;stroke-linecap:butt;stroke-linejoin:miter"
       id="path3225"
       d="m 351.42494,1041.0873 0,-340.15751"
       inkscape:connector-curvature="0" />
    <path
       style="fill:none;stroke:#000000;stroke-width:1.24015749;stroke-linecap:butt;stroke-linejoin:miter"
       id="path3227"
       d="m 351.42494,700.92979 0,-124.01574"
       inkscape:connector-curvature="0" />
    <path
       style="fill:none;stroke:#000000;stroke-width:1.24015749;stroke-linecap:butt;stroke-linejoin:miter"
       id="9"
       d="m 351.42494,576.91405 0,-350.78739"
       inkscape:connector-curvature="0" />
    <path
       style="fill:none;stroke:#000000;stroke-width:1.24015749;stroke-linecap:butt;stroke-linejoin:miter"
       d="m 338.98368,199.16599 a 35.43307,35.43307 0 0 1 12.44126,26.96067"
       id="path3230"
       inkscape:connector-curvature="0" />
    <path
       style="fill:none;stroke:#000000;stroke-width:1.24015749;stroke-linecap:butt;stroke-linejoin:miter"
       id="11"
       d="M 196.72405,77.846343 338.98368,199.16599"
       inkscape:connector-curvature="0" />
    <path
       style="fill:none;stroke:#000000;stroke-width:1.24015749;stroke-linecap:butt;stroke-linejoin:miter"
       d="m 155.33843,77.846343 a 31.889763,31.889763 0 0 1 41.38562,0"
       id="path3233"
       inkscape:connector-curvature="0" />
    <path
       style="fill:none;stroke:#000000;stroke-width:1.24015749;stroke-linecap:butt;stroke-linejoin:miter"
       id="13"
       d="M 13.078453,199.16599 155.33843,77.846343"
       inkscape:connector-curvature="0" />
    <path
       style="fill:none;stroke:#000000;stroke-width:1.24015749;stroke-linecap:butt;stroke-linejoin:miter"
       d="M 0.63754765,226.12666 A 35.43307,35.43307 0 0 1 13.078453,199.16599"
       id="path3236"
       inkscape:connector-curvature="0" />
    <path
       style="fill:none;stroke:#000000;stroke-width:1.24015749;stroke-linecap:butt;stroke-linejoin:miter"
       id="15"
       d="m 340.79502,711.55971 0,329.52759"
       inkscape:connector-curvature="0" />
    <path
       style="fill:none;stroke:#000000;stroke-width:1.24015749;stroke-linecap:butt;stroke-linejoin:miter"
       id="16"
       d="m 340.79502,1041.0873 -329.527551,0"
       inkscape:connector-curvature="0" />
    <path
       style="fill:none;stroke:#000000;stroke-width:1.24015749;stroke-linecap:butt;stroke-linejoin:miter"
       id="17"
       d="m 11.267469,1041.0873 0,-53.14964"
       inkscape:connector-curvature="0" />
    <path
       style="fill:none;stroke:#000000;stroke-width:1.24015749;stroke-linecap:butt;stroke-linejoin:miter"
       d="M 11.267469,987.93766 A 566.92912,566.92912 0 0 1 287.64541,711.55971"
       id="path3241"
       inkscape:connector-curvature="0" />
    <path
       style="fill:none;stroke:#000000;stroke-width:1.24015749;stroke-linecap:butt;stroke-linejoin:miter"
       id="19"
       d="m 287.64541,711.55971 53.14961,0"
       inkscape:connector-curvature="0" />
    <path
       inkscape:connector-curvature="0"
       style="fill:none;stroke:#000000;stroke-width:1.24015749;stroke-linecap:butt;stroke-linejoin:miter"
       d="m 24.554869,1022.4849 c 2.935371,0 5.31496,2.3796 5.31496,5.315 0,2.9353 -2.379589,5.3149 -5.31496,5.3149 -2.935371,0 -5.314961,-2.3796 -5.314961,-5.3149 0,-2.9354 2.37959,-5.315 5.314961,-5.315 z"
       id="circle3244" />
    <path
       inkscape:connector-curvature="0"
       style="fill:none;stroke:#000000;stroke-width:1.24015749;stroke-linecap:butt;stroke-linejoin:miter"
       d="m 125.53912,1022.4849 c 2.93537,0 5.31496,2.3796 5.31496,5.315 0,2.9353 -2.37959,5.3149 -5.31496,5.3149 -2.93538,0 -5.31497,-2.3796 -5.31497,-5.3149 0,-2.9354 2.37959,-5.315 5.31497,-5.315 z"
       id="circle3246" />
    <path
       inkscape:connector-curvature="0"
       style="fill:none;stroke:#000000;stroke-width:1.24015749;stroke-linecap:butt;stroke-linejoin:miter"
       d="m 226.52336,1022.4849 c 2.93538,0 5.31497,2.3796 5.31497,5.315 0,2.9353 -2.37959,5.3149 -5.31497,5.3149 -2.93537,0 -5.31496,-2.3796 -5.31496,-5.3149 0,-2.9354 2.37959,-5.315 5.31496,-5.315 z"
       id="circle3248" />
    <path
       inkscape:connector-curvature="0"
       style="fill:none;stroke:#000000;stroke-width:1.24015749;stroke-linecap:butt;stroke-linejoin:miter"
       d="m 327.50761,1022.4849 c 2.93538,0 5.31496,2.3796 5.31496,5.315 0,2.9353 -2.37958,5.3149 -5.31496,5.3149 -2.93537,0 -5.31496,-2.3796 -5.31496,-5.3149 0,-2.9354 2.37959,-5.315 5.31496,-5.315 z"
       id="circle3250" />
    <path
       inkscape:connector-curvature="0"
       style="fill:none;stroke:#000000;stroke-width:1.24015749;stroke-linecap:butt;stroke-linejoin:miter"
       d="m 327.50761,921.50065 c 2.93538,0 5.31496,2.37958 5.31496,5.31496 0,2.93538 -2.37958,5.31496 -5.31496,5.31496 -2.93537,0 -5.31496,-2.37958 -5.31496,-5.31496 0,-2.93538 2.37959,-5.31496 5.31496,-5.31496 z"
       id="circle3252" />
    <path
       inkscape:connector-curvature="0"
       style="fill:none;stroke:#000000;stroke-width:1.24015749;stroke-linecap:butt;stroke-linejoin:miter"
       d="m 327.50761,820.5164 c 2.93538,0 5.31496,2.37958 5.31496,5.31496 0,2.93539 -2.37958,5.31496 -5.31496,5.31496 -2.93537,0 -5.31496,-2.37957 -5.31496,-5.31496 0,-2.93538 2.37959,-5.31496 5.31496,-5.31496 z"
       id="circle3254" />
    <path
       inkscape:connector-curvature="0"
       style="fill:none;stroke:#000000;stroke-width:1.24015749;stroke-linecap:butt;stroke-linejoin:miter"
       d="m 327.50761,719.53215 c 2.93538,0 5.31496,2.37959 5.31496,5.31496 0,2.93537 -2.37958,5.31496 -5.31496,5.31496 -2.93537,0 -5.31496,-2.37959 -5.31496,-5.31496 0,-2.93537 2.37959,-5.31496 5.31496,-5.31496 z"
       id="circle3256" />
    <path
       style="fill:none;stroke:#000000;stroke-width:1.24015749;stroke-linecap:butt;stroke-linejoin:miter"
       d="m 89.220223,660.18176 a 5.3149605,5.3149605 0 0 1 -2.65748,4.60276"
       id="path3258"
       inkscape:connector-curvature="0" />
    <path
       style="fill:none;stroke:#000000;stroke-width:1.24015749;stroke-linecap:butt;stroke-linejoin:miter"
       d="m 91.877703,664.78452 a 5.3149605,5.3149605 0 1 1 -5.31496,0"
       id="path3260"
       inkscape:connector-curvature="0" />
    <path
       style="fill:none;stroke:#000000;stroke-width:1.24015749;stroke-linecap:butt;stroke-linejoin:miter"
       d="m 91.877703,664.78452 a 5.3149605,5.3149605 0 0 1 -2.65748,-4.60276"
       id="path3262"
       inkscape:connector-curvature="0" />
    <path
       style="fill:none;stroke:#000000;stroke-width:1.24015749;stroke-linecap:butt;stroke-linejoin:miter"
       id="30"
       d="m 89.220223,660.18176 0,-42.51968"
       inkscape:connector-curvature="0" />
    <path
       style="fill:none;stroke:#000000;stroke-width:1.24015749;stroke-linecap:butt;stroke-linejoin:miter"
       d="m 86.562743,613.05932 a 5.3149605,5.3149605 0 0 1 2.65748,4.60276"
       id="path3265"
       inkscape:connector-curvature="0" />
    <path
       style="fill:none;stroke:#000000;stroke-width:1.24015749;stroke-linecap:butt;stroke-linejoin:miter"
       d="m 86.562743,613.05932 a 5.3149605,5.3149605 0 1 1 5.31496,0"
       id="path3267"
       inkscape:connector-curvature="0" />
    <path
       style="fill:none;stroke:#000000;stroke-width:1.24015749;stroke-linecap:butt;stroke-linejoin:miter"
       d="m 89.220223,617.66208 a 5.3149605,5.3149605 0 0 1 2.65748,-4.60276"
       id="path3269"
       inkscape:connector-curvature="0" />
    <path
       style="fill:none;stroke:#000000;stroke-width:1.24015749;stroke-linecap:butt;stroke-linejoin:miter"
       d="m 124.65329,617.66208 a 5.3149605,5.3149605 0 0 1 2.65748,-4.60276"
       id="path3271"
       inkscape:connector-curvature="0" />
    <path
       style="fill:none;stroke:#000000;stroke-width:1.24015749;stroke-linecap:butt;stroke-linejoin:miter"
       d="m 121.99581,613.05932 a 5.3149605,5.3149605 0 1 1 5.31496,0"
       id="path3273"
       inkscape:connector-curvature="0" />
    <path
       style="fill:none;stroke:#000000;stroke-width:1.24015749;stroke-linecap:butt;stroke-linejoin:miter"
       d="m 121.99581,613.05932 a 5.3149605,5.3149605 0 0 1 2.65748,4.60276"
       id="path3275"
       inkscape:connector-curvature="0" />
    <path
       style="fill:none;stroke:#000000;stroke-width:1.24015749;stroke-linecap:butt;stroke-linejoin:miter"
       id="37"
       d="m 124.65329,617.66208 0,42.51968"
       inkscape:connector-curvature="0" />
    <path
       style="fill:none;stroke:#000000;stroke-width:1.24015749;stroke-linecap:butt;stroke-linejoin:miter"
       d="m 124.65329,660.18176 a 5.3149605,5.3149605 0 0 1 -2.65748,4.60276"
       id="path3278"
       inkscape:connector-curvature="0" />
    <path
       style="fill:none;stroke:#000000;stroke-width:1.24015749;stroke-linecap:butt;stroke-linejoin:miter"
       d="m 127.31077,664.78452 a 5.3149605,5.3149605 0 1 1 -5.31496,0"
       id="path3280"
       inkscape:connector-curvature="0" />
    <path
       style="fill:none;stroke:#000000;stroke-width:1.24015749;stroke-linecap:butt;stroke-linejoin:miter"
       d="m 127.31077,664.78452 a 5.3149605,5.3149605 0 0 1 -2.65748,-4.60276"
       id="path3282"
       inkscape:connector-curvature="0" />
    <path
       inkscape:connector-curvature="0"
       style="fill:none;stroke:#000000;stroke-width:1.24015749;stroke-linecap:butt;stroke-linejoin:miter"
       d="m 176.03124,95.91012 c 3.4246,0 6.20079,2.776188 6.20079,6.20079 0,3.4246 -2.77619,6.20079 -6.20079,6.20079 -3.4246,0 -6.20079,-2.77619 -6.20079,-6.20079 0,-3.424602 2.77619,-6.20079 6.20079,-6.20079 z"
       id="circle3284" />
    <path
       inkscape:connector-curvature="0"
       style="fill:none;stroke:#000000;stroke-width:1.24015749;stroke-linecap:butt;stroke-linejoin:miter"
       d="m 176.03124,1010.0833 c 3.4246,0 6.20079,2.7762 6.20079,6.2008 0,3.4246 -2.77619,6.2008 -6.20079,6.2008 -3.4246,0 -6.20079,-2.7762 -6.20079,-6.2008 0,-3.4246 2.77619,-6.2008 6.20079,-6.2008 z"
       id="circle3286" />
    <path
       style="fill:none;stroke:#000000;stroke-width:1.24015749;stroke-linecap:butt;stroke-linejoin:miter"
       d="M 37.842271,348.37075 A 26.574802,26.574802 0 0 1 11.267469,321.79594"
       id="path3291"
       inkscape:connector-curvature="0" />
    <path
       style="fill:none;stroke:#000000;stroke-width:1.24015749;stroke-linecap:butt;stroke-linejoin:miter"
       id="path3293"
       d="m 11.267469,321.79594 0,-85.03936"
       inkscape:connector-curvature="0" />
    <path
       style="fill:none;stroke:#000000;stroke-width:1.24015749;stroke-linecap:butt;stroke-linejoin:miter"
       id="path3295"
       d="m 11.267469,236.75658 85.039368,0"
       inkscape:connector-curvature="0" />
    <path
       style="fill:none;stroke:#000000;stroke-width:1.24015749;stroke-linecap:butt;stroke-linejoin:miter"
       d="m 96.306837,236.75658 a 26.574802,26.574802 0 0 1 26.574803,26.5748"
       id="path3297"
       inkscape:connector-curvature="0" />
    <path
       style="fill:none;stroke:#000000;stroke-width:1.24015749;stroke-linecap:butt;stroke-linejoin:miter"
       id="path3299"
       d="m 37.842271,263.33138 85.039369,0"
       inkscape:connector-curvature="0" />
    <path
       style="fill:none;stroke:#000000;stroke-width:1.24015749;stroke-linecap:butt;stroke-linejoin:miter"
       id="path3301"
       d="m 37.842271,348.37075 0,-85.03937"
       inkscape:connector-curvature="0" />
    <path
       style="fill:none;stroke:#000000;stroke-width:1.24015749;stroke-linecap:butt;stroke-linejoin:miter"
       id="path3303"
       d="m 37.842271,454.66996 0,85.03936"
       inkscape:connector-curvature="0" />
    <path
       style="fill:none;stroke:#000000;stroke-width:1.24015749;stroke-linecap:butt;stroke-linejoin:miter"
       id="path3305"
       d="m 37.842271,539.70932 85.039369,0"
       inkscape:connector-curvature="0" />
    <path
       style="fill:none;stroke:#000000;stroke-width:1.24015749;stroke-linecap:butt;stroke-linejoin:miter"
       d="M 122.88164,539.70932 A 26.574802,26.574802 0 0 1 96.306837,566.28413"
       id="path3307"
       inkscape:connector-curvature="0" />
    <path
       style="fill:none;stroke:#000000;stroke-width:1.24015749;stroke-linecap:butt;stroke-linejoin:miter"
       id="10"
       d="m 11.267469,566.28413 85.039368,0"
       inkscape:connector-curvature="0" />
    <path
       style="fill:none;stroke:#000000;stroke-width:1.24015749;stroke-linecap:butt;stroke-linejoin:miter"
       id="path3310"
       d="m 11.267469,481.24476 0,85.03937"
       inkscape:connector-curvature="0" />
    <path
       style="fill:none;stroke:#000000;stroke-width:1.24015749;stroke-linecap:butt;stroke-linejoin:miter"
       d="m 11.267469,481.24476 a 26.574802,26.574802 0 0 1 26.574802,-26.5748"
       id="path3312"
       inkscape:connector-curvature="0" />
    <path
       style="fill:none;stroke:#000000;stroke-width:1.24015749;stroke-linecap:butt;stroke-linejoin:miter"
       d="m 229.18085,263.33138 a 26.574802,26.574802 0 0 1 26.5748,-26.5748"
       id="path3314"
       inkscape:connector-curvature="0" />
    <path
       style="fill:none;stroke:#000000;stroke-width:1.24015749;stroke-linecap:butt;stroke-linejoin:miter"
       id="14"
       d="m 229.18085,263.33138 85.03936,0"
       inkscape:connector-curvature="0" />
    <path
       style="fill:none;stroke:#000000;stroke-width:1.24015749;stroke-linecap:butt;stroke-linejoin:miter"
       id="path3317"
       d="m 314.22021,263.33138 0,85.03937"
       inkscape:connector-curvature="0" />
    <path
       style="fill:none;stroke:#000000;stroke-width:1.24015749;stroke-linecap:butt;stroke-linejoin:miter"
       d="m 340.79502,321.79594 a 26.574802,26.574802 0 0 1 -26.57481,26.57481"
       id="path3319"
       inkscape:connector-curvature="0" />
    <path
       style="fill:none;stroke:#000000;stroke-width:1.24015749;stroke-linecap:butt;stroke-linejoin:miter"
       id="path3321"
       d="m 340.79502,236.75658 0,85.03936"
       inkscape:connector-curvature="0" />
    <path
       style="fill:none;stroke:#000000;stroke-width:1.24015749;stroke-linecap:butt;stroke-linejoin:miter"
       id="18"
       d="m 255.75565,236.75658 85.03937,0"
       inkscape:connector-curvature="0" />
    <path
       style="fill:none;stroke:#000000;stroke-width:1.24015749;stroke-linecap:butt;stroke-linejoin:miter"
       id="path3324"
       d="m 229.18085,539.70932 85.03936,0"
       inkscape:connector-curvature="0" />
    <path
       style="fill:none;stroke:#000000;stroke-width:1.24015749;stroke-linecap:butt;stroke-linejoin:miter"
       id="20"
       d="m 314.22021,539.70932 0,-85.03936"
       inkscape:connector-curvature="0" />
    <path
       style="fill:none;stroke:#000000;stroke-width:1.24015749;stroke-linecap:butt;stroke-linejoin:miter"
       d="m 314.22021,454.66996 a 26.574802,26.574802 0 0 1 26.57481,26.5748"
       id="path3327"
       inkscape:connector-curvature="0" />
    <path
       style="fill:none;stroke:#000000;stroke-width:1.24015749;stroke-linecap:butt;stroke-linejoin:miter"
       id="22"
       d="m 340.79502,481.24476 0,85.03937"
       inkscape:connector-curvature="0" />
    <path
       style="fill:none;stroke:#000000;stroke-width:1.24015749;stroke-linecap:butt;stroke-linejoin:miter"
       id="23"
       d="m 340.79502,566.28413 -85.03937,0"
       inkscape:connector-curvature="0" />
    <path
       style="fill:none;stroke:#000000;stroke-width:1.24015749;stroke-linecap:butt;stroke-linejoin:miter"
       d="m 255.75565,566.28413 a 26.574802,26.574802 0 0 1 -26.5748,-26.57481"
       id="path3331"
       inkscape:connector-curvature="0" />
  </g>
</svg>
