<?xml version="1.0" encoding="UTF-8"?>
<!DOCTYPE svg PUBLIC "-//W3C//DTD SVG 1.1//EN" "http://www.w3.org/Graphics/SVG/1.1/DTD/svg11.dtd">
 
<svg xmlns="http://www.w3.org/2000/svg"
     xmlns:xlink="http://www.w3.org/1999/xlink" 
	 xmlns:ev="http://www.w3.org/2001/xml-events"
     version="1.1" 
	 baseProfile="full"
     width="297" 
	 height="420" 
	 viewBox="0 0 297 420">
	 
<g id="View"
   transform="rotate(90,50,246) translate(50,246) scale(1,1)"
  >
<g   stroke="rgb(0, 0, 0)"
   stroke-width="0.35"
   stroke-linecap="butt"
   stroke-linejoin="miter"
   fill="none"
  >
<path id= "1" d=" M -46 -46 L 46 -46 " />
<path id= "2" d=" M 46 -46 L 46 46 " />
<path id= "3" d=" M 46 46 L -46 46 " />
<path id= "4" d=" M -46 46 L -46 -46 " />
<path id= "5" d=" M -39 -39 L 39 -39 " />
<path id= "6" d=" M 39 -39 L 39 39 " />
<path id= "7" d=" M 39 39 L -39 39 " />
<path id= "8" d=" M -39 39 L -39 -39 " />
<circle cx ="-42.5" cy ="-28.3333" r ="1.5" /><circle cx ="-42.5" cy ="28.3333" r ="1.5" /><circle cx ="-28.3333" cy ="42.5" r ="1.5" /><circle cx ="28.3333" cy ="42.5" r ="1.5" /><circle cx ="42.5" cy ="28.3333" r ="1.5" /><circle cx ="42.5" cy ="-28.3333" r ="1.5" /><circle cx ="28.3333" cy ="-42.5" r ="1.5" /><circle cx ="-28.3333" cy ="-42.5" r ="1.5" /><circle cx ="-42.5" cy ="0" r ="1.5" /><circle cx ="0" cy ="42.5" r ="1.5" /><circle cx ="42.5" cy ="0" r ="1.5" /><circle cx ="0" cy ="-42.5" r ="1.5" /></g>
</g>



<g id="View001"
   transform="rotate(90,50,246) translate(50,246) scale(1,1)"
  >
<g   stroke="rgb(0, 0, 0)"
   stroke-width="0.35"
   stroke-linecap="butt"
   stroke-linejoin="miter"
   fill="none"
  >
<path id= "1" d=" M -49 -49 L 49 -49 " />
<path id= "2" d=" M 49 -49 L 75 -49 " />
<path id= "3" d=" M 75 -49 L 170 -49 " />
<path d="M173 -46 A3 3 0 0 0 170 -49" /><path id= "5" d=" M 173 -46 L 173 46 " />
<path d="M170 49 A3 3 0 0 0 173 46" /><path id= "7" d=" M 170 49 L 75 49 " />
<path id= "8" d=" M 75 49 L 49 49 " />
<path id= "9" d=" M 49 49 L -49 49 " />
<path d="M-57.1457 44.8006 A10 10 0 0 0 -49 49" /><path id= "11" d=" M -85.3311 5.22059 L -57.1457 44.8006 " />
<path d="M-85.3311 -5.22059 A9 9 0 0 0 -85.3311 5.22059" /><path id= "13" d=" M -57.1457 -44.8007 L -85.3311 -5.22059 " />
<path d="M-49 -49 A10 10 0 0 0 -57.1457 -44.8007" /><path id= "15" d=" M 78 46 L 170 46 " />
<path id= "16" d=" M 170 46 L 170 -46 " />
<path id= "17" d=" M 170 -46 L 155 -46 " />
<path d="M155 -46 A160 160 0 0 0 78 31" /><path id= "19" d=" M 78 31 L 78 46 " />
<circle cx ="166.5" cy ="-42.5" r ="1.5" /><circle cx ="166.5" cy ="-14.1667" r ="1.5" /><circle cx ="166.5" cy ="14.1667" r ="1.5" /><circle cx ="166.5" cy ="42.5" r ="1.5" /><circle cx ="138.167" cy ="42.5" r ="1.5" /><circle cx ="109.833" cy ="42.5" r ="1.5" /><circle cx ="81.5" cy ="42.5" r ="1.5" /><path id= "27" d=" M -39 -39 L -46 -39 " />
<path id= "28" d=" M 39 -39 L 39 -46 " />
<path id= "29" d=" M 39 39 L 46 39 " />
<path id= "30" d=" M -39 39 L -39 46 " />
<path d="M68 -24 A1.5 1.5 0 0 0 69.299 -24.75" /><path d="M69.299 -23.25 A1.5 1.5 0 1 0 69.299 -24.75" /><path d="M69.299 -23.25 A1.5 1.5 0 0 0 68 -24" /><path id= "34" d=" M 68 -24 L 56 -24 " />
<path d="M54.701 -24.75 A1.5 1.5 0 0 0 56 -24" /><path d="M54.701 -24.75 A1.5 1.5 0 1 0 54.701 -23.25" /><path d="M56 -24 A1.5 1.5 0 0 0 54.701 -23.25" /><path d="M56 -14 A1.5 1.5 0 0 0 54.701 -13.25" /><path d="M54.701 -14.75 A1.5 1.5 0 1 0 54.701 -13.25" /><path d="M54.701 -14.75 A1.5 1.5 0 0 0 56 -14" /><path id= "41" d=" M 56 -14 L 68 -14 " />
<path d="M68 -14 A1.5 1.5 0 0 0 69.299 -14.75" /><path d="M69.299 -13.25 A1.5 1.5 0 1 0 69.299 -14.75" /><path d="M69.299 -13.25 A1.5 1.5 0 0 0 68 -14" /><circle cx ="-78" cy ="7.10543e-15" r ="1.5" /><circle cx ="163" cy ="7.10543e-15" r ="1.5" /></g>
</g>



	 
</svg>

