<?xml version="1.0" encoding="UTF-8" standalone="no"?>
<!-- Created with Inkscape (http://www.inkscape.org/) -->

<svg
   xmlns:dc="http://purl.org/dc/elements/1.1/"
   xmlns:cc="http://creativecommons.org/ns#"
   xmlns:rdf="http://www.w3.org/1999/02/22-rdf-syntax-ns#"
   xmlns:svg="http://www.w3.org/2000/svg"
   xmlns="http://www.w3.org/2000/svg"
   xmlns:sodipodi="http://sodipodi.sourceforge.net/DTD/sodipodi-0.dtd"
   xmlns:inkscape="http://www.inkscape.org/namespaces/inkscape"
   width="810"
   height="1170"
   id="svg3233"
   version="1.1"
   inkscape:version="0.48.4 r9939"
   sodipodi:docname="backing.svg">
  <defs
     id="defs3235" />
  <sodipodi:namedview
     id="base"
     pagecolor="#ffffff"
     bordercolor="#666666"
     borderopacity="1.0"
     inkscape:pageopacity="0.0"
     inkscape:pageshadow="2"
     inkscape:zoom="0.47863248"
     inkscape:cx="405"
     inkscape:cy="585"
     inkscape:document-units="px"
     inkscape:current-layer="layer4"
     showgrid="false"
     units="in"
     inkscape:window-width="1366"
     inkscape:window-height="751"
     inkscape:window-x="0"
     inkscape:window-y="0"
     inkscape:window-maximized="0" />
  <metadata
     id="metadata3238">
    <rdf:RDF>
      <cc:Work
         rdf:about="">
        <dc:format>image/svg+xml</dc:format>
        <dc:type
           rdf:resource="http://purl.org/dc/dcmitype/StillImage" />
        <dc:title />
      </cc:Work>
    </rdf:RDF>
  </metadata>
  <g
     inkscape:groupmode="layer"
     id="layer4"
     inkscape:label="Border"
     style="display:inline">
    <path
       id="4"
       transform="translate(0,117.64027)"
       style="fill:none;stroke:#000000;stroke-width:1.24015749;stroke-linecap:butt;stroke-linejoin:miter"
       d="m 0.65933054,1051.7123 329.52754946,0 0,-329.52753 -329.52754946,0 0,329.52753"
       inkscape:connector-curvature="0"
       sodipodi:nodetypes="ccccc" />
  </g>
  <g
     inkscape:label="Holes"
     inkscape:groupmode="layer"
     id="layer1"
     transform="translate(0,117.64027)"
     style="display:inline">
    <path
       style="fill:none;stroke:#000000;stroke-width:1.24015749;stroke-linecap:butt;stroke-linejoin:miter"
       d="m 64.438857,1043.7399 c 2.935371,0 5.314961,-2.3796 5.314961,-5.315 0,-2.9353 -2.37959,-5.3149 -5.314961,-5.3149 -2.935371,0 -5.31496,2.3796 -5.31496,5.3149 0,2.9354 2.379589,5.315 5.31496,5.315 z"
       id="circle3008"
       inkscape:connector-curvature="0" />
    <path
       style="fill:none;stroke:#000000;stroke-width:1.24015749;stroke-linecap:butt;stroke-linejoin:miter"
       d="m 165.42311,1043.7399 c 2.93537,0 5.31496,-2.3796 5.31496,-5.315 0,-2.9353 -2.37959,-5.3149 -5.31496,-5.3149 -2.93538,0 -5.31496,2.3796 -5.31496,5.3149 0,2.9354 2.37958,5.315 5.31496,5.315 z"
       id="circle3018"
       inkscape:connector-curvature="0" />
    <path
       style="fill:none;stroke:#000000;stroke-width:1.24015749;stroke-linecap:butt;stroke-linejoin:miter"
       d="m 266.40736,1043.7399 c 2.93537,0 5.31496,-2.3796 5.31496,-5.315 0,-2.9353 -2.37959,-5.3149 -5.31496,-5.3149 -2.93538,0 -5.31497,2.3796 -5.31497,5.3149 0,2.9354 2.37959,5.315 5.31497,5.315 z"
       id="circle3006"
       inkscape:connector-curvature="0" />
    <path
       style="fill:none;stroke:#000000;stroke-width:1.24015749;stroke-linecap:butt;stroke-linejoin:miter"
       d="m 316.89948,993.24775 c 2.93537,0 5.31496,-2.37958 5.31496,-5.31496 0,-2.93538 -2.37959,-5.31496 -5.31496,-5.31496 -2.93537,0 -5.31496,2.37958 -5.31496,5.31496 0,2.93538 2.37959,5.31496 5.31496,5.31496 z"
       id="circle3004"
       inkscape:connector-curvature="0" />
    <path
       style="fill:none;stroke:#000000;stroke-width:1.24015749;stroke-linecap:butt;stroke-linejoin:miter"
       d="m 316.89948,892.2635 c 2.93537,0 5.31496,-2.37958 5.31496,-5.31496 0,-2.93538 -2.37959,-5.31496 -5.31496,-5.31496 -2.93537,0 -5.31496,2.37958 -5.31496,5.31496 0,2.93538 2.37959,5.31496 5.31496,5.31496 z"
       id="circle3016"
       inkscape:connector-curvature="0" />
    <path
       style="fill:none;stroke:#000000;stroke-width:1.24015749;stroke-linecap:butt;stroke-linejoin:miter"
       d="m 316.89948,791.27925 c 2.93537,0 5.31496,-2.37958 5.31496,-5.31496 0,-2.93538 -2.37959,-5.31496 -5.31496,-5.31496 -2.93537,0 -5.31496,2.37958 -5.31496,5.31496 0,2.93538 2.37959,5.31496 5.31496,5.31496 z"
       id="circle3002"
       inkscape:connector-curvature="0" />
    <path
       style="fill:none;stroke:#000000;stroke-width:1.24015749;stroke-linecap:butt;stroke-linejoin:miter"
       d="m 266.40736,740.78713 c 2.93537,0 5.31496,-2.37958 5.31496,-5.31496 0,-2.93538 -2.37959,-5.31496 -5.31496,-5.31496 -2.93538,0 -5.31497,2.37958 -5.31497,5.31496 0,2.93538 2.37959,5.31496 5.31497,5.31496 z"
       id="circle3000"
       inkscape:connector-curvature="0" />
    <path
       style="fill:none;stroke:#000000;stroke-width:1.24015749;stroke-linecap:butt;stroke-linejoin:miter"
       d="m 165.42311,740.78713 c 2.93537,0 5.31496,-2.37958 5.31496,-5.31496 0,-2.93538 -2.37959,-5.31496 -5.31496,-5.31496 -2.93538,0 -5.31496,2.37958 -5.31496,5.31496 0,2.93538 2.37958,5.31496 5.31496,5.31496 z"
       id="circle3014"
       inkscape:connector-curvature="0" />
    <path
       style="fill:none;stroke:#000000;stroke-width:1.24015749;stroke-linecap:butt;stroke-linejoin:miter"
       d="m 64.438857,740.78713 c 2.935371,0 5.314961,-2.37958 5.314961,-5.31496 0,-2.93538 -2.37959,-5.31496 -5.314961,-5.31496 -2.935371,0 -5.31496,2.37958 -5.31496,5.31496 0,2.93538 2.379589,5.31496 5.31496,5.31496 z"
       id="circle2998"
       inkscape:connector-curvature="0" />
    <path
       style="fill:none;stroke:#000000;stroke-width:1.24015749;stroke-linecap:butt;stroke-linejoin:miter"
       d="m 13.946732,791.27925 c 2.935372,0 5.314961,-2.37958 5.314961,-5.31496 0,-2.93538 -2.379589,-5.31496 -5.314961,-5.31496 -2.935371,0 -5.31496,2.37958 -5.31496,5.31496 0,2.93538 2.379589,5.31496 5.31496,5.31496 z"
       id="circle3012"
       inkscape:connector-curvature="0" />
    <path
       style="fill:none;stroke:#000000;stroke-width:1.24015749;stroke-linecap:butt;stroke-linejoin:miter"
       d="m 13.946732,892.2635 c 2.935372,0 5.314961,-2.37958 5.314961,-5.31496 0,-2.93538 -2.379589,-5.31496 -5.314961,-5.31496 -2.935371,0 -5.31496,2.37958 -5.31496,5.31496 0,2.93538 2.379589,5.31496 5.31496,5.31496 z"
       id="circle3020"
       inkscape:connector-curvature="0" />
    <path
       style="fill:none;stroke:#000000;stroke-width:1.24015749;stroke-linecap:butt;stroke-linejoin:miter"
       d="m 13.946732,993.24775 c 2.935372,0 5.314961,-2.37958 5.314961,-5.31496 0,-2.93538 -2.379589,-5.31496 -5.314961,-5.31496 -2.935371,0 -5.31496,2.37958 -5.31496,5.31496 0,2.93538 2.379589,5.31496 5.31496,5.31496 z"
       id="circle3010"
       inkscape:connector-curvature="0" />
  </g>
</svg>
