<?xml version="1.0" encoding="UTF-8" standalone="no"?>
<!-- Created with Inkscape (http://www.inkscape.org/) -->

<svg
   xmlns:dc="http://purl.org/dc/elements/1.1/"
   xmlns:cc="http://creativecommons.org/ns#"
   xmlns:rdf="http://www.w3.org/1999/02/22-rdf-syntax-ns#"
   xmlns:svg="http://www.w3.org/2000/svg"
   xmlns="http://www.w3.org/2000/svg"
   xmlns:sodipodi="http://sodipodi.sourceforge.net/DTD/sodipodi-0.dtd"
   xmlns:inkscape="http://www.inkscape.org/namespaces/inkscape"
   width="810"
   height="1170"
   id="svg2"
   version="1.1"
   inkscape:version="0.48.4 r9939"
   sodipodi:docname="backing.svg">
  <sodipodi:namedview
     id="base"
     pagecolor="#ffffff"
     bordercolor="#666666"
     borderopacity="1.0"
     inkscape:pageopacity="0.0"
     inkscape:pageshadow="2"
     inkscape:zoom="0.47863248"
     inkscape:cx="405"
     inkscape:cy="585"
     inkscape:document-units="px"
     inkscape:current-layer="svg2"
     showgrid="false"
     units="in"
     inkscape:window-width="1366"
     inkscape:window-height="751"
     inkscape:window-x="0"
     inkscape:window-y="0"
     inkscape:window-maximized="0" />
  <defs
     id="defs4" />
  <metadata
     id="metadata7">
    <rdf:RDF>
      <cc:Work
         rdf:about="">
        <dc:format>image/svg+xml</dc:format>
        <dc:type
           rdf:resource="http://purl.org/dc/dcmitype/StillImage" />
        <dc:title />
      </cc:Work>
    </rdf:RDF>
  </metadata>
  <g
     style="display:inline"
     inkscape:label="Border"
     id="layer4"
     inkscape:groupmode="layer">
    <path
       sodipodi:nodetypes="ccccc"
       inkscape:connector-curvature="0"
       d="m 0.63319855,722.20452 0,329.52758 329.52755145,0 0,-329.52758 -329.52755145,0"
       style="fill:none;stroke:#000000;stroke-width:1.24015749;stroke-linecap:butt;stroke-linejoin:miter"
       transform="translate(0,117.64025)"
       id="4" />
  </g>
  <g
     style="display:inline"
     transform="translate(0,117.64025)"
     id="layer1"
     inkscape:groupmode="layer"
     inkscape:label="Holes">
    <path
       inkscape:connector-curvature="0"
       id="circle3274"
       d="m 15.692253,980.57078 c -3.424599,0 -6.2007874,2.77619 -6.2007874,6.20079 0,3.4246 2.7761884,6.20079 6.2007874,6.20079 3.424599,0 6.200788,-2.77619 6.200788,-6.20079 0,-3.4246 -2.776189,-6.20079 -6.200788,-6.20079 z"
       style="fill:none;stroke:#000000;stroke-width:1.24015749;stroke-linecap:butt;stroke-linejoin:miter" />
    <path
       inkscape:connector-curvature="0"
       id="circle3272"
       d="m 65.593709,1030.4722 c -3.424603,0 -6.200788,2.7762 -6.200788,6.2008 0,3.4246 2.776185,6.2008 6.200788,6.2008 3.424599,0 6.200787,-2.7762 6.200787,-6.2008 0,-3.4246 -2.776188,-6.2008 -6.200787,-6.2008 z"
       style="fill:none;stroke:#000000;stroke-width:1.24015749;stroke-linecap:butt;stroke-linejoin:miter" />
    <path
       inkscape:connector-curvature="0"
       id="circle3270"
       d="m 265.20024,1030.4722 c -3.4246,0 -6.20079,2.7762 -6.20079,6.2008 0,3.4246 2.77619,6.2008 6.20079,6.2008 3.4246,0 6.20079,-2.7762 6.20079,-6.2008 0,-3.4246 -2.77619,-6.2008 -6.20079,-6.2008 z"
       style="fill:none;stroke:#000000;stroke-width:1.24015749;stroke-linecap:butt;stroke-linejoin:miter" />
    <path
       inkscape:connector-curvature="0"
       id="circle3268"
       d="m 315.10169,980.57078 c -3.4246,0 -6.20078,2.77619 -6.20078,6.20079 0,3.4246 2.77618,6.20079 6.20078,6.20079 3.4246,0 6.20079,-2.77619 6.20079,-6.20079 0,-3.4246 -2.77619,-6.20079 -6.20079,-6.20079 z"
       style="fill:none;stroke:#000000;stroke-width:1.24015749;stroke-linecap:butt;stroke-linejoin:miter" />
    <path
       inkscape:connector-curvature="0"
       id="circle3266"
       d="m 315.10169,780.96425 c -3.4246,0 -6.20078,2.77618 -6.20078,6.20079 0,3.4246 2.77618,6.20078 6.20078,6.20078 3.4246,0 6.20079,-2.77618 6.20079,-6.20078 0,-3.42461 -2.77619,-6.20079 -6.20079,-6.20079 z"
       style="fill:none;stroke:#000000;stroke-width:1.24015749;stroke-linecap:butt;stroke-linejoin:miter" />
    <path
       inkscape:connector-curvature="0"
       id="circle3264"
       d="m 265.20024,731.06279 c -3.4246,0 -6.20079,2.77619 -6.20079,6.20079 0,3.4246 2.77619,6.20079 6.20079,6.20079 3.4246,0 6.20079,-2.77619 6.20079,-6.20079 0,-3.4246 -2.77619,-6.20079 -6.20079,-6.20079 z"
       style="fill:none;stroke:#000000;stroke-width:1.24015749;stroke-linecap:butt;stroke-linejoin:miter" />
    <path
       inkscape:connector-curvature="0"
       id="circle3262"
       d="m 65.593709,731.06279 c -3.424603,0 -6.200788,2.77619 -6.200788,6.20079 0,3.4246 2.776185,6.20079 6.200788,6.20079 3.424599,0 6.200787,-2.77619 6.200787,-6.20079 0,-3.4246 -2.776188,-6.20079 -6.200787,-6.20079 z"
       style="fill:none;stroke:#000000;stroke-width:1.24015749;stroke-linecap:butt;stroke-linejoin:miter" />
    <path
       inkscape:connector-curvature="0"
       id="circle3276"
       d="m 15.692253,780.96425 c -3.424599,0 -6.2007874,2.77618 -6.2007874,6.20079 0,3.4246 2.7761884,6.20078 6.2007874,6.20078 3.424599,0 6.200788,-2.77618 6.200788,-6.20078 0,-3.42461 -2.776189,-6.20079 -6.200788,-6.20079 z"
       style="fill:none;stroke:#000000;stroke-width:1.24015749;stroke-linecap:butt;stroke-linejoin:miter" />
  </g>
</svg>
