<?xml version="1.0" encoding="UTF-8" standalone="no"?>
<svg
   xmlns:dc="http://purl.org/dc/elements/1.1/"
   xmlns:cc="http://creativecommons.org/ns#"
   xmlns:rdf="http://www.w3.org/1999/02/22-rdf-syntax-ns#"
   xmlns:svg="http://www.w3.org/2000/svg"
   xmlns="http://www.w3.org/2000/svg"
   xmlns:sodipodi="http://sodipodi.sourceforge.net/DTD/sodipodi-0.dtd"
   xmlns:inkscape="http://www.inkscape.org/namespaces/inkscape"
   version="1.1"
   width="297"
   height="420"
   viewBox="0 0 297 420"
   id="svg2985"
   inkscape:version="0.48.4 r9939"
   sodipodi:docname="backing.svg">
  <metadata
     id="metadata3108">
    <rdf:RDF>
      <cc:Work
         rdf:about="">
        <dc:format>image/svg+xml</dc:format>
        <dc:type
           rdf:resource="http://purl.org/dc/dcmitype/StillImage" />
      </cc:Work>
    </rdf:RDF>
  </metadata>
  <defs
     id="defs3106" />
  <sodipodi:namedview
     pagecolor="#ffffff"
     bordercolor="#666666"
     borderopacity="1"
     objecttolerance="10"
     gridtolerance="10"
     guidetolerance="10"
     inkscape:pageopacity="0"
     inkscape:pageshadow="2"
     inkscape:window-width="1366"
     inkscape:window-height="751"
     id="namedview3104"
     showgrid="false"
     inkscape:zoom="4.2573066"
     inkscape:cx="35.685532"
     inkscape:cy="41.667897"
     inkscape:window-x="0"
     inkscape:window-y="0"
     inkscape:window-maximized="0"
     inkscape:current-layer="layer2" />
  <g
     inkscape:groupmode="layer"
     id="layer2"
     inkscape:label="Border"
     style="display:inline">
    <path
       id="4"
       style="fill:none;stroke:#000000;stroke-width:0.34999999;stroke-linecap:butt;stroke-linejoin:miter"
       d="m 0.32898106,419.6976 92.99999994,0 0,-93 -92.99999994,0 0,93"
       inkscape:connector-curvature="0"
       sodipodi:nodetypes="ccccc" />
  </g>
  <g
     inkscape:groupmode="layer"
     id="layer1"
     inkscape:label="Holes"
     style="display:inline">
    <path
       style="fill:none;stroke:#000000;stroke-width:0.34999999;stroke-linecap:butt;stroke-linejoin:miter"
       d="m 18.328981,417.4476 c 0.828427,0 1.5,-0.67157 1.5,-1.5 0,-0.82843 -0.671573,-1.5 -1.5,-1.5 -0.828427,0 -1.5,0.67157 -1.5,1.5 0,0.82843 0.671573,1.5 1.5,1.5 z"
       id="circle3008"
       inkscape:connector-curvature="0" />
    <path
       style="fill:none;stroke:#000000;stroke-width:0.34999999;stroke-linecap:butt;stroke-linejoin:miter"
       d="m 46.828981,417.4476 c 0.828427,0 1.5,-0.67157 1.5,-1.5 0,-0.82843 -0.671573,-1.5 -1.5,-1.5 -0.828427,0 -1.5,0.67157 -1.5,1.5 0,0.82843 0.671573,1.5 1.5,1.5 z"
       id="circle3018"
       inkscape:connector-curvature="0" />
    <path
       style="fill:none;stroke:#000000;stroke-width:0.34999999;stroke-linecap:butt;stroke-linejoin:miter"
       d="m 75.328981,417.4476 c 0.828427,0 1.5,-0.67157 1.5,-1.5 0,-0.82843 -0.671573,-1.5 -1.5,-1.5 -0.828427,0 -1.5,0.67157 -1.5,1.5 0,0.82843 0.671573,1.5 1.5,1.5 z"
       id="circle3006"
       inkscape:connector-curvature="0" />
    <path
       style="fill:none;stroke:#000000;stroke-width:0.34999999;stroke-linecap:butt;stroke-linejoin:miter"
       d="m 89.578981,403.1976 c 0.828427,0 1.5,-0.67157 1.5,-1.5 0,-0.82843 -0.671573,-1.5 -1.5,-1.5 -0.828427,0 -1.5,0.67157 -1.5,1.5 0,0.82843 0.671573,1.5 1.5,1.5 z"
       id="circle3004"
       inkscape:connector-curvature="0" />
    <path
       style="fill:none;stroke:#000000;stroke-width:0.34999999;stroke-linecap:butt;stroke-linejoin:miter"
       d="m 89.578981,374.6976 c 0.828427,0 1.5,-0.67157 1.5,-1.5 0,-0.82843 -0.671573,-1.5 -1.5,-1.5 -0.828427,0 -1.5,0.67157 -1.5,1.5 0,0.82843 0.671573,1.5 1.5,1.5 z"
       id="circle3016"
       inkscape:connector-curvature="0" />
    <path
       style="fill:none;stroke:#000000;stroke-width:0.34999999;stroke-linecap:butt;stroke-linejoin:miter"
       d="m 89.578981,346.1976 c 0.828427,0 1.5,-0.67157 1.5,-1.5 0,-0.82843 -0.671573,-1.5 -1.5,-1.5 -0.828427,0 -1.5,0.67157 -1.5,1.5 0,0.82843 0.671573,1.5 1.5,1.5 z"
       id="circle3002"
       inkscape:connector-curvature="0" />
    <path
       style="fill:none;stroke:#000000;stroke-width:0.34999999;stroke-linecap:butt;stroke-linejoin:miter"
       d="m 75.328981,331.9476 c 0.828427,0 1.5,-0.67157 1.5,-1.5 0,-0.82843 -0.671573,-1.5 -1.5,-1.5 -0.828427,0 -1.5,0.67157 -1.5,1.5 0,0.82843 0.671573,1.5 1.5,1.5 z"
       id="circle3000"
       inkscape:connector-curvature="0" />
    <path
       style="fill:none;stroke:#000000;stroke-width:0.34999999;stroke-linecap:butt;stroke-linejoin:miter"
       d="m 46.828981,331.9476 c 0.828427,0 1.5,-0.67157 1.5,-1.5 0,-0.82843 -0.671573,-1.5 -1.5,-1.5 -0.828427,0 -1.5,0.67157 -1.5,1.5 0,0.82843 0.671573,1.5 1.5,1.5 z"
       id="circle3014"
       inkscape:connector-curvature="0" />
    <path
       style="fill:none;stroke:#000000;stroke-width:0.34999999;stroke-linecap:butt;stroke-linejoin:miter"
       d="m 18.328981,331.9476 c 0.828427,0 1.5,-0.67157 1.5,-1.5 0,-0.82843 -0.671573,-1.5 -1.5,-1.5 -0.828427,0 -1.5,0.67157 -1.5,1.5 0,0.82843 0.671573,1.5 1.5,1.5 z"
       id="circle2998"
       inkscape:connector-curvature="0" />
    <path
       style="fill:none;stroke:#000000;stroke-width:0.34999999;stroke-linecap:butt;stroke-linejoin:miter"
       d="m 4.0789811,346.1976 c 0.828427,0 1.5,-0.67157 1.5,-1.5 0,-0.82843 -0.671573,-1.5 -1.5,-1.5 -0.828427,0 -1.5,0.67157 -1.5,1.5 0,0.82843 0.671573,1.5 1.5,1.5 z"
       id="circle3012"
       inkscape:connector-curvature="0" />
    <path
       style="fill:none;stroke:#000000;stroke-width:0.34999999;stroke-linecap:butt;stroke-linejoin:miter"
       d="m 4.0789811,374.6976 c 0.828427,0 1.5,-0.67157 1.5,-1.5 0,-0.82843 -0.671573,-1.5 -1.5,-1.5 -0.828427,0 -1.5,0.67157 -1.5,1.5 0,0.82843 0.671573,1.5 1.5,1.5 z"
       id="circle3020"
       inkscape:connector-curvature="0" />
    <path
       style="fill:none;stroke:#000000;stroke-width:0.34999999;stroke-linecap:butt;stroke-linejoin:miter"
       d="m 4.0789811,403.1976 c 0.828427,0 1.5,-0.67157 1.5,-1.5 0,-0.82843 -0.671573,-1.5 -1.5,-1.5 -0.828427,0 -1.5,0.67157 -1.5,1.5 0,0.82843 0.671573,1.5 1.5,1.5 z"
       id="circle3010"
       inkscape:connector-curvature="0" />
  </g>
</svg>
