<?xml version="1.0" encoding="UTF-8" standalone="no"?>
<!-- Created with Inkscape (http://www.inkscape.org/) -->

<svg
   xmlns:dc="http://purl.org/dc/elements/1.1/"
   xmlns:cc="http://creativecommons.org/ns#"
   xmlns:rdf="http://www.w3.org/1999/02/22-rdf-syntax-ns#"
   xmlns:svg="http://www.w3.org/2000/svg"
   xmlns="http://www.w3.org/2000/svg"
   xmlns:sodipodi="http://sodipodi.sourceforge.net/DTD/sodipodi-0.dtd"
   xmlns:inkscape="http://www.inkscape.org/namespaces/inkscape"
   width="810"
   height="1170"
   id="svg2"
   version="1.1"
   inkscape:version="0.48.4 r9939"
   sodipodi:docname="backing.svg">
  <defs
     id="defs4" />
  <sodipodi:namedview
     id="base"
     pagecolor="#ffffff"
     bordercolor="#666666"
     borderopacity="1.0"
     inkscape:pageopacity="0.0"
     inkscape:pageshadow="2"
     inkscape:zoom="0.69059829"
     inkscape:cx="405"
     inkscape:cy="585"
     inkscape:document-units="px"
     inkscape:current-layer="layer4"
     showgrid="false"
     units="in"
     inkscape:window-width="1280"
     inkscape:window-height="1024"
     inkscape:window-x="1280"
     inkscape:window-y="0"
     inkscape:window-maximized="0" />
  <metadata
     id="metadata7">
    <rdf:RDF>
      <cc:Work
         rdf:about="">
        <dc:format>image/svg+xml</dc:format>
        <dc:type
           rdf:resource="http://purl.org/dc/dcmitype/StillImage" />
        <dc:title />
      </cc:Work>
    </rdf:RDF>
  </metadata>
  <g
     inkscape:groupmode="layer"
     id="layer4"
     inkscape:label="Border"
     style="display:inline">
    <path
       id="4"
       transform="translate(0,117.64025)"
       style="fill:none;stroke:#000000;stroke-width:1.24015749;stroke-linecap:butt;stroke-linejoin:miter"
       d="m 0.63877013,722.18539 0,329.52751 329.52755987,0 0,-329.52751 -329.52755987,0"
       inkscape:connector-curvature="0"
       sodipodi:nodetypes="ccccc" />
  </g>
  <g
     inkscape:label="Holes"
     inkscape:groupmode="layer"
     id="layer1"
     transform="translate(0,117.64025)"
     style="display:inline">
    <path
       inkscape:connector-curvature="0"
       style="fill:none;stroke:#000000;stroke-width:1.24015749;stroke-linecap:butt;stroke-linejoin:miter"
       d="m 13.92617,982.61845 c 2.935371,0 5.31496,2.37959 5.31496,5.31496 0,2.93537 -2.379589,5.31496 -5.31496,5.31496 -2.935371,0 -5.3149606,-2.37959 -5.3149606,-5.31496 0,-2.93537 2.3795896,-5.31496 5.3149606,-5.31496 z"
       id="circle3206" />
    <path
       inkscape:connector-curvature="0"
       style="fill:none;stroke:#000000;stroke-width:1.24015749;stroke-linecap:butt;stroke-linejoin:miter"
       d="m 64.418294,1033.1106 c 2.935372,0 5.314961,2.3795 5.314961,5.3149 0,2.9354 -2.379589,5.315 -5.314961,5.315 -2.935371,0 -5.31496,-2.3796 -5.31496,-5.315 0,-2.9354 2.379589,-5.3149 5.31496,-5.3149 z"
       id="circle3204" />
    <path
       inkscape:connector-curvature="0"
       style="fill:none;stroke:#000000;stroke-width:1.24015749;stroke-linecap:butt;stroke-linejoin:miter"
       d="m 266.3868,1033.1106 c 2.93537,0 5.31496,2.3795 5.31496,5.3149 0,2.9354 -2.37959,5.315 -5.31496,5.315 -2.93537,0 -5.31496,-2.3796 -5.31496,-5.315 0,-2.9354 2.37959,-5.3149 5.31496,-5.3149 z"
       id="circle3202" />
    <path
       inkscape:connector-curvature="0"
       style="fill:none;stroke:#000000;stroke-width:1.24015749;stroke-linecap:butt;stroke-linejoin:miter"
       d="m 316.87892,982.61845 c 2.93538,0 5.31496,2.37959 5.31496,5.31496 0,2.93537 -2.37958,5.31496 -5.31496,5.31496 -2.93537,0 -5.31496,-2.37959 -5.31496,-5.31496 0,-2.93537 2.37959,-5.31496 5.31496,-5.31496 z"
       id="circle3200" />
    <path
       inkscape:connector-curvature="0"
       style="fill:none;stroke:#000000;stroke-width:1.24015749;stroke-linecap:butt;stroke-linejoin:miter"
       d="m 316.87892,780.64995 c 2.93538,0 5.31496,2.37959 5.31496,5.31496 0,2.93537 -2.37958,5.31496 -5.31496,5.31496 -2.93537,0 -5.31496,-2.37959 -5.31496,-5.31496 0,-2.93537 2.37959,-5.31496 5.31496,-5.31496 z"
       id="circle3198" />
    <path
       inkscape:connector-curvature="0"
       style="fill:none;stroke:#000000;stroke-width:1.24015749;stroke-linecap:butt;stroke-linejoin:miter"
       d="m 266.3868,730.15783 c 2.93537,0 5.31496,2.37958 5.31496,5.31496 0,2.93537 -2.37959,5.31496 -5.31496,5.31496 -2.93537,0 -5.31496,-2.37959 -5.31496,-5.31496 0,-2.93538 2.37959,-5.31496 5.31496,-5.31496 z"
       id="circle3196" />
    <path
       inkscape:connector-curvature="0"
       style="fill:none;stroke:#000000;stroke-width:1.24015749;stroke-linecap:butt;stroke-linejoin:miter"
       d="m 64.418294,730.15783 c 2.935372,0 5.314961,2.37958 5.314961,5.31496 0,2.93537 -2.379589,5.31496 -5.314961,5.31496 -2.935371,0 -5.31496,-2.37959 -5.31496,-5.31496 0,-2.93538 2.379589,-5.31496 5.31496,-5.31496 z"
       id="circle3194" />
    <path
       inkscape:connector-curvature="0"
       style="fill:none;stroke:#000000;stroke-width:1.24015749;stroke-linecap:butt;stroke-linejoin:miter"
       d="m 13.92617,780.64995 c 2.935371,0 5.31496,2.37959 5.31496,5.31496 0,2.93537 -2.379589,5.31496 -5.31496,5.31496 -2.935371,0 -5.3149606,-2.37959 -5.3149606,-5.31496 0,-2.93537 2.3795896,-5.31496 5.3149606,-5.31496 z"
       id="circle3208" />
  </g>
</svg>
