<?xml version="1.0" encoding="UTF-8" standalone="no"?>
<!-- Created with Inkscape (http://www.inkscape.org/) -->

<svg
   xmlns:dc="http://purl.org/dc/elements/1.1/"
   xmlns:cc="http://creativecommons.org/ns#"
   xmlns:rdf="http://www.w3.org/1999/02/22-rdf-syntax-ns#"
   xmlns:svg="http://www.w3.org/2000/svg"
   xmlns="http://www.w3.org/2000/svg"
   xmlns:sodipodi="http://sodipodi.sourceforge.net/DTD/sodipodi-0.dtd"
   xmlns:inkscape="http://www.inkscape.org/namespaces/inkscape"
   width="810"
   height="1170"
   id="svg2"
   version="1.1"
   inkscape:version="0.48.4 r9939"
   sodipodi:docname="border.svg">
  <sodipodi:namedview
     id="base"
     pagecolor="#ffffff"
     bordercolor="#666666"
     borderopacity="1.0"
     inkscape:pageopacity="0.0"
     inkscape:pageshadow="2"
     inkscape:zoom="0.47863248"
     inkscape:cx="405"
     inkscape:cy="585"
     inkscape:document-units="px"
     inkscape:current-layer="svg2"
     showgrid="false"
     units="in"
     inkscape:window-width="1366"
     inkscape:window-height="751"
     inkscape:window-x="0"
     inkscape:window-y="0"
     inkscape:window-maximized="0" />
  <defs
     id="defs4" />
  <metadata
     id="metadata7">
    <rdf:RDF>
      <cc:Work
         rdf:about="">
        <dc:format>image/svg+xml</dc:format>
        <dc:type
           rdf:resource="http://purl.org/dc/dcmitype/StillImage" />
        <dc:title />
      </cc:Work>
    </rdf:RDF>
  </metadata>
  <g
     transform="translate(0,117.64025)"
     id="layer1"
     inkscape:groupmode="layer"
     inkscape:label="Border">
    <path
       sodipodi:nodetypes="ccscccscc"
       inkscape:connector-curvature="0"
       d="m 30.750706,1021.614 81.496064,0 c 0,7.8849 -3.24593,15.7212 -8.82139,21.2967 -5.575473,5.5755 -13.411821,8.8214 -21.296722,8.8214 l -81.49606038,0 0,-81.49605 c -2.6e-7,-7.8849 3.24592138,-15.72125 8.82138928,-21.29672 5.5754681,-5.57547 13.4118161,-8.82139 21.2967191,-8.82139 l 0,81.49606"
       style="fill:none;stroke:#000000;stroke-width:1.24015749;stroke-linecap:butt;stroke-linejoin:miter"
       id="path3380" />
  </g>
  <g
     style="display:inline"
     inkscape:label="Holes"
     id="layer6"
     inkscape:groupmode="layer">
    <path
       inkscape:connector-curvature="0"
       id="circle3274"
       d="m 15.691651,980.57082 c -3.424599,0 -6.2007862,2.77619 -6.2007862,6.20079 0,3.4246 2.7761872,6.20079 6.2007862,6.20079 3.424599,0 6.200787,-2.77619 6.200787,-6.20079 0,-3.4246 -2.776188,-6.20079 -6.200787,-6.20079 z"
       style="fill:none;stroke:#000000;stroke-width:1.24015749;stroke-linecap:butt;stroke-linejoin:miter"
       transform="translate(0,117.64025)" />
    <path
       inkscape:connector-curvature="0"
       id="circle3272"
       d="m 65.593107,1030.4722 c -3.424603,0 -6.200788,2.7762 -6.200788,6.2008 0,3.4246 2.776185,6.2008 6.200788,6.2008 3.424599,0 6.200787,-2.7762 6.200787,-6.2008 0,-3.4246 -2.776188,-6.2008 -6.200787,-6.2008 z"
       style="fill:none;stroke:#000000;stroke-width:1.24015749;stroke-linecap:butt;stroke-linejoin:miter"
       transform="translate(0,117.64025)" />
  </g>
</svg>
