<?xml version="1.0" encoding="UTF-8" standalone="no"?>
<!-- Created with Inkscape (http://www.inkscape.org/) -->

<svg
   xmlns:dc="http://purl.org/dc/elements/1.1/"
   xmlns:cc="http://creativecommons.org/ns#"
   xmlns:rdf="http://www.w3.org/1999/02/22-rdf-syntax-ns#"
   xmlns:svg="http://www.w3.org/2000/svg"
   xmlns="http://www.w3.org/2000/svg"
   xmlns:sodipodi="http://sodipodi.sourceforge.net/DTD/sodipodi-0.dtd"
   xmlns:inkscape="http://www.inkscape.org/namespaces/inkscape"
   width="810"
   height="1170"
   id="svg2"
   version="1.1"
   inkscape:version="0.48.4 r9939"
   sodipodi:docname="border.svg">
  <defs
     id="defs4" />
  <sodipodi:namedview
     id="base"
     pagecolor="#ffffff"
     bordercolor="#666666"
     borderopacity="1.0"
     inkscape:pageopacity="0.0"
     inkscape:pageshadow="2"
     inkscape:zoom="2.7075542"
     inkscape:cx="82.567241"
     inkscape:cy="80.345429"
     inkscape:document-units="px"
     inkscape:current-layer="layer2"
     showgrid="false"
     units="in"
     inkscape:window-width="1366"
     inkscape:window-height="751"
     inkscape:window-x="0"
     inkscape:window-y="0"
     inkscape:window-maximized="0" />
  <metadata
     id="metadata7">
    <rdf:RDF>
      <cc:Work
         rdf:about="">
        <dc:format>image/svg+xml</dc:format>
        <dc:type
           rdf:resource="http://purl.org/dc/dcmitype/StillImage" />
        <dc:title />
      </cc:Work>
    </rdf:RDF>
  </metadata>
  <g
     inkscape:groupmode="layer"
     id="layer2"
     inkscape:label="Border"
     style="display:inline">
    <path
       id="path3312"
       transform="translate(0,117.64025)"
       style="fill:none;stroke:#000000;stroke-width:1.24015749;stroke-linecap:butt;stroke-linejoin:miter"
       d="m 0.63549129,1051.7152 85.03936671,0 c 6.957267,0 13.871691,-2.864 18.791222,-7.7836 4.91953,-4.9195 7.78358,-11.8339 7.78358,-18.7912 l -85.039367,0 0,-85.03927 c -6.957267,0 -13.871691,2.86405 -18.7912218,7.78358 -4.9195305,4.91953 -7.78357939,11.83395 -7.78357991,18.79122 l 0,85.03927"
       inkscape:connector-curvature="0"
       sodipodi:nodetypes="ccscccscc" />
  </g>
  <g
     inkscape:label="Holes"
     inkscape:groupmode="layer"
     id="layer1"
     transform="translate(0,117.64025)"
     style="display:inline">
    <path
       inkscape:connector-curvature="0"
       style="fill:none;stroke:#000000;stroke-width:1.24015749;stroke-linecap:butt;stroke-linejoin:miter"
       d="m 64.415015,1033.1129 c 2.935372,0 5.314961,2.3795 5.314961,5.3149 0,2.9354 -2.379589,5.315 -5.314961,5.315 -2.935371,0 -5.31496,-2.3796 -5.31496,-5.315 0,-2.9354 2.379589,-5.3149 5.31496,-5.3149 z"
       id="circle3204" />
    <path
       inkscape:connector-curvature="0"
       style="fill:none;stroke:#000000;stroke-width:1.24015749;stroke-linecap:butt;stroke-linejoin:miter"
       d="m 13.922891,982.62081 c 2.935371,0 5.31496,2.37959 5.31496,5.31496 0,2.93537 -2.379589,5.31496 -5.31496,5.31496 -2.935371,0 -5.3149608,-2.37959 -5.3149608,-5.31496 0,-2.93537 2.3795898,-5.31496 5.3149608,-5.31496 z"
       id="circle3206" />
  </g>
</svg>
