<?xml version="1.0" encoding="UTF-8" standalone="no"?>
<!-- Created with Inkscape (http://www.inkscape.org/) -->

<svg
   xmlns:dc="http://purl.org/dc/elements/1.1/"
   xmlns:cc="http://creativecommons.org/ns#"
   xmlns:rdf="http://www.w3.org/1999/02/22-rdf-syntax-ns#"
   xmlns:svg="http://www.w3.org/2000/svg"
   xmlns="http://www.w3.org/2000/svg"
   xmlns:sodipodi="http://sodipodi.sourceforge.net/DTD/sodipodi-0.dtd"
   xmlns:inkscape="http://www.inkscape.org/namespaces/inkscape"
   width="810"
   height="1170"
   id="svg2"
   version="1.1"
   inkscape:version="0.48.4 r9939"
   sodipodi:docname="leather.svg">
  <sodipodi:namedview
     id="base"
     pagecolor="#ffffff"
     bordercolor="#666666"
     borderopacity="1.0"
     inkscape:pageopacity="0.0"
     inkscape:pageshadow="2"
     inkscape:zoom="0.47863248"
     inkscape:cx="405"
     inkscape:cy="585"
     inkscape:document-units="px"
     inkscape:current-layer="svg2"
     showgrid="false"
     units="in"
     inkscape:window-width="1366"
     inkscape:window-height="751"
     inkscape:window-x="0"
     inkscape:window-y="0"
     inkscape:window-maximized="0" />
  <defs
     id="defs4" />
  <metadata
     id="metadata7">
    <rdf:RDF>
      <cc:Work
         rdf:about="">
        <dc:format>image/svg+xml</dc:format>
        <dc:type
           rdf:resource="http://purl.org/dc/dcmitype/StillImage" />
        <dc:title />
      </cc:Work>
    </rdf:RDF>
  </metadata>
  <g
     style="display:inline"
     inkscape:label="Border"
     id="layer3"
     inkscape:groupmode="layer">
    <path
       sodipodi:nodetypes="ccccsccccccsccsccc"
       inkscape:connector-curvature="0"
       d="m 0.6247935,630.07985 0,-350.7874 c 2.253e-5,-11.92689 6.4830917,-23.6569 16.5819685,-30.00224 L 159.05236,160.16435 c 5.04928,-3.17261 11.00286,-4.88777 16.96613,-4.88777 5.96327,0 11.91685,1.71516 16.96613,4.88777 l 141.8456,89.12586 c 10.09888,6.34534 16.58195,18.07535 16.58197,30.00224 l 0,350.7874 0,70.86614 0,340.15751 c -1e-5,2.7829 -1.14563,5.5487 -3.11344,7.5165 -1.96781,1.9678 -4.73358,3.1134 -7.51648,3.1134 l -329.527555,0 c -2.7829034,0 -5.5486703,-1.1456 -7.5164821,-3.1134 -1.9678119,-1.9678 -3.1134339,-4.7336 -3.1134394,-7.5165 l 0,-340.15751 0,-70.86614"
       style="fill:none;stroke:#000000;stroke-width:1.24015749;stroke-linecap:butt;stroke-linejoin:miter;display:inline"
       transform="translate(0,117.64025)"
       id="path3304" />
  </g>
  <g
     style="display:inline"
     inkscape:label="Pen holder"
     id="layer2"
     inkscape:groupmode="layer">
    <path
       sodipodi:nodetypes="ccsssccccssscc"
       inkscape:connector-curvature="0"
       d="m 89.207469,642.48142 c -4.9e-5,-1.85522 -1.050809,-3.67514 -2.657481,-4.60275 -2.00839,-1.15954 -3.076602,-3.73849 -2.47636,-5.97834 0.600241,-2.23985 2.814783,-3.9386 5.133841,-3.9386 2.319057,0 4.533599,1.69875 5.13384,3.9386 0.600242,2.23985 -0.46797,4.8188 -2.47636,5.97834 -1.606671,0.92761 -2.657431,2.74753 -2.65748,4.60275 l 0,46.06299 c 4.6e-5,1.85523 1.050806,3.67515 2.65748,4.60276 2.00839,1.15954 3.076602,3.73849 2.47636,5.97834 -0.600241,2.23985 -2.814783,3.9386 -5.13384,3.9386 -2.319058,0 -4.5336,-1.69875 -5.133841,-3.9386 -0.600242,-2.23985 0.46797,-4.8188 2.47636,-5.97834 1.606675,-0.92761 2.657435,-2.74753 2.657481,-4.60276"
       style="fill:none;stroke:#000000;stroke-width:1.24015749;stroke-linecap:butt;stroke-linejoin:miter;display:inline"
       transform="translate(0,117.64025)"
       id="37" />
    <path
       sodipodi:nodetypes="ccsssccccssscc"
       inkscape:connector-curvature="0"
       d="m 53.774399,688.54441 c -4.6e-5,1.85523 -1.050806,3.67515 -2.657481,4.60276 -2.00839,1.15954 -3.076602,3.73849 -2.47636,5.97834 0.600241,2.23985 2.814783,3.9386 5.13384,3.9386 2.319058,0 4.5336,-1.69875 5.133841,-3.9386 0.600242,-2.23985 -0.46797,-4.8188 -2.47636,-5.97834 -1.606674,-0.92761 -2.657434,-2.74753 -2.65748,-4.60276 l 0,-46.06299 c -4.9e-5,-1.85522 -1.050809,-3.67514 -2.657481,-4.60275 -2.00839,-1.15954 -3.076602,-3.73849 -2.47636,-5.97834 0.600241,-2.23985 2.814783,-3.9386 5.13384,-3.9386 2.319058,0 4.5336,1.69875 5.133841,3.9386 0.600242,2.23985 -0.46797,4.8188 -2.47636,5.97834 -1.606671,0.92761 -2.657431,2.74753 -2.65748,4.60275"
       style="fill:none;stroke:#000000;stroke-width:1.24015749;stroke-linecap:butt;stroke-linejoin:miter;display:inline"
       transform="translate(0,117.64025)"
       id="path3337" />
  </g>
  <g
     style="display:inline"
     transform="translate(0,117.64025)"
     id="layer1"
     inkscape:groupmode="layer"
     inkscape:label="Holes">
    <path
       inkscape:connector-curvature="0"
       id="circle3312"
       d="m -159.5,42.25 c 0,0.966498 -0.7835,1.75 -1.75,1.75 -0.9665,0 -1.75,-0.783502 -1.75,-1.75 0,-0.966498 0.7835,-1.75 1.75,-1.75 0.9665,0 1.75,0.783502 1.75,1.75 z"
       style="fill:none;stroke:#000000;stroke-width:0.34999999;stroke-linecap:butt;stroke-linejoin:miter"
       transform="matrix(0,-3.543307,-3.543307,0,176.01849,454.68615)" />
    <path
       inkscape:connector-curvature="0"
       id="circle3314"
       d="m -159.5,14.0833 c 0,0.966498 -0.7835,1.75 -1.75,1.75 -0.9665,0 -1.75,-0.783502 -1.75,-1.75 0,-0.966499 0.7835,-1.75 1.75,-1.75 0.9665,0 1.75,0.783501 1.75,1.75 z"
       style="fill:none;stroke:#000000;stroke-width:0.34999999;stroke-linecap:butt;stroke-linejoin:miter"
       transform="matrix(0,-3.543307,-3.543307,0,176.01849,454.68615)" />
    <path
       inkscape:connector-curvature="0"
       id="circle3354"
       d="m -156.75,0 c 0,0.96649831 -0.7835,1.75 -1.75,1.75 -0.9665,0 -1.75,-0.78350169 -1.75,-1.75 0,-0.96649831 0.7835,-1.75 1.75,-1.75 0.9665,0 1.75,0.78350169 1.75,1.75 z"
       style="fill:none;stroke:#000000;stroke-width:0.34999999;stroke-linecap:butt;stroke-linejoin:miter"
       transform="matrix(0,-3.543307,-3.543307,0,176.01849,454.68615)" />
    <path
       inkscape:connector-curvature="0"
       id="circle3316"
       d="m -159.5,-14.0833 c 0,0.966499 -0.7835,1.75 -1.75,1.75 -0.9665,0 -1.75,-0.783501 -1.75,-1.75 0,-0.966498 0.7835,-1.75 1.75,-1.75 0.9665,0 1.75,0.783502 1.75,1.75 z"
       style="fill:none;stroke:#000000;stroke-width:0.34999999;stroke-linecap:butt;stroke-linejoin:miter"
       transform="matrix(0,-3.543307,-3.543307,0,176.01849,454.68615)" />
    <path
       inkscape:connector-curvature="0"
       id="circle3318"
       d="m -159.5,-42.25 c 0,0.966498 -0.7835,1.75 -1.75,1.75 -0.9665,0 -1.75,-0.783502 -1.75,-1.75 0,-0.966498 0.7835,-1.75 1.75,-1.75 0.9665,0 1.75,0.783502 1.75,1.75 z"
       style="fill:none;stroke:#000000;stroke-width:0.34999999;stroke-linecap:butt;stroke-linejoin:miter"
       transform="matrix(0,-3.543307,-3.543307,0,176.01849,454.68615)" />
    <path
       inkscape:connector-curvature="0"
       id="circle3320"
       d="m -131.33299,-42.25 c 0,0.966498 -0.7835,1.75 -1.75,1.75 -0.9665,0 -1.75,-0.783502 -1.75,-1.75 0,-0.966498 0.7835,-1.75 1.75,-1.75 0.9665,0 1.75,0.783502 1.75,1.75 z"
       style="fill:none;stroke:#000000;stroke-width:0.34999999;stroke-linecap:butt;stroke-linejoin:miter"
       transform="matrix(0,-3.543307,-3.543307,0,176.01849,454.68615)" />
    <path
       inkscape:connector-curvature="0"
       id="circle3322"
       d="m -103.167,-42.25 c 0,0.966498 -0.7835,1.75 -1.75,1.75 -0.9665,0 -1.75,-0.783502 -1.75,-1.75 0,-0.966498 0.7835,-1.75 1.75,-1.75 0.9665,0 1.75,0.783502 1.75,1.75 z"
       style="fill:none;stroke:#000000;stroke-width:0.34999999;stroke-linecap:butt;stroke-linejoin:miter"
       transform="matrix(0,-3.543307,-3.543307,0,176.01849,454.68615)" />
    <path
       inkscape:connector-curvature="0"
       id="circle3324"
       d="m -75,-42.25 c 0,0.966498 -0.783502,1.75 -1.75,1.75 -0.966498,0 -1.75,-0.783502 -1.75,-1.75 0,-0.966498 0.783502,-1.75 1.75,-1.75 0.966498,0 1.75,0.783502 1.75,1.75 z"
       style="fill:none;stroke:#000000;stroke-width:0.34999999;stroke-linecap:butt;stroke-linejoin:miter"
       transform="matrix(0,-3.543307,-3.543307,0,176.01849,454.68615)" />
    <path
       inkscape:connector-curvature="0"
       id="circle3270"
       d="m -40.5,-28.1667 c 0,0.966498 -0.783502,1.75 -1.75,1.75 -0.966498,0 -1.75,-0.783502 -1.75,-1.75 0,-0.966499 0.783502,-1.75 1.75,-1.75 0.966498,0 1.75,0.783501 1.75,1.75 z"
       style="fill:none;stroke:#000000;stroke-width:0.34999999;stroke-linecap:butt;stroke-linejoin:miter"
       transform="matrix(0,-3.543307,-3.543307,0,176.01849,454.68615)" />
    <path
       inkscape:connector-curvature="0"
       id="circle3268"
       d="m -26.4167,-42.25 c 0,0.966498 -0.783502,1.75 -1.75,1.75 -0.966499,0 -1.75,-0.783502 -1.75,-1.75 0,-0.966498 0.783501,-1.75 1.75,-1.75 0.966498,0 1.75,0.783502 1.75,1.75 z"
       style="fill:none;stroke:#000000;stroke-width:0.34999999;stroke-linecap:butt;stroke-linejoin:miter"
       transform="matrix(0,-3.543307,-3.543307,0,176.01849,454.68615)" />
    <path
       inkscape:connector-curvature="0"
       id="circle3266"
       d="m 29.9167,-42.25 c 0,0.966498 -0.783501,1.75 -1.75,1.75 -0.966498,0 -1.75,-0.783502 -1.75,-1.75 0,-0.966498 0.783502,-1.75 1.75,-1.75 0.966499,0 1.75,0.783502 1.75,1.75 z"
       style="fill:none;stroke:#000000;stroke-width:0.34999999;stroke-linecap:butt;stroke-linejoin:miter"
       transform="matrix(0,-3.543307,-3.543307,0,176.01849,454.68615)" />
    <path
       inkscape:connector-curvature="0"
       id="circle3264"
       d="m 44,-28.1667 c 0,0.966498 -0.783502,1.75 -1.75,1.75 -0.966498,0 -1.75,-0.783502 -1.75,-1.75 0,-0.966499 0.783502,-1.75 1.75,-1.75 0.966498,0 1.75,0.783501 1.75,1.75 z"
       style="fill:none;stroke:#000000;stroke-width:0.34999999;stroke-linecap:butt;stroke-linejoin:miter"
       transform="matrix(0,-3.543307,-3.543307,0,176.01849,454.68615)" />
    <path
       inkscape:connector-curvature="0"
       id="circle3352"
       d="m 77.25,0 c 0,0.96649831 -0.783502,1.75 -1.75,1.75 -0.966498,0 -1.75,-0.78350169 -1.75,-1.75 0,-0.96649831 0.783502,-1.75 1.75,-1.75 0.966498,0 1.75,0.78350169 1.75,1.75 z"
       style="fill:none;stroke:#000000;stroke-width:0.34999999;stroke-linecap:butt;stroke-linejoin:miter"
       transform="matrix(0,-3.543307,-3.543307,0,176.01849,454.68615)" />
    <path
       inkscape:connector-curvature="0"
       id="circle3262"
       d="m 44,28.1667 c 0,0.966499 -0.783502,1.75 -1.75,1.75 -0.966498,0 -1.75,-0.783501 -1.75,-1.75 0,-0.966498 0.783502,-1.75 1.75,-1.75 0.966498,0 1.75,0.783502 1.75,1.75 z"
       style="fill:none;stroke:#000000;stroke-width:0.34999999;stroke-linecap:butt;stroke-linejoin:miter"
       transform="matrix(0,-3.543307,-3.543307,0,176.01849,454.68615)" />
    <path
       inkscape:connector-curvature="0"
       id="circle3276"
       d="m 29.9167,42.25 c 0,0.966498 -0.783501,1.75 -1.75,1.75 -0.966498,0 -1.75,-0.783502 -1.75,-1.75 0,-0.966498 0.783502,-1.75 1.75,-1.75 0.966499,0 1.75,0.783502 1.75,1.75 z"
       style="fill:none;stroke:#000000;stroke-width:0.34999999;stroke-linecap:butt;stroke-linejoin:miter"
       transform="matrix(0,-3.543307,-3.543307,0,176.01849,454.68615)" />
    <path
       inkscape:connector-curvature="0"
       id="circle3274"
       d="m -26.4167,42.25 c 0,0.966498 -0.783502,1.75 -1.75,1.75 -0.966499,0 -1.75,-0.783502 -1.75,-1.75 0,-0.966498 0.783501,-1.75 1.75,-1.75 0.966498,0 1.75,0.783502 1.75,1.75 z"
       style="fill:none;stroke:#000000;stroke-width:0.34999999;stroke-linecap:butt;stroke-linejoin:miter"
       transform="matrix(0,-3.543307,-3.543307,0,176.01849,454.68615)" />
    <path
       inkscape:connector-curvature="0"
       id="circle3272"
       d="m -40.5,28.1667 c 0,0.966499 -0.783502,1.75 -1.75,1.75 -0.966498,0 -1.75,-0.783501 -1.75,-1.75 0,-0.966498 0.783502,-1.75 1.75,-1.75 0.966498,0 1.75,0.783502 1.75,1.75 z"
       style="fill:none;stroke:#000000;stroke-width:0.34999999;stroke-linecap:butt;stroke-linejoin:miter"
       transform="matrix(0,-3.543307,-3.543307,0,176.01849,454.68615)" />
  </g>
</svg>
