<?xml version="1.0" encoding="UTF-8" standalone="no"?>
<!-- Created with Inkscape (http://www.inkscape.org/) -->

<svg
   xmlns:dc="http://purl.org/dc/elements/1.1/"
   xmlns:cc="http://creativecommons.org/ns#"
   xmlns:rdf="http://www.w3.org/1999/02/22-rdf-syntax-ns#"
   xmlns:svg="http://www.w3.org/2000/svg"
   xmlns="http://www.w3.org/2000/svg"
   xmlns:sodipodi="http://sodipodi.sourceforge.net/DTD/sodipodi-0.dtd"
   xmlns:inkscape="http://www.inkscape.org/namespaces/inkscape"
   width="810"
   height="1170"
   id="svg3233"
   version="1.1"
   inkscape:version="0.48.4 r9939"
   sodipodi:docname="leather.svg">
  <sodipodi:namedview
     id="base"
     pagecolor="#ffffff"
     bordercolor="#666666"
     borderopacity="1.0"
     inkscape:pageopacity="0.0"
     inkscape:pageshadow="2"
     inkscape:zoom="0.47863248"
     inkscape:cx="405"
     inkscape:cy="585"
     inkscape:document-units="px"
     inkscape:current-layer="svg3233"
     showgrid="false"
     units="in"
     inkscape:window-width="683"
     inkscape:window-height="751"
     inkscape:window-x="683"
     inkscape:window-y="0"
     inkscape:window-maximized="0" />
  <defs
     id="defs3235" />
  <metadata
     id="metadata3238">
    <rdf:RDF>
      <cc:Work
         rdf:about="">
        <dc:format>image/svg+xml</dc:format>
        <dc:type
           rdf:resource="http://purl.org/dc/dcmitype/StillImage" />
        <dc:title />
      </cc:Work>
    </rdf:RDF>
  </metadata>
  <g
     inkscape:groupmode="layer"
     id="layer3"
     inkscape:label="Border"
     style="display:inline">
    <path
       id="path3048"
       transform="translate(0,117.64027)"
       style="fill:none;stroke:#000000;stroke-width:1.24015749;stroke-linecap:butt;stroke-linejoin:miter;display:inline"
       d="m 351.43524,576.89489 0,-350.78739 c -1e-5,-10.2128 -4.67043,-20.33379 -12.44126,-26.96067 L 196.73435,77.827184 c -5.7112,-4.870526 -13.18682,-7.625287 -20.69281,-7.625287 -7.50598,0 -14.9816,2.754761 -20.6928,7.625287 L 13.088754,199.14683 C 5.3180548,205.77378 0.64776928,215.89475 0.6478491,226.1075 l 0,350.78739 0,124.01574 0,340.15747 c 5.5e-6,2.7829 1.1456274,5.5487 3.1134392,7.5165 1.9678117,1.9678 4.7335784,3.1134 7.5164817,3.1134 l 329.52755,0 c 2.7829,0 5.54867,-1.1456 7.51648,-3.1134 1.96781,-1.9678 3.11343,-4.7336 3.11344,-7.5165 l 0,-340.15747 0,-124.01574"
       inkscape:connector-curvature="0"
       sodipodi:nodetypes="ccccsccccccsccsccc" />
  </g>
  <g
     inkscape:groupmode="layer"
     id="layer2"
     inkscape:label="Pen holder"
     style="display:inline">
    <path
       id="path3098"
       transform="translate(0,117.64027)"
       style="fill:none;stroke:#000000;stroke-width:1.24015749;stroke-linecap:butt;stroke-linejoin:miter"
       d="m 124.66359,617.64292 c 5e-5,-1.85523 1.05081,-3.67515 2.65748,-4.60276 2.00839,-1.15954 3.0766,-3.73849 2.47636,-5.97834 -0.60024,-2.23985 -2.81478,-3.9386 -5.13384,-3.9386 -2.31906,0 -4.5336,1.69875 -5.13384,3.9386 -0.60024,2.23985 0.46797,4.8188 2.47636,5.97834 1.60667,0.92761 2.65743,2.74753 2.65748,4.60276 l 0,42.51968 c -5e-5,1.85523 -1.05081,3.67515 -2.65748,4.60276 -2.00839,1.15954 -3.0766,3.73849 -2.47636,5.97834 0.60024,2.23985 2.81478,3.9386 5.13384,3.9386 2.31906,0 4.5336,-1.69875 5.13384,-3.9386 0.60024,-2.23985 -0.46797,-4.8188 -2.47636,-5.97834 -1.60667,-0.92761 -2.65743,-2.74753 -2.65748,-4.60276"
       inkscape:connector-curvature="0"
       sodipodi:nodetypes="ccsssccccssscc" />
    <path
       id="path3085"
       transform="translate(0,117.64027)"
       style="fill:none;stroke:#000000;stroke-width:1.24015749;stroke-linecap:butt;stroke-linejoin:miter"
       d="m 89.230524,660.1626 c -4.6e-5,1.85523 -1.050806,3.67515 -2.65748,4.60276 -2.00839,1.15954 -3.076602,3.73849 -2.476361,5.97834 0.600241,2.23985 2.814784,3.9386 5.133841,3.9386 2.319057,0 4.5336,-1.69875 5.133841,-3.9386 0.600241,-2.23985 -0.467971,-4.8188 -2.476361,-5.97834 -1.606674,-0.92761 -2.657434,-2.74753 -2.65748,-4.60276 l 0,-42.51968 c -4.6e-5,-1.85523 -1.050806,-3.67515 -2.65748,-4.60276 -2.00839,-1.15954 -3.076602,-3.73849 -2.476361,-5.97834 0.600241,-2.23985 2.814784,-3.9386 5.133841,-3.9386 2.319057,0 4.5336,1.69875 5.133841,3.9386 0.600241,2.23985 -0.467971,4.8188 -2.476361,5.97834 -1.606674,0.92761 -2.657434,2.74753 -2.65748,4.60276"
       inkscape:connector-curvature="0"
       sodipodi:nodetypes="ccsssccccssscc" />
  </g>
  <g
     inkscape:label="Holes"
     inkscape:groupmode="layer"
     id="layer1"
     transform="translate(0,117.64027)"
     style="display:inline">
    <path
       style="fill:none;stroke:#000000;stroke-width:1.24015749;stroke-linecap:butt;stroke-linejoin:miter"
       d="m 24.565171,1033.0957 c 2.935372,0 5.314961,-2.3796 5.314961,-5.315 0,-2.9354 -2.379589,-5.315 -5.314961,-5.315 -2.935371,0 -5.31496,2.3796 -5.31496,5.315 0,2.9354 2.379589,5.315 5.31496,5.315 z"
       id="circle3056"
       inkscape:connector-curvature="0" />
    <path
       style="fill:none;stroke:#000000;stroke-width:1.24015749;stroke-linecap:butt;stroke-linejoin:miter"
       d="m 125.54942,1033.0957 c 2.93537,0 5.31496,-2.3796 5.31496,-5.315 0,-2.9354 -2.37959,-5.315 -5.31496,-5.315 -2.93537,0 -5.31496,2.3796 -5.31496,5.315 0,2.9354 2.37959,5.315 5.31496,5.315 z"
       id="circle3058"
       inkscape:connector-curvature="0" />
    <path
       style="fill:none;stroke:#000000;stroke-width:1.24015749;stroke-linecap:butt;stroke-linejoin:miter"
       d="m 176.04155,1022.4657 c 3.42459,0 6.20078,-2.7761 6.20078,-6.2007 0,-3.4246 -2.77619,-6.2008 -6.20078,-6.2008 -3.4246,0 -6.20079,2.7762 -6.20079,6.2008 0,3.4246 2.77619,6.2007 6.20079,6.2007 z"
       id="circle3102"
       inkscape:connector-curvature="0" />
    <path
       style="fill:none;stroke:#000000;stroke-width:1.24015749;stroke-linecap:butt;stroke-linejoin:miter"
       d="m 226.53367,1033.0957 c 2.93537,0 5.31496,-2.3796 5.31496,-5.315 0,-2.9354 -2.37959,-5.315 -5.31496,-5.315 -2.93537,0 -5.31496,2.3796 -5.31496,5.315 0,2.9354 2.37959,5.315 5.31496,5.315 z"
       id="circle3060"
       inkscape:connector-curvature="0" />
    <path
       style="fill:none;stroke:#000000;stroke-width:1.24015749;stroke-linecap:butt;stroke-linejoin:miter"
       d="m 327.51792,1033.0957 c 2.93537,0 5.31496,-2.3796 5.31496,-5.315 0,-2.9354 -2.37959,-5.315 -5.31496,-5.315 -2.93537,0 -5.31496,2.3796 -5.31496,5.315 0,2.9354 2.37959,5.315 5.31496,5.315 z"
       id="circle3062"
       inkscape:connector-curvature="0" />
    <path
       style="fill:none;stroke:#000000;stroke-width:1.24015749;stroke-linecap:butt;stroke-linejoin:miter"
       d="m 327.51792,932.11142 c 2.93537,0 5.31496,-2.37958 5.31496,-5.31497 0,-2.93538 -2.37959,-5.31496 -5.31496,-5.31496 -2.93537,0 -5.31496,2.37958 -5.31496,5.31496 0,2.93539 2.37959,5.31497 5.31496,5.31497 z"
       id="circle3064"
       inkscape:connector-curvature="0" />
    <path
       style="fill:none;stroke:#000000;stroke-width:1.24015749;stroke-linecap:butt;stroke-linejoin:miter"
       d="m 327.51792,831.12717 c 2.93537,0 5.31496,-2.37958 5.31496,-5.31496 0,-2.93539 -2.37959,-5.31497 -5.31496,-5.31497 -2.93537,0 -5.31496,2.37958 -5.31496,5.31497 0,2.93538 2.37959,5.31496 5.31496,5.31496 z"
       id="circle3066"
       inkscape:connector-curvature="0" />
    <path
       style="fill:none;stroke:#000000;stroke-width:1.24015749;stroke-linecap:butt;stroke-linejoin:miter"
       d="m 327.51792,730.14292 c 2.93537,0 5.31496,-2.37958 5.31496,-5.31496 0,-2.93539 -2.37959,-5.31496 -5.31496,-5.31496 -2.93537,0 -5.31496,2.37957 -5.31496,5.31496 0,2.93538 2.37959,5.31496 5.31496,5.31496 z"
       id="circle3068"
       inkscape:connector-curvature="0" />
    <path
       style="fill:none;stroke:#000000;stroke-width:1.24015749;stroke-linecap:butt;stroke-linejoin:miter"
       d="m 277.0258,558.29253 c 2.93537,0 5.31496,-2.37958 5.31496,-5.31496 0,-2.93539 -2.37959,-5.31496 -5.31496,-5.31496 -2.93538,0 -5.31497,2.37957 -5.31497,5.31496 0,2.93538 2.37959,5.31496 5.31497,5.31496 z"
       id="circle3006"
       inkscape:connector-curvature="0" />
    <path
       style="fill:none;stroke:#000000;stroke-width:1.24015749;stroke-linecap:butt;stroke-linejoin:miter"
       d="m 327.51792,507.8004 c 2.93537,0 5.31496,-2.37958 5.31496,-5.31496 0,-2.93538 -2.37959,-5.31496 -5.31496,-5.31496 -2.93537,0 -5.31496,2.37958 -5.31496,5.31496 0,2.93538 2.37959,5.31496 5.31496,5.31496 z"
       id="circle3004"
       inkscape:connector-curvature="0" />
    <path
       style="fill:none;stroke:#000000;stroke-width:1.24015749;stroke-linecap:butt;stroke-linejoin:miter"
       d="m 327.51792,406.81615 c 2.93537,0 5.31496,-2.37958 5.31496,-5.31496 0,-2.93538 -2.37959,-5.31496 -5.31496,-5.31496 -2.93537,0 -5.31496,2.37958 -5.31496,5.31496 0,2.93538 2.37959,5.31496 5.31496,5.31496 z"
       id="circle3016"
       inkscape:connector-curvature="0" />
    <path
       style="fill:none;stroke:#000000;stroke-width:1.24015749;stroke-linecap:butt;stroke-linejoin:miter"
       d="m 327.51792,305.8319 c 2.93537,0 5.31496,-2.37958 5.31496,-5.31496 0,-2.93538 -2.37959,-5.31496 -5.31496,-5.31496 -2.93537,0 -5.31496,2.37958 -5.31496,5.31496 0,2.93538 2.37959,5.31496 5.31496,5.31496 z"
       id="circle3002"
       inkscape:connector-curvature="0" />
    <path
       style="fill:none;stroke:#000000;stroke-width:1.24015749;stroke-linecap:butt;stroke-linejoin:miter"
       d="m 277.0258,255.33978 c 2.93537,0 5.31496,-2.37958 5.31496,-5.31496 0,-2.93538 -2.37959,-5.31496 -5.31496,-5.31496 -2.93538,0 -5.31497,2.37958 -5.31497,5.31496 0,2.93538 2.37959,5.31496 5.31497,5.31496 z"
       id="circle3000"
       inkscape:connector-curvature="0" />
    <path
       style="fill:none;stroke:#000000;stroke-width:1.24015749;stroke-linecap:butt;stroke-linejoin:miter"
       d="m 176.04155,108.29254 c 3.42459,0 6.20078,-2.77618 6.20078,-6.20079 0,-3.424606 -2.77619,-6.200787 -6.20078,-6.200787 -3.4246,0 -6.20079,2.776181 -6.20079,6.200787 0,3.42461 2.77619,6.20079 6.20079,6.20079 z"
       id="circle3100"
       inkscape:connector-curvature="0" />
    <path
       style="fill:none;stroke:#000000;stroke-width:1.24015749;stroke-linecap:butt;stroke-linejoin:miter"
       d="m 176.04155,255.33978 c 2.93537,0 5.31496,-2.37958 5.31496,-5.31496 0,-2.93538 -2.37959,-5.31496 -5.31496,-5.31496 -2.93538,0 -5.31496,2.37958 -5.31496,5.31496 0,2.93538 2.37958,5.31496 5.31496,5.31496 z"
       id="circle3014"
       inkscape:connector-curvature="0" />
    <path
       style="fill:none;stroke:#000000;stroke-width:1.24015749;stroke-linecap:butt;stroke-linejoin:miter"
       d="m 75.057296,255.33978 c 2.935371,0 5.314961,-2.37958 5.314961,-5.31496 0,-2.93538 -2.37959,-5.31496 -5.314961,-5.31496 -2.935371,0 -5.31496,2.37958 -5.31496,5.31496 0,2.93538 2.379589,5.31496 5.31496,5.31496 z"
       id="circle2998"
       inkscape:connector-curvature="0" />
    <path
       style="fill:none;stroke:#000000;stroke-width:1.24015749;stroke-linecap:butt;stroke-linejoin:miter"
       d="m 24.565171,305.8319 c 2.935372,0 5.314961,-2.37958 5.314961,-5.31496 0,-2.93538 -2.379589,-5.31496 -5.314961,-5.31496 -2.935371,0 -5.31496,2.37958 -5.31496,5.31496 0,2.93538 2.379589,5.31496 5.31496,5.31496 z"
       id="circle3012"
       inkscape:connector-curvature="0" />
    <path
       style="fill:none;stroke:#000000;stroke-width:1.24015749;stroke-linecap:butt;stroke-linejoin:miter"
       d="m 24.565171,406.81615 c 2.935372,0 5.314961,-2.37958 5.314961,-5.31496 0,-2.93538 -2.379589,-5.31496 -5.314961,-5.31496 -2.935371,0 -5.31496,2.37958 -5.31496,5.31496 0,2.93538 2.379589,5.31496 5.31496,5.31496 z"
       id="circle3020"
       inkscape:connector-curvature="0" />
    <path
       style="fill:none;stroke:#000000;stroke-width:1.24015749;stroke-linecap:butt;stroke-linejoin:miter"
       d="m 24.565171,507.8004 c 2.935372,0 5.314961,-2.37958 5.314961,-5.31496 0,-2.93538 -2.379589,-5.31496 -5.314961,-5.31496 -2.935371,0 -5.31496,2.37958 -5.31496,5.31496 0,2.93538 2.379589,5.31496 5.31496,5.31496 z"
       id="circle3010"
       inkscape:connector-curvature="0" />
    <path
       style="fill:none;stroke:#000000;stroke-width:1.24015749;stroke-linecap:butt;stroke-linejoin:miter"
       d="m 75.057296,558.29253 c 2.935371,0 5.314961,-2.37958 5.314961,-5.31496 0,-2.93539 -2.37959,-5.31496 -5.314961,-5.31496 -2.935371,0 -5.31496,2.37957 -5.31496,5.31496 0,2.93538 2.379589,5.31496 5.31496,5.31496 z"
       id="circle3008"
       inkscape:connector-curvature="0" />
    <path
       style="fill:none;stroke:#000000;stroke-width:1.24015749;stroke-linecap:butt;stroke-linejoin:miter"
       d="m 176.04155,558.29253 c 2.93537,0 5.31496,-2.37958 5.31496,-5.31496 0,-2.93539 -2.37959,-5.31496 -5.31496,-5.31496 -2.93538,0 -5.31496,2.37957 -5.31496,5.31496 0,2.93538 2.37958,5.31496 5.31496,5.31496 z"
       id="circle3018"
       inkscape:connector-curvature="0" />
  </g>
</svg>
