<?xml version="1.0" encoding="UTF-8" standalone="no"?>
<!-- Created with Inkscape (http://www.inkscape.org/) -->

<svg
   xmlns:dc="http://purl.org/dc/elements/1.1/"
   xmlns:cc="http://creativecommons.org/ns#"
   xmlns:rdf="http://www.w3.org/1999/02/22-rdf-syntax-ns#"
   xmlns:svg="http://www.w3.org/2000/svg"
   xmlns="http://www.w3.org/2000/svg"
   xmlns:sodipodi="http://sodipodi.sourceforge.net/DTD/sodipodi-0.dtd"
   xmlns:inkscape="http://www.inkscape.org/namespaces/inkscape"
   width="810"
   height="1170"
   id="svg2"
   version="1.1"
   inkscape:version="0.48.4 r9939"
   sodipodi:docname="leather.svg">
  <sodipodi:namedview
     id="base"
     pagecolor="#ffffff"
     bordercolor="#666666"
     borderopacity="1.0"
     inkscape:pageopacity="0.0"
     inkscape:pageshadow="2"
     inkscape:zoom="0.69059829"
     inkscape:cx="405"
     inkscape:cy="585"
     inkscape:document-units="px"
     inkscape:current-layer="svg2"
     showgrid="false"
     units="in"
     inkscape:window-width="1280"
     inkscape:window-height="1024"
     inkscape:window-x="1280"
     inkscape:window-y="0"
     inkscape:window-maximized="0" />
  <defs
     id="defs4" />
  <metadata
     id="metadata7">
    <rdf:RDF>
      <cc:Work
         rdf:about="">
        <dc:format>image/svg+xml</dc:format>
        <dc:type
           rdf:resource="http://purl.org/dc/dcmitype/StillImage" />
        <dc:title />
      </cc:Work>
    </rdf:RDF>
  </metadata>
  <g
     style="display:inline"
     inkscape:label="Border"
     id="layer2"
     inkscape:groupmode="layer">
    <path
       sodipodi:nodetypes="ccccsccccccsccsccc"
       inkscape:connector-curvature="0"
       d="m 351.42494,576.91405 0,-350.78739 c -10e-6,-10.2128 -4.67043,-20.33379 -12.44126,-26.96067 L 196.72405,77.846343 c -5.7112,-4.870529 -13.18682,-7.625291 -20.69281,-7.625291 -7.50599,0 -14.98161,2.754762 -20.69281,7.625291 L 13.078453,199.16599 C 5.3077537,205.79294 0.63746794,215.91391 0.63754765,226.12666 l 0,350.78739 0,124.01574 0,340.15751 c 5.5e-6,2.7829 1.14562755,5.5487 3.11343935,7.5165 1.9678118,1.9678 4.7335786,3.1134 7.516482,3.1134 l 329.527551,0 c 2.7829,0 5.54867,-1.1456 7.51648,-3.1134 1.96781,-1.9678 3.11343,-4.7336 3.11344,-7.5165 l 0,-340.15751 0,-124.01574"
       style="fill:none;stroke:#000000;stroke-width:1.24015749;stroke-linecap:butt;stroke-linejoin:miter;display:inline"
       transform="translate(0,117.64025)"
       id="path3236" />
  </g>
  <g
     style="display:inline"
     inkscape:label="Pen holder"
     id="layer3"
     inkscape:groupmode="layer">
    <path
       sodipodi:nodetypes="ccsssccccssscc"
       inkscape:connector-curvature="0"
       d="m 89.220223,617.66208 c 4.6e-5,-1.85523 1.050806,-3.67515 2.65748,-4.60276 2.00839,-1.15954 3.076602,-3.73849 2.476361,-5.97834 -0.600241,-2.23985 -2.814784,-3.9386 -5.133841,-3.9386 -2.319057,0 -4.5336,1.69875 -5.133841,3.9386 -0.600241,2.23985 0.467971,4.8188 2.476361,5.97834 1.606674,0.92761 2.657434,2.74753 2.65748,4.60276 l 0,42.51968 c 4.6e-5,1.85523 1.050806,3.67515 2.65748,4.60276 2.00839,1.15954 3.076602,3.73849 2.476361,5.97834 -0.600241,2.23985 -2.814784,3.9386 -5.133841,3.9386 -2.319057,0 -4.5336,-1.69875 -5.133841,-3.9386 -0.600241,-2.23985 0.467971,-4.8188 2.476361,-5.97834 1.606674,-0.92761 2.657434,-2.74753 2.65748,-4.60276"
       style="fill:none;stroke:#000000;stroke-width:1.24015749;stroke-linecap:butt;stroke-linejoin:miter;display:inline"
       transform="translate(0,117.64025)"
       id="path3269" />
    <path
       sodipodi:nodetypes="ccsssccccssscc"
       inkscape:connector-curvature="0"
       d="m 124.65329,660.18176 c 5e-5,1.85523 1.05081,3.67515 2.65748,4.60276 2.00839,1.15954 3.0766,3.73849 2.47636,5.97834 -0.60024,2.23985 -2.81478,3.9386 -5.13384,3.9386 -2.31906,0 -4.5336,-1.69875 -5.13384,-3.9386 -0.60024,-2.23985 0.46797,-4.8188 2.47636,-5.97834 1.60667,-0.92761 2.65743,-2.74753 2.65748,-4.60276 l 0,-42.51968 c -5e-5,-1.85523 -1.05081,-3.67515 -2.65748,-4.60276 -2.00839,-1.15954 -3.0766,-3.73849 -2.47636,-5.97834 0.60024,-2.23985 2.81478,-3.9386 5.13384,-3.9386 2.31906,0 4.5336,1.69875 5.13384,3.9386 0.60024,2.23985 -0.46797,4.8188 -2.47636,5.97834 -1.60667,0.92761 -2.65743,2.74753 -2.65748,4.60276"
       style="fill:none;stroke:#000000;stroke-width:1.24015749;stroke-linecap:butt;stroke-linejoin:miter;display:inline"
       transform="translate(0,117.64025)"
       id="path3282" />
  </g>
  <g
     style="display:inline"
     transform="translate(0,117.64025)"
     id="layer1"
     inkscape:groupmode="layer"
     inkscape:label="Holes">
    <path
       id="circle3244"
       d="m 24.554869,1022.4849 c 2.935371,0 5.31496,2.3796 5.31496,5.315 0,2.9353 -2.379589,5.3149 -5.31496,5.3149 -2.935371,0 -5.314961,-2.3796 -5.314961,-5.3149 0,-2.9354 2.37959,-5.315 5.314961,-5.315 z"
       style="fill:none;stroke:#000000;stroke-width:1.24015749;stroke-linecap:butt;stroke-linejoin:miter"
       inkscape:connector-curvature="0" />
    <path
       id="circle3246"
       d="m 125.53912,1022.4849 c 2.93537,0 5.31496,2.3796 5.31496,5.315 0,2.9353 -2.37959,5.3149 -5.31496,5.3149 -2.93538,0 -5.31497,-2.3796 -5.31497,-5.3149 0,-2.9354 2.37959,-5.315 5.31497,-5.315 z"
       style="fill:none;stroke:#000000;stroke-width:1.24015749;stroke-linecap:butt;stroke-linejoin:miter"
       inkscape:connector-curvature="0" />
    <path
       id="circle3286"
       d="m 176.03124,1010.0833 c 3.4246,0 6.20079,2.7762 6.20079,6.2008 0,3.4246 -2.77619,6.2008 -6.20079,6.2008 -3.4246,0 -6.20079,-2.7762 -6.20079,-6.2008 0,-3.4246 2.77619,-6.2008 6.20079,-6.2008 z"
       style="fill:none;stroke:#000000;stroke-width:1.24015749;stroke-linecap:butt;stroke-linejoin:miter"
       inkscape:connector-curvature="0" />
    <path
       id="circle3248"
       d="m 226.52336,1022.4849 c 2.93538,0 5.31497,2.3796 5.31497,5.315 0,2.9353 -2.37959,5.3149 -5.31497,5.3149 -2.93537,0 -5.31496,-2.3796 -5.31496,-5.3149 0,-2.9354 2.37959,-5.315 5.31496,-5.315 z"
       style="fill:none;stroke:#000000;stroke-width:1.24015749;stroke-linecap:butt;stroke-linejoin:miter"
       inkscape:connector-curvature="0" />
    <path
       id="circle3250"
       d="m 327.50761,1022.4849 c 2.93538,0 5.31496,2.3796 5.31496,5.315 0,2.9353 -2.37958,5.3149 -5.31496,5.3149 -2.93537,0 -5.31496,-2.3796 -5.31496,-5.3149 0,-2.9354 2.37959,-5.315 5.31496,-5.315 z"
       style="fill:none;stroke:#000000;stroke-width:1.24015749;stroke-linecap:butt;stroke-linejoin:miter"
       inkscape:connector-curvature="0" />
    <path
       id="circle3252"
       d="m 327.50761,921.50065 c 2.93538,0 5.31496,2.37958 5.31496,5.31496 0,2.93538 -2.37958,5.31496 -5.31496,5.31496 -2.93537,0 -5.31496,-2.37958 -5.31496,-5.31496 0,-2.93538 2.37959,-5.31496 5.31496,-5.31496 z"
       style="fill:none;stroke:#000000;stroke-width:1.24015749;stroke-linecap:butt;stroke-linejoin:miter"
       inkscape:connector-curvature="0" />
    <path
       id="circle3254"
       d="m 327.50761,820.5164 c 2.93538,0 5.31496,2.37958 5.31496,5.31496 0,2.93539 -2.37958,5.31496 -5.31496,5.31496 -2.93537,0 -5.31496,-2.37957 -5.31496,-5.31496 0,-2.93538 2.37959,-5.31496 5.31496,-5.31496 z"
       style="fill:none;stroke:#000000;stroke-width:1.24015749;stroke-linecap:butt;stroke-linejoin:miter"
       inkscape:connector-curvature="0" />
    <path
       id="circle3256"
       d="m 327.50761,719.53215 c 2.93538,0 5.31496,2.37959 5.31496,5.31496 0,2.93537 -2.37958,5.31496 -5.31496,5.31496 -2.93537,0 -5.31496,-2.37959 -5.31496,-5.31496 0,-2.93537 2.37959,-5.31496 5.31496,-5.31496 z"
       style="fill:none;stroke:#000000;stroke-width:1.24015749;stroke-linecap:butt;stroke-linejoin:miter"
       inkscape:connector-curvature="0" />
    <path
       id="circle3202"
       d="m 277.01549,547.68176 c 2.93537,0 5.31496,2.37959 5.31496,5.31496 0,2.93538 -2.37959,5.31496 -5.31496,5.31496 -2.93537,0 -5.31496,-2.37958 -5.31496,-5.31496 0,-2.93537 2.37959,-5.31496 5.31496,-5.31496 z"
       style="fill:none;stroke:#000000;stroke-width:1.24015749;stroke-linecap:butt;stroke-linejoin:miter"
       inkscape:connector-curvature="0" />
    <path
       id="circle3200"
       d="m 327.50761,497.18964 c 2.93538,0 5.31496,2.37959 5.31496,5.31496 0,2.93537 -2.37958,5.31496 -5.31496,5.31496 -2.93537,0 -5.31496,-2.37959 -5.31496,-5.31496 0,-2.93537 2.37959,-5.31496 5.31496,-5.31496 z"
       style="fill:none;stroke:#000000;stroke-width:1.24015749;stroke-linecap:butt;stroke-linejoin:miter"
       inkscape:connector-curvature="0" />
    <path
       id="circle3198"
       d="m 327.50761,295.22114 c 2.93538,0 5.31496,2.37959 5.31496,5.31496 0,2.93537 -2.37958,5.31496 -5.31496,5.31496 -2.93537,0 -5.31496,-2.37959 -5.31496,-5.31496 0,-2.93537 2.37959,-5.31496 5.31496,-5.31496 z"
       style="fill:none;stroke:#000000;stroke-width:1.24015749;stroke-linecap:butt;stroke-linejoin:miter"
       inkscape:connector-curvature="0" />
    <path
       id="circle3196"
       d="m 277.01549,244.72902 c 2.93537,0 5.31496,2.37958 5.31496,5.31496 0,2.93537 -2.37959,5.31496 -5.31496,5.31496 -2.93537,0 -5.31496,-2.37959 -5.31496,-5.31496 0,-2.93538 2.37959,-5.31496 5.31496,-5.31496 z"
       style="fill:none;stroke:#000000;stroke-width:1.24015749;stroke-linecap:butt;stroke-linejoin:miter"
       inkscape:connector-curvature="0" />
    <path
       id="circle3284"
       d="m 176.03124,95.91012 c 3.4246,0 6.20079,2.776188 6.20079,6.20079 0,3.4246 -2.77619,6.20079 -6.20079,6.20079 -3.4246,0 -6.20079,-2.77619 -6.20079,-6.20079 0,-3.424602 2.77619,-6.20079 6.20079,-6.20079 z"
       style="fill:none;stroke:#000000;stroke-width:1.24015749;stroke-linecap:butt;stroke-linejoin:miter"
       inkscape:connector-curvature="0" />
    <path
       id="circle3194"
       d="m 75.046993,244.72902 c 2.935372,0 5.314961,2.37958 5.314961,5.31496 0,2.93537 -2.379589,5.31496 -5.314961,5.31496 -2.935371,0 -5.31496,-2.37959 -5.31496,-5.31496 0,-2.93538 2.379589,-5.31496 5.31496,-5.31496 z"
       style="fill:none;stroke:#000000;stroke-width:1.24015749;stroke-linecap:butt;stroke-linejoin:miter"
       inkscape:connector-curvature="0" />
    <path
       id="circle3208"
       d="m 24.554869,295.22114 c 2.935371,0 5.31496,2.37959 5.31496,5.31496 0,2.93537 -2.379589,5.31496 -5.31496,5.31496 -2.935371,0 -5.314961,-2.37959 -5.314961,-5.31496 0,-2.93537 2.37959,-5.31496 5.314961,-5.31496 z"
       style="fill:none;stroke:#000000;stroke-width:1.24015749;stroke-linecap:butt;stroke-linejoin:miter"
       inkscape:connector-curvature="0" />
    <path
       id="circle3206"
       d="m 24.554869,497.18964 c 2.935371,0 5.31496,2.37959 5.31496,5.31496 0,2.93537 -2.379589,5.31496 -5.31496,5.31496 -2.935371,0 -5.314961,-2.37959 -5.314961,-5.31496 0,-2.93537 2.37959,-5.31496 5.314961,-5.31496 z"
       style="fill:none;stroke:#000000;stroke-width:1.24015749;stroke-linecap:butt;stroke-linejoin:miter"
       inkscape:connector-curvature="0" />
    <path
       id="circle3204"
       d="m 75.046993,547.68176 c 2.935372,0 5.314961,2.37959 5.314961,5.31496 0,2.93538 -2.379589,5.31496 -5.314961,5.31496 -2.935371,0 -5.31496,-2.37958 -5.31496,-5.31496 0,-2.93537 2.379589,-5.31496 5.31496,-5.31496 z"
       style="fill:none;stroke:#000000;stroke-width:1.24015749;stroke-linecap:butt;stroke-linejoin:miter"
       inkscape:connector-curvature="0" />
  </g>
</svg>
