<?xml version="1.0" encoding="UTF-8" standalone="no"?>
<svg
   xmlns:dc="http://purl.org/dc/elements/1.1/"
   xmlns:cc="http://creativecommons.org/ns#"
   xmlns:rdf="http://www.w3.org/1999/02/22-rdf-syntax-ns#"
   xmlns:svg="http://www.w3.org/2000/svg"
   xmlns="http://www.w3.org/2000/svg"
   xmlns:sodipodi="http://sodipodi.sourceforge.net/DTD/sodipodi-0.dtd"
   xmlns:inkscape="http://www.inkscape.org/namespaces/inkscape"
   sodipodi:docname="leather.svg"
   inkscape:version="0.48.4 r9939"
   id="svg2985"
   viewBox="0 0 297 420"
   height="420"
   width="297"
   version="1.1">
  <metadata
     id="metadata3108">
    <rdf:RDF>
      <cc:Work
         rdf:about="">
        <dc:format>image/svg+xml</dc:format>
        <dc:type
           rdf:resource="http://purl.org/dc/dcmitype/StillImage" />
      </cc:Work>
    </rdf:RDF>
  </metadata>
  <defs
     id="defs3106" />
  <sodipodi:namedview
     pagecolor="#ffffff"
     bordercolor="#666666"
     borderopacity="1"
     objecttolerance="10"
     gridtolerance="10"
     guidetolerance="10"
     inkscape:pageopacity="0"
     inkscape:pageshadow="2"
     inkscape:window-width="1366"
     inkscape:window-height="751"
     id="namedview3104"
     showgrid="false"
     inkscape:zoom="1.5281192"
     inkscape:cx="138.72789"
     inkscape:cy="133.69444"
     inkscape:window-x="0"
     inkscape:window-y="0"
     inkscape:window-maximized="0"
     inkscape:current-layer="layer2" />
  <g
     inkscape:groupmode="layer"
     id="layer3"
     inkscape:label="Border"
     style="display:inline">
    <path
       id="path3048"
       style="fill:none;stroke:#000000;stroke-width:0.34999999;stroke-linecap:butt;stroke-linejoin:miter"
       d="m 99.5,416.5 0,-96 0,-35 0,-99 c -2e-6,-2.88228 -1.3181,-5.73865 -3.5112,-7.6089 L 55.83997,144.652 c -3.223656,-2.74914 -8.456284,-2.74914 -11.67994,0 L 4.0111,178.8911 C 1.818036,180.76137 0.4999776,183.61774 0.5,186.5 l 0,99 0,35 0,96 c 0,1.5708 1.4292037,3 3,3 l 93,0 c 1.570796,0 3,-1.4292 3,-3"
       inkscape:connector-curvature="0"
       sodipodi:nodetypes="ccccccccccccccc" />
  </g>
  <g
     inkscape:groupmode="layer"
     id="layer2"
     inkscape:label="Pen holder"
     style="display:inline">
    <path
       id="path3098"
       style="fill:none;stroke:#000000;stroke-width:0.34999999;stroke-linecap:butt;stroke-linejoin:miter;display:inline"
       d="m 35.5,297 c 1.3e-5,-0.52359 0.296561,-1.03721 0.75,-1.299 0.566812,-0.32725 0.868285,-1.05509 0.698884,-1.68722 -0.169401,-0.63214 -0.794394,-1.11156 -1.448884,-1.11156 -0.65449,0 -1.279483,0.47942 -1.448884,1.11156 -0.169401,0.63213 0.132072,1.35997 0.698884,1.68722 0.453439,0.26179 0.749987,0.77541 0.75,1.299 l 0,12 c 1.3e-5,0.52359 0.296561,1.03721 0.75,1.299 0.566812,0.32725 0.868285,1.05509 0.698884,1.68722 -0.169401,0.63214 -0.794394,1.11156 -1.448884,1.11156 -0.65449,0 -1.279483,-0.47942 -1.448884,-1.11156 -0.169401,-0.63213 0.132072,-1.35997 0.698884,-1.68722 0.453439,-0.26179 0.749987,-0.77541 0.75,-1.299"
       inkscape:connector-curvature="0"
       sodipodi:nodetypes="ccsssccccssscc" />
    <path
       id="path3085"
       style="fill:none;stroke:#000000;stroke-width:0.34999999;stroke-linecap:butt;stroke-linejoin:miter;display:inline"
       d="m 25.5,309 c -1.3e-5,0.52359 -0.296561,1.03721 -0.75,1.299 -0.566812,0.32725 -0.868285,1.05509 -0.698884,1.68722 0.169401,0.63214 0.794394,1.11156 1.448884,1.11156 0.65449,0 1.279483,-0.47942 1.448884,-1.11156 C 27.118285,311.35409 26.816812,310.62625 26.25,310.299 25.796561,310.03721 25.500013,309.52359 25.5,309 l 0,-12 c -1.3e-5,-0.52359 -0.296561,-1.03721 -0.75,-1.299 -0.566812,-0.32725 -0.868285,-1.05509 -0.698884,-1.68722 0.169401,-0.63214 0.794394,-1.11156 1.448884,-1.11156 0.65449,0 1.279483,0.47942 1.448884,1.11156 0.169401,0.63213 -0.132072,1.35997 -0.698884,1.68722 -0.453439,0.26179 -0.749987,0.77541 -0.75,1.299"
       inkscape:connector-curvature="0"
       sodipodi:nodetypes="ccsssccccssscc" />
  </g>
  <g
     inkscape:groupmode="layer"
     id="layer1"
     inkscape:label="Holes"
     style="display:inline">
    <path
       style="fill:none;stroke:#000000;stroke-width:0.34999999;stroke-linecap:butt;stroke-linejoin:miter"
       d="m 7.25,414.25 c 0.828427,0 1.5,-0.67157 1.5,-1.5 0,-0.82843 -0.671573,-1.5 -1.5,-1.5 -0.828427,0 -1.5,0.67157 -1.5,1.5 0,0.82843 0.671573,1.5 1.5,1.5 z"
       id="circle3056"
       inkscape:connector-curvature="0" />
    <path
       style="fill:none;stroke:#000000;stroke-width:0.34999999;stroke-linecap:butt;stroke-linejoin:miter"
       d="m 35.75,414.25 c 0.828427,0 1.5,-0.67157 1.5,-1.5 0,-0.82843 -0.671573,-1.5 -1.5,-1.5 -0.828427,0 -1.5,0.67157 -1.5,1.5 0,0.82843 0.671573,1.5 1.5,1.5 z"
       id="circle3058"
       inkscape:connector-curvature="0" />
    <path
       style="fill:none;stroke:#000000;stroke-width:0.34999999;stroke-linecap:butt;stroke-linejoin:miter"
       d="m 50,411.25 c 0.966498,0 1.75,-0.7835 1.75,-1.75 0,-0.9665 -0.783502,-1.75 -1.75,-1.75 -0.966498,0 -1.75,0.7835 -1.75,1.75 0,0.9665 0.783502,1.75 1.75,1.75 z"
       id="circle3102"
       inkscape:connector-curvature="0" />
    <path
       style="fill:none;stroke:#000000;stroke-width:0.34999999;stroke-linecap:butt;stroke-linejoin:miter"
       d="m 64.25,414.25 c 0.828427,0 1.5,-0.67157 1.5,-1.5 0,-0.82843 -0.671573,-1.5 -1.5,-1.5 -0.828427,0 -1.5,0.67157 -1.5,1.5 0,0.82843 0.671573,1.5 1.5,1.5 z"
       id="circle3060"
       inkscape:connector-curvature="0" />
    <path
       style="fill:none;stroke:#000000;stroke-width:0.34999999;stroke-linecap:butt;stroke-linejoin:miter"
       d="m 92.75,414.25 c 0.828427,0 1.5,-0.67157 1.5,-1.5 0,-0.82843 -0.671573,-1.5 -1.5,-1.5 -0.828427,0 -1.5,0.67157 -1.5,1.5 0,0.82843 0.671573,1.5 1.5,1.5 z"
       id="circle3062"
       inkscape:connector-curvature="0" />
    <path
       style="fill:none;stroke:#000000;stroke-width:0.34999999;stroke-linecap:butt;stroke-linejoin:miter"
       d="m 92.75,385.75 c 0.828427,0 1.5,-0.67157 1.5,-1.5 0,-0.82843 -0.671573,-1.5 -1.5,-1.5 -0.828427,0 -1.5,0.67157 -1.5,1.5 0,0.82843 0.671573,1.5 1.5,1.5 z"
       id="circle3064"
       inkscape:connector-curvature="0" />
    <path
       style="fill:none;stroke:#000000;stroke-width:0.34999999;stroke-linecap:butt;stroke-linejoin:miter"
       d="m 92.75,357.25 c 0.828427,0 1.5,-0.67157 1.5,-1.5 0,-0.82843 -0.671573,-1.5 -1.5,-1.5 -0.828427,0 -1.5,0.67157 -1.5,1.5 0,0.82843 0.671573,1.5 1.5,1.5 z"
       id="circle3066"
       inkscape:connector-curvature="0" />
    <path
       style="fill:none;stroke:#000000;stroke-width:0.34999999;stroke-linecap:butt;stroke-linejoin:miter"
       d="m 92.75,328.75 c 0.828427,0 1.5,-0.67157 1.5,-1.5 0,-0.82843 -0.671573,-1.5 -1.5,-1.5 -0.828427,0 -1.5,0.67157 -1.5,1.5 0,0.82843 0.671573,1.5 1.5,1.5 z"
       id="circle3068"
       inkscape:connector-curvature="0" />
    <path
       style="fill:none;stroke:#000000;stroke-width:0.34999999;stroke-linecap:butt;stroke-linejoin:miter"
       d="m 78.5,280.25 c 0.828427,0 1.5,-0.67157 1.5,-1.5 0,-0.82843 -0.671573,-1.5 -1.5,-1.5 -0.828427,0 -1.5,0.67157 -1.5,1.5 0,0.82843 0.671573,1.5 1.5,1.5 z"
       id="circle3006"
       inkscape:connector-curvature="0" />
    <path
       style="fill:none;stroke:#000000;stroke-width:0.34999999;stroke-linecap:butt;stroke-linejoin:miter"
       d="m 92.75,266 c 0.828427,0 1.5,-0.67157 1.5,-1.5 0,-0.82843 -0.671573,-1.5 -1.5,-1.5 -0.828427,0 -1.5,0.67157 -1.5,1.5 0,0.82843 0.671573,1.5 1.5,1.5 z"
       id="circle3004"
       inkscape:connector-curvature="0" />
    <path
       style="fill:none;stroke:#000000;stroke-width:0.34999999;stroke-linecap:butt;stroke-linejoin:miter"
       d="m 92.75,237.5 c 0.828427,0 1.5,-0.67157 1.5,-1.5 0,-0.82843 -0.671573,-1.5 -1.5,-1.5 -0.828427,0 -1.5,0.67157 -1.5,1.5 0,0.82843 0.671573,1.5 1.5,1.5 z"
       id="circle3016"
       inkscape:connector-curvature="0" />
    <path
       style="fill:none;stroke:#000000;stroke-width:0.34999999;stroke-linecap:butt;stroke-linejoin:miter"
       d="m 92.75,209 c 0.828427,0 1.5,-0.67157 1.5,-1.5 0,-0.82843 -0.671573,-1.5 -1.5,-1.5 -0.828427,0 -1.5,0.67157 -1.5,1.5 0,0.82843 0.671573,1.5 1.5,1.5 z"
       id="circle3002"
       inkscape:connector-curvature="0" />
    <path
       style="fill:none;stroke:#000000;stroke-width:0.34999999;stroke-linecap:butt;stroke-linejoin:miter"
       d="m 78.5,194.75 c 0.828427,0 1.5,-0.67157 1.5,-1.5 0,-0.82843 -0.671573,-1.5 -1.5,-1.5 -0.828427,0 -1.5,0.67157 -1.5,1.5 0,0.82843 0.671573,1.5 1.5,1.5 z"
       id="circle3000"
       inkscape:connector-curvature="0" />
    <path
       style="fill:none;stroke:#000000;stroke-width:0.34999999;stroke-linecap:butt;stroke-linejoin:miter"
       d="m 50,153.25 c 0.966498,0 1.75,-0.7835 1.75,-1.75 0,-0.9665 -0.783502,-1.75 -1.75,-1.75 -0.966498,0 -1.75,0.7835 -1.75,1.75 0,0.9665 0.783502,1.75 1.75,1.75 z"
       id="circle3100"
       inkscape:connector-curvature="0" />
    <path
       style="fill:none;stroke:#000000;stroke-width:0.34999999;stroke-linecap:butt;stroke-linejoin:miter"
       d="m 50,194.75 c 0.828427,0 1.5,-0.67157 1.5,-1.5 0,-0.82843 -0.671573,-1.5 -1.5,-1.5 -0.828427,0 -1.5,0.67157 -1.5,1.5 0,0.82843 0.671573,1.5 1.5,1.5 z"
       id="circle3014"
       inkscape:connector-curvature="0" />
    <path
       style="fill:none;stroke:#000000;stroke-width:0.34999999;stroke-linecap:butt;stroke-linejoin:miter"
       d="m 21.5,194.75 c 0.828427,0 1.5,-0.67157 1.5,-1.5 0,-0.82843 -0.671573,-1.5 -1.5,-1.5 -0.828427,0 -1.5,0.67157 -1.5,1.5 0,0.82843 0.671573,1.5 1.5,1.5 z"
       id="circle2998"
       inkscape:connector-curvature="0" />
    <path
       style="fill:none;stroke:#000000;stroke-width:0.34999999;stroke-linecap:butt;stroke-linejoin:miter"
       d="m 7.25,209 c 0.828427,0 1.5,-0.67157 1.5,-1.5 0,-0.82843 -0.671573,-1.5 -1.5,-1.5 -0.828427,0 -1.5,0.67157 -1.5,1.5 0,0.82843 0.671573,1.5 1.5,1.5 z"
       id="circle3012"
       inkscape:connector-curvature="0" />
    <path
       style="fill:none;stroke:#000000;stroke-width:0.34999999;stroke-linecap:butt;stroke-linejoin:miter"
       d="m 7.25,237.5 c 0.828427,0 1.5,-0.67157 1.5,-1.5 0,-0.82843 -0.671573,-1.5 -1.5,-1.5 -0.828427,0 -1.5,0.67157 -1.5,1.5 0,0.82843 0.671573,1.5 1.5,1.5 z"
       id="circle3020"
       inkscape:connector-curvature="0" />
    <path
       style="fill:none;stroke:#000000;stroke-width:0.34999999;stroke-linecap:butt;stroke-linejoin:miter"
       d="m 7.25,266 c 0.828427,0 1.5,-0.67157 1.5,-1.5 0,-0.82843 -0.671573,-1.5 -1.5,-1.5 -0.828427,0 -1.5,0.67157 -1.5,1.5 0,0.82843 0.671573,1.5 1.5,1.5 z"
       id="circle3010"
       inkscape:connector-curvature="0" />
    <path
       style="fill:none;stroke:#000000;stroke-width:0.34999999;stroke-linecap:butt;stroke-linejoin:miter"
       d="m 21.5,280.25 c 0.828427,0 1.5,-0.67157 1.5,-1.5 0,-0.82843 -0.671573,-1.5 -1.5,-1.5 -0.828427,0 -1.5,0.67157 -1.5,1.5 0,0.82843 0.671573,1.5 1.5,1.5 z"
       id="circle3008"
       inkscape:connector-curvature="0" />
    <path
       style="fill:none;stroke:#000000;stroke-width:0.34999999;stroke-linecap:butt;stroke-linejoin:miter"
       d="m 50,280.25 c 0.828427,0 1.5,-0.67157 1.5,-1.5 0,-0.82843 -0.671573,-1.5 -1.5,-1.5 -0.828427,0 -1.5,0.67157 -1.5,1.5 0,0.82843 0.671573,1.5 1.5,1.5 z"
       id="circle3018"
       inkscape:connector-curvature="0" />
  </g>
</svg>
