<?xml version="1.0" encoding="UTF-8" standalone="no"?>
<!-- Created with Inkscape (http://www.inkscape.org/) -->

<svg
   xmlns:dc="http://purl.org/dc/elements/1.1/"
   xmlns:cc="http://creativecommons.org/ns#"
   xmlns:rdf="http://www.w3.org/1999/02/22-rdf-syntax-ns#"
   xmlns:svg="http://www.w3.org/2000/svg"
   xmlns="http://www.w3.org/2000/svg"
   xmlns:sodipodi="http://sodipodi.sourceforge.net/DTD/sodipodi-0.dtd"
   xmlns:inkscape="http://www.inkscape.org/namespaces/inkscape"
   width="810"
   height="1170"
   id="svg3233"
   version="1.1"
   inkscape:version="0.48.4 r9939"
   sodipodi:docname="pocket.svg">
  <defs
     id="defs3235" />
  <sodipodi:namedview
     id="base"
     pagecolor="#ffffff"
     bordercolor="#666666"
     borderopacity="1.0"
     inkscape:pageopacity="0.0"
     inkscape:pageshadow="2"
     inkscape:zoom="0.47863248"
     inkscape:cx="405"
     inkscape:cy="585"
     inkscape:document-units="px"
     inkscape:current-layer="layer3"
     showgrid="false"
     units="in"
     inkscape:window-width="1366"
     inkscape:window-height="751"
     inkscape:window-x="0"
     inkscape:window-y="0"
     inkscape:window-maximized="0" />
  <metadata
     id="metadata3238">
    <rdf:RDF>
      <cc:Work
         rdf:about="">
        <dc:format>image/svg+xml</dc:format>
        <dc:type
           rdf:resource="http://purl.org/dc/dcmitype/StillImage" />
        <dc:title />
      </cc:Work>
    </rdf:RDF>
  </metadata>
  <g
     inkscape:groupmode="layer"
     id="layer3"
     inkscape:label="Border"
     style="display:inline">
    <path
       id="19"
       style="fill:none;stroke:#000000;stroke-width:1.24015749;stroke-linecap:butt;stroke-linejoin:miter"
       d="m 330.158,839.84488 0,329.52762 -329.5275514,0 0,-53.1496 C 28.564628,1055.8663 67.220751,1000.4908 114.24854,953.46298 161.27633,906.43519 216.65188,867.77906 277.00839,839.84488 l 53.14961,0"
       inkscape:connector-curvature="0"
       sodipodi:nodetypes="ccccscc" />
  </g>
  <g
     inkscape:label="Holes"
     inkscape:groupmode="layer"
     id="layer1"
     transform="translate(0,117.64027)"
     style="display:inline">
    <path
       style="fill:none;stroke:#000000;stroke-width:1.24015749;stroke-linecap:butt;stroke-linejoin:miter"
       d="m 13.91785,1043.7598 c 2.935372,0 5.314961,-2.3796 5.314961,-5.315 0,-2.9354 -2.379589,-5.315 -5.314961,-5.315 -2.935371,0 -5.3149604,2.3796 -5.3149604,5.315 0,2.9354 2.3795894,5.315 5.3149604,5.315 z"
       id="circle3056"
       inkscape:connector-curvature="0" />
    <path
       style="fill:none;stroke:#000000;stroke-width:1.24015749;stroke-linecap:butt;stroke-linejoin:miter"
       d="m 114.9021,1043.7598 c 2.93537,0 5.31496,-2.3796 5.31496,-5.315 0,-2.9354 -2.37959,-5.315 -5.31496,-5.315 -2.93538,0 -5.31496,2.3796 -5.31496,5.315 0,2.9354 2.37958,5.315 5.31496,5.315 z"
       id="circle3058"
       inkscape:connector-curvature="0" />
    <path
       style="fill:none;stroke:#000000;stroke-width:1.24015749;stroke-linecap:butt;stroke-linejoin:miter"
       d="m 215.88634,1043.7598 c 2.93537,0 5.31497,-2.3796 5.31497,-5.315 0,-2.9354 -2.3796,-5.315 -5.31497,-5.315 -2.93537,0 -5.31496,2.3796 -5.31496,5.315 0,2.9354 2.37959,5.315 5.31496,5.315 z"
       id="circle3060"
       inkscape:connector-curvature="0" />
    <path
       style="fill:none;stroke:#000000;stroke-width:1.24015749;stroke-linecap:butt;stroke-linejoin:miter"
       d="m 316.87059,1043.7598 c 2.93537,0 5.31496,-2.3796 5.31496,-5.315 0,-2.9354 -2.37959,-5.315 -5.31496,-5.315 -2.93537,0 -5.31496,2.3796 -5.31496,5.315 0,2.9354 2.37959,5.315 5.31496,5.315 z"
       id="circle3062"
       inkscape:connector-curvature="0" />
    <path
       style="fill:none;stroke:#000000;stroke-width:1.24015749;stroke-linecap:butt;stroke-linejoin:miter"
       d="m 316.87059,942.77548 c 2.93537,0 5.31496,-2.37958 5.31496,-5.31497 0,-2.93538 -2.37959,-5.31496 -5.31496,-5.31496 -2.93537,0 -5.31496,2.37958 -5.31496,5.31496 0,2.93539 2.37959,5.31497 5.31496,5.31497 z"
       id="circle3064"
       inkscape:connector-curvature="0" />
    <path
       style="fill:none;stroke:#000000;stroke-width:1.24015749;stroke-linecap:butt;stroke-linejoin:miter"
       d="m 316.87059,841.79124 c 2.93537,0 5.31496,-2.37959 5.31496,-5.31497 0,-2.93539 -2.37959,-5.31497 -5.31496,-5.31497 -2.93537,0 -5.31496,2.37958 -5.31496,5.31497 0,2.93538 2.37959,5.31497 5.31496,5.31497 z"
       id="circle3066"
       inkscape:connector-curvature="0" />
    <path
       style="fill:none;stroke:#000000;stroke-width:1.24015749;stroke-linecap:butt;stroke-linejoin:miter"
       d="m 316.87059,740.80699 c 2.93537,0 5.31496,-2.37958 5.31496,-5.31497 0,-2.93538 -2.37959,-5.31496 -5.31496,-5.31496 -2.93537,0 -5.31496,2.37957 -5.31496,5.31496 0,2.93539 2.37959,5.31497 5.31496,5.31497 z"
       id="circle3068"
       inkscape:connector-curvature="0" />
  </g>
</svg>
