<?xml version="1.0" encoding="UTF-8" standalone="no"?>
<!-- Created with Inkscape (http://www.inkscape.org/) -->

<svg
   xmlns:dc="http://purl.org/dc/elements/1.1/"
   xmlns:cc="http://creativecommons.org/ns#"
   xmlns:rdf="http://www.w3.org/1999/02/22-rdf-syntax-ns#"
   xmlns:svg="http://www.w3.org/2000/svg"
   xmlns="http://www.w3.org/2000/svg"
   xmlns:sodipodi="http://sodipodi.sourceforge.net/DTD/sodipodi-0.dtd"
   xmlns:inkscape="http://www.inkscape.org/namespaces/inkscape"
   width="810"
   height="1170"
   id="svg2"
   version="1.1"
   inkscape:version="0.48.4 r9939"
   sodipodi:docname="pocket.svg">
  <defs
     id="defs4" />
  <sodipodi:namedview
     id="base"
     pagecolor="#ffffff"
     bordercolor="#666666"
     borderopacity="1.0"
     inkscape:pageopacity="0.0"
     inkscape:pageshadow="2"
     inkscape:zoom="0.47863248"
     inkscape:cx="405"
     inkscape:cy="585"
     inkscape:document-units="px"
     inkscape:current-layer="layer5"
     showgrid="false"
     units="in"
     inkscape:window-width="1366"
     inkscape:window-height="751"
     inkscape:window-x="0"
     inkscape:window-y="0"
     inkscape:window-maximized="0" />
  <metadata
     id="metadata7">
    <rdf:RDF>
      <cc:Work
         rdf:about="">
        <dc:format>image/svg+xml</dc:format>
        <dc:type
           rdf:resource="http://purl.org/dc/dcmitype/StillImage" />
        <dc:title />
      </cc:Work>
    </rdf:RDF>
  </metadata>
  <g
     inkscape:groupmode="layer"
     id="layer5"
     inkscape:label="Border"
     style="display:inline">
    <path
       id="19"
       style="fill:none;stroke:#000000;stroke-width:1.24015749;stroke-linecap:butt;stroke-linejoin:miter"
       d="m 330.15531,839.84632 0,329.52758 -329.52755485,0 0,-53.1497 C 28.561934,1055.8677 67.218057,1000.4922 114.24585,953.46441 161.27364,906.43662 216.64919,867.7805 277.0057,839.84632 l 53.14961,0"
       inkscape:connector-curvature="0"
       sodipodi:nodetypes="ccccscc" />
  </g>
  <g
     inkscape:label="Holes"
     inkscape:groupmode="layer"
     id="layer1"
     transform="translate(0,117.64025)"
     style="display:inline">
    <path
       style="fill:none;stroke:#000000;stroke-width:1.24015749;stroke-linecap:butt;stroke-linejoin:miter"
       d="m 15.68681,1030.4738 c -3.424599,0 -6.2007879,2.7761 -6.2007879,6.2007 0,3.4246 2.7761889,6.2008 6.2007869,6.2008 3.424599,0 6.200787,-2.7762 6.200787,-6.2008 0,-3.4246 -2.776188,-6.2007 -6.200786,-6.2007 z"
       id="circle3312"
       inkscape:connector-curvature="0" />
    <path
       style="fill:none;stroke:#000000;stroke-width:1.24015749;stroke-linecap:butt;stroke-linejoin:miter"
       d="m 115.49007,1030.4738 c -3.4246,0 -6.20079,2.7761 -6.20079,6.2007 0,3.4246 2.77619,6.2008 6.20079,6.2008 3.4246,0 6.20079,-2.7762 6.20079,-6.2008 0,-3.4246 -2.77619,-6.2007 -6.20079,-6.2007 z"
       id="circle3314"
       inkscape:connector-curvature="0" />
    <path
       style="fill:none;stroke:#000000;stroke-width:1.24015749;stroke-linecap:butt;stroke-linejoin:miter"
       d="m 215.29298,1030.4738 c -3.4246,0 -6.20078,2.7761 -6.20078,6.2007 0,3.4246 2.77618,6.2008 6.20078,6.2008 3.4246,0 6.20079,-2.7762 6.20079,-6.2008 0,-3.4246 -2.77619,-6.2007 -6.20079,-6.2007 z"
       id="circle3316"
       inkscape:connector-curvature="0" />
    <path
       style="fill:none;stroke:#000000;stroke-width:1.24015749;stroke-linecap:butt;stroke-linejoin:miter"
       d="m 315.09625,1030.4738 c -3.4246,0 -6.20079,2.7761 -6.20079,6.2007 0,3.4246 2.77619,6.2008 6.20079,6.2008 3.4246,0 6.20079,-2.7762 6.20079,-6.2008 0,-3.4246 -2.77619,-6.2007 -6.20079,-6.2007 z"
       id="circle3318"
       inkscape:connector-curvature="0" />
    <path
       style="fill:none;stroke:#000000;stroke-width:1.24015749;stroke-linecap:butt;stroke-linejoin:miter"
       d="m 315.09625,930.66941 c -3.4246,0 -6.20079,2.77618 -6.20079,6.20079 0,3.42461 2.77619,6.20079 6.20079,6.20079 3.4246,0 6.20079,-2.77618 6.20079,-6.20079 0,-3.42461 -2.77619,-6.20079 -6.20079,-6.20079 z"
       id="circle3320"
       inkscape:connector-curvature="0" />
    <path
       style="fill:none;stroke:#000000;stroke-width:1.24015749;stroke-linecap:butt;stroke-linejoin:miter"
       d="m 315.09625,830.86866 c -3.4246,0 -6.20079,2.77618 -6.20079,6.20079 0,3.42461 2.77619,6.20079 6.20079,6.20079 3.4246,0 6.20079,-2.77618 6.20079,-6.20079 0,-3.42461 -2.77619,-6.20079 -6.20079,-6.20079 z"
       id="circle3322"
       inkscape:connector-curvature="0" />
    <path
       style="fill:none;stroke:#000000;stroke-width:1.24015749;stroke-linecap:butt;stroke-linejoin:miter"
       d="m 315.09625,731.06433 c -3.4246,0 -6.20079,2.77619 -6.20079,6.20079 0,3.4246 2.77619,6.20079 6.20079,6.20079 3.4246,0 6.20079,-2.77619 6.20079,-6.20079 0,-3.4246 -2.77619,-6.20079 -6.20079,-6.20079 z"
       id="circle3324"
       inkscape:connector-curvature="0" />
  </g>
</svg>
