<?xml version="1.0" encoding="UTF-8" standalone="no"?>
<!-- Created with Inkscape (http://www.inkscape.org/) -->

<svg
   xmlns:dc="http://purl.org/dc/elements/1.1/"
   xmlns:cc="http://creativecommons.org/ns#"
   xmlns:rdf="http://www.w3.org/1999/02/22-rdf-syntax-ns#"
   xmlns:svg="http://www.w3.org/2000/svg"
   xmlns="http://www.w3.org/2000/svg"
   xmlns:sodipodi="http://sodipodi.sourceforge.net/DTD/sodipodi-0.dtd"
   xmlns:inkscape="http://www.inkscape.org/namespaces/inkscape"
   width="810"
   height="1170"
   id="svg2"
   version="1.1"
   inkscape:version="0.48.4 r9939"
   sodipodi:docname="pocket.svg">
  <defs
     id="defs4" />
  <sodipodi:namedview
     id="base"
     pagecolor="#ffffff"
     bordercolor="#666666"
     borderopacity="1.0"
     inkscape:pageopacity="0.0"
     inkscape:pageshadow="2"
     inkscape:zoom="0.69059829"
     inkscape:cx="405"
     inkscape:cy="585"
     inkscape:document-units="px"
     inkscape:current-layer="layer5"
     showgrid="false"
     units="in"
     inkscape:window-width="1280"
     inkscape:window-height="1024"
     inkscape:window-x="1280"
     inkscape:window-y="0"
     inkscape:window-maximized="0" />
  <metadata
     id="metadata7">
    <rdf:RDF>
      <cc:Work
         rdf:about="">
        <dc:format>image/svg+xml</dc:format>
        <dc:type
           rdf:resource="http://purl.org/dc/dcmitype/StillImage" />
        <dc:title />
      </cc:Work>
    </rdf:RDF>
  </metadata>
  <g
     inkscape:groupmode="layer"
     id="layer5"
     inkscape:label="Border"
     style="display:inline">
    <path
       id="19"
       transform="translate(0,117.64025)"
       style="fill:none;stroke:#000000;stroke-width:1.24015749;stroke-linecap:butt;stroke-linejoin:miter"
       d="m 330.16611,722.20034 0,329.52756 -329.52754728,0 0,-53.14961 C 28.57274,938.22178 67.228861,882.84623 114.25665,835.81844 161.28444,788.79064 216.65999,750.13452 277.0165,722.20034 l 53.14961,0"
       inkscape:connector-curvature="0"
       sodipodi:nodetypes="ccccscc" />
  </g>
  <g
     inkscape:label="Holes"
     inkscape:groupmode="layer"
     id="layer1"
     transform="translate(0,117.64025)"
     style="display:inline">
    <path
       inkscape:connector-curvature="0"
       style="fill:none;stroke:#000000;stroke-width:1.24015749;stroke-linecap:butt;stroke-linejoin:miter"
       d="m 13.925963,1033.1255 c 2.935371,0 5.31496,2.3796 5.31496,5.315 0,2.9353 -2.379589,5.3149 -5.31496,5.3149 -2.935371,0 -5.3149613,-2.3796 -5.3149613,-5.3149 0,-2.9354 2.3795903,-5.315 5.3149613,-5.315 z"
       id="circle3244" />
    <path
       inkscape:connector-curvature="0"
       style="fill:none;stroke:#000000;stroke-width:1.24015749;stroke-linecap:butt;stroke-linejoin:miter"
       d="m 114.91021,1033.1255 c 2.93537,0 5.31496,2.3796 5.31496,5.315 0,2.9353 -2.37959,5.3149 -5.31496,5.3149 -2.93538,0 -5.31497,-2.3796 -5.31497,-5.3149 0,-2.9354 2.37959,-5.315 5.31497,-5.315 z"
       id="circle3246" />
    <path
       inkscape:connector-curvature="0"
       style="fill:none;stroke:#000000;stroke-width:1.24015749;stroke-linecap:butt;stroke-linejoin:miter"
       d="m 215.89445,1033.1255 c 2.93538,0 5.31497,2.3796 5.31497,5.315 0,2.9353 -2.37959,5.3149 -5.31497,5.3149 -2.93537,0 -5.31496,-2.3796 -5.31496,-5.3149 0,-2.9354 2.37959,-5.315 5.31496,-5.315 z"
       id="circle3248" />
    <path
       inkscape:connector-curvature="0"
       style="fill:none;stroke:#000000;stroke-width:1.24015749;stroke-linecap:butt;stroke-linejoin:miter"
       d="m 316.8787,1033.1255 c 2.93538,0 5.31496,2.3796 5.31496,5.315 0,2.9353 -2.37958,5.3149 -5.31496,5.3149 -2.93537,0 -5.31496,-2.3796 -5.31496,-5.3149 0,-2.9354 2.37959,-5.315 5.31496,-5.315 z"
       id="circle3250" />
    <path
       inkscape:connector-curvature="0"
       style="fill:none;stroke:#000000;stroke-width:1.24015749;stroke-linecap:butt;stroke-linejoin:miter"
       d="m 316.8787,932.14128 c 2.93538,0 5.31496,2.37958 5.31496,5.31496 0,2.93538 -2.37958,5.31496 -5.31496,5.31496 -2.93537,0 -5.31496,-2.37958 -5.31496,-5.31496 0,-2.93538 2.37959,-5.31496 5.31496,-5.31496 z"
       id="circle3252" />
    <path
       inkscape:connector-curvature="0"
       style="fill:none;stroke:#000000;stroke-width:1.24015749;stroke-linecap:butt;stroke-linejoin:miter"
       d="m 316.8787,831.15703 c 2.93538,0 5.31496,2.37958 5.31496,5.31496 0,2.93539 -2.37958,5.31496 -5.31496,5.31496 -2.93537,0 -5.31496,-2.37957 -5.31496,-5.31496 0,-2.93538 2.37959,-5.31496 5.31496,-5.31496 z"
       id="circle3254" />
    <path
       inkscape:connector-curvature="0"
       style="fill:none;stroke:#000000;stroke-width:1.24015749;stroke-linecap:butt;stroke-linejoin:miter"
       d="m 316.8787,730.17278 c 2.93538,0 5.31496,2.37959 5.31496,5.31496 0,2.93537 -2.37958,5.31496 -5.31496,5.31496 -2.93537,0 -5.31496,-2.37959 -5.31496,-5.31496 0,-2.93537 2.37959,-5.31496 5.31496,-5.31496 z"
       id="circle3256" />
  </g>
</svg>
